<?xml version="1.0" encoding="utf-8"?>
<!-- Generator: Adobe Illustrator 23.0.6, SVG Export Plug-In . SVG Version: 6.00 Build 0)  -->
<svg version="1.1" id="Layer_1" xmlns="http://www.w3.org/2000/svg" xmlns:xlink="http://www.w3.org/1999/xlink" x="0px" y="0px"
	 viewBox="0 0 33.1 29.8" style="enable-background:new 0 0 33.1 29.8;" xml:space="preserve">
<style type="text/css">
	.st0{fill:url(#SVGID_1_);}
	.st1{fill:url(#SVGID_2_);}
	.st2{fill:url(#SVGID_3_);}
	.st3{fill:url(#SVGID_4_);}
	.st4{fill:url(#SVGID_5_);}
	.st5{fill:url(#SVGID_6_);}
	.st6{fill:url(#SVGID_7_);}
	.st7{fill:url(#SVGID_8_);}
	.st8{fill:url(#SVGID_9_);}
	.st9{fill:url(#SVGID_10_);}
</style>
<linearGradient id="SVGID_1_" gradientUnits="userSpaceOnUse" x1="16.55" y1="29.8077" x2="16.55" y2="0">
	<stop  offset="0" style="stop-color:#EC7032"/>
	<stop  offset="1" style="stop-color:#F1922F"/>
</linearGradient>
<path class="st0" d="M25,1.5H13V0h12V1.5z M13.8,9.8H3.3v1.5h10.5V9.8z M7.8,3.8H6.3v1.5h1.5V3.8z M4.8,3.8H3.3v1.5h1.5V3.8z
	 M22.9,14.6l-0.5-0.7l-3.9,4l3.8,5.7c0.2,0.3,0.2,0.5,0.1,0.7c-0.1,0.3-0.3,0.5-0.6,0.6l-9.2,3.6l0.5,1.4l9.2-3.6
	c0.7-0.3,1.3-0.9,1.5-1.6c0.2-0.7,0.1-1.4-0.3-2L20.5,18l1.8-1.8c0.5,0.7,1.4,1.9,2,2.4l0.2,0.2h5.8v-1.5H25
	C24.4,16.6,23.3,15.1,22.9,14.6z M16.7,20.5c-1.7-1.9-2.3-4.8-1.2-5.9c1.4-1.4,4.1-4.2,4.1-4.2L20,9.9l-2.5-3.3l-4.8-0.5l-0.2,1.5
	L16.7,8L18,9.8c-0.8,0.8-2.6,2.7-3.6,3.7c-1.7,1.7-1.2,5.4,1.2,8l1.6,1.7L11.1,27l0.8,1.3l7.7-4.8L16.7,20.5z M27,14.1l-3.2-6.8
	l-0.1-0.1c-0.8-0.8-3.5-3.5-5.1-3.5H9.3v1.5h9.4c0.6,0,2.6,1.5,4,3l3.4,7.2l6.9,1.2l0.2-1.5L27,14.1z M12.8,21.3L2.6,27l0.7,1.3
	l10.2-5.7L12.8,21.3z M11.7,17.4L0,25.6l0.9,1.2l11.7-8.2L11.7,17.4z M26,7.8c0-1.9,1.6-3.5,3.5-3.5s3.5,1.6,3.5,3.5
	s-1.6,3.5-3.5,3.5S26,9.8,26,7.8z M27.5,7.8c0,1.1,0.9,2,2,2s2-0.9,2-2c0-1.1-0.9-2-2-2S27.5,6.8,27.5,7.8z"/>
</svg>
