<?xml version="1.0" encoding="utf-8"?>
<!-- Generator: Adobe Illustrator 23.0.6, SVG Export Plug-In . SVG Version: 6.00 Build 0)  -->
<svg version="1.1" id="Layer_1" xmlns="http://www.w3.org/2000/svg" xmlns:xlink="http://www.w3.org/1999/xlink" x="0px" y="0px"
	 viewBox="0 0 36.1 31.6" style="enable-background:new 0 0 36.1 31.6;" xml:space="preserve">
<style type="text/css">
	.st0{fill:url(#SVGID_1_);}
	.st1{fill:url(#SVGID_2_);}
	.st2{fill:url(#SVGID_3_);}
	.st3{fill:url(#SVGID_4_);}
	.st4{fill:url(#SVGID_5_);}
	.st5{fill:url(#SVGID_6_);}
	.st6{fill:url(#SVGID_7_);}
	.st7{fill:url(#SVGID_8_);}
	.st8{fill:url(#SVGID_9_);}
	.st9{fill:url(#SVGID_10_);}
</style>
<linearGradient id="SVGID_1_" gradientUnits="userSpaceOnUse" x1="18.0645" y1="31.6274" x2="18.0645" y2="0">
	<stop  offset="0" style="stop-color:#EC7032"/>
	<stop  offset="1" style="stop-color:#F1922F"/>
</linearGradient>
<path class="st0" d="M36.1,3.8V9c0,1.7-1.3,3-3,3h-1.5v1c0,1-0.4,1.9-1.1,2.7L15.2,31c-0.4,0.4-1,0.7-1.6,0.7
	c-0.6,0-1.2-0.2-1.6-0.7L0.7,19.6C0.2,19.2,0,18.6,0,18s0.2-1.2,0.7-1.6L16,1.1C16.7,0.4,17.6,0,18.6,0h6.6l1.7,1.7l-1.1,1.1
	l-1.3-1.3h-5.9c-0.6,0-1.2,0.2-1.6,0.7L1.7,17.5c-0.1,0.1-0.2,0.3-0.2,0.5s0.1,0.4,0.2,0.5l11.4,11.4c0.3,0.3,0.8,0.3,1.1,0
	l15.3-15.3c0.4-0.4,0.7-1,0.7-1.6V7.1l-1.3-1.3l1.1-1.1l1.7,1.7v4.1h1.5c0.8,0,1.5-0.7,1.5-1.5V3.8c0-0.8-0.7-1.5-1.5-1.5h-1.4
	c-0.8,0-1.6,0.3-2.1,0.9l-4.4,4.4l1,1l-1.1,1.1l-3-3l1.1-1.1l1,1l4.4-4.4c0.8-0.8,2-1.3,3.2-1.3h1.4C34.8,0.8,36.1,2.1,36.1,3.8z
	 M7.9,17.7l6,6l1.1-1.1l-6-6L7.9,17.7z M22.4,15.3l-6-6l-1.1,1.1l6,6L22.4,15.3z M17.1,20.6l-6-6L10,15.6l6,6L17.1,20.6z M18.7,19
	l-6-6L11.6,14l6,6L18.7,19z M20.8,16.8l-6-6l-1.1,1.1l6,6L20.8,16.8z"/>
</svg>
