<?xml version="1.0" encoding="utf-8"?>
<!-- Generator: Adobe Illustrator 23.0.6, SVG Export Plug-In . SVG Version: 6.00 Build 0)  -->
<svg version="1.1" id="Layer_1" xmlns="http://www.w3.org/2000/svg" xmlns:xlink="http://www.w3.org/1999/xlink" x="0px" y="0px"
	 viewBox="0 0 36 26.1" style="enable-background:new 0 0 36 26.1;" xml:space="preserve">
<style type="text/css">
	.st0{fill:url(#SVGID_1_);}
	.st1{fill:url(#SVGID_2_);}
	.st2{fill:url(#SVGID_3_);}
	.st3{fill:url(#SVGID_4_);}
	.st4{fill:url(#SVGID_5_);}
	.st5{fill:url(#SVGID_6_);}
	.st6{fill:url(#SVGID_7_);}
	.st7{fill:url(#SVGID_8_);}
	.st8{fill:url(#SVGID_9_);}
	.st9{fill:url(#SVGID_10_);}
</style>
<linearGradient id="SVGID_1_" gradientUnits="userSpaceOnUse" x1="18" y1="26.0662" x2="18" y2="0">
	<stop  offset="0" style="stop-color:#EC7032"/>
	<stop  offset="1" style="stop-color:#F1922F"/>
</linearGradient>
<path class="st0" d="M35.2,0c-3.5,0.1-13.4,1.3-17.3,5.3c-3,3.1-3.2,7.1-1.7,9.6c-0.9,1.2-1.6,2.5-2.1,3.9c-2.1-4.3-5.4-7-7.7-8.8
	L6.2,9.8L5.3,11l0.2,0.2c1.8,1.5,4.4,3.5,6.3,6.6c-2.2,1-4.8,0.5-6.6-1.3C2.9,14,1.6,10.1,1.5,5.1c2.4,0.2,9.8,1.4,10.6,8.8l1.5-0.2
	C12.7,5.7,5.1,3.6,0.8,3.6H0v0.8c0,5.8,1.5,10.3,4.2,13.1c1.5,1.5,3.4,2.3,5.4,2.3c1,0,2.1-0.2,3-0.7c0.3,0.6,0.6,1.2,0.8,1.8
	c-0.5,1.7-0.7,3.4-0.7,5.2h1.5c0-10.2,8-16.3,14.8-19.6l-0.7-1.3c-4.8,2.3-8.5,5.2-11.1,8.4c-0.8-1.9-0.5-4.9,1.7-7.2
	c3-3.1,10.7-4.5,15.5-4.8c-0.1,4-1,9-4.6,12.3c-2.8,2.6-6.8,3.7-11.9,3.3l-0.1,1.5c0.7,0,1.3,0.1,1.9,0.1c4.7,0,8.4-1.3,11.1-3.8
	c4.2-3.9,5-9.9,5-14.2V0L35.2,0z"/>
</svg>
