<?xml version="1.0" encoding="utf-8"?>
<!-- Generator: Adobe Illustrator 23.0.6, SVG Export Plug-In . SVG Version: 6.00 Build 0)  -->
<svg version="1.1" id="Layer_1" xmlns="http://www.w3.org/2000/svg" xmlns:xlink="http://www.w3.org/1999/xlink" x="0px" y="0px"
	 viewBox="0 0 34.9 35.3" style="enable-background:new 0 0 34.9 35.3;" xml:space="preserve">
<style type="text/css">
	.st0{fill:url(#SVGID_1_);}
	.st1{fill:url(#SVGID_2_);}
	.st2{fill:url(#SVGID_3_);}
	.st3{fill:url(#SVGID_4_);}
	.st4{fill:url(#SVGID_5_);}
	.st5{fill:url(#SVGID_6_);}
	.st6{fill:url(#SVGID_7_);}
	.st7{fill:url(#SVGID_8_);}
	.st8{fill:url(#SVGID_9_);}
	.st9{fill:url(#SVGID_10_);}
</style>
<g>
	<linearGradient id="SVGID_1_" gradientUnits="userSpaceOnUse" x1="18.832" y1="35.3141" x2="18.832" y2="0">
		<stop  offset="0" style="stop-color:#EC7032"/>
		<stop  offset="1" style="stop-color:#F1922F"/>
	</linearGradient>
	<path class="st0" d="M34.2,3.2c-3.3,0.1-12.8,1.2-16.5,5c-2.8,2.9-3.2,7.4-1.8,9.8c-0.6,0.9-1.1,1.9-1.5,3
		c-0.5-2.1-1.1-4.5-1.9-6.8c1.9-1.9,2.2-5.8,1.4-7.5C12.7,4.1,10.4,3,8.1,1.8C7.2,1.4,6.3,0.9,5.4,0.4L4.7,0L4.4,0.6
		C2.7,3.4,2.3,6.5,3.2,9.1c0.7,1.8,2.2,4.2,6,5.4l0.5-1.4c-2.6-0.8-4.3-2.4-5.1-4.5c-0.7-2-0.5-4.3,0.6-6.5C6,2.5,6.7,2.8,7.4,3.2
		c2.2,1.1,4.2,2.1,5.2,4.2c0.5,1,0.3,3.6-0.7,5.2c-1-2.6-2.4-5.2-4-7.5L6.6,6c4.2,5.9,6.2,13.5,6.9,18.6c0,0,0,0.1,0,0.1l0,0
		c0.3,1.9,0.4,3.4,0.4,4.5L11.5,31H8.6l-3.3,1.6l-1.6,1.6l1.1,1.1l1.4-1.4l2.7-1.4H12l2.7-2l1.3,1.3h2.4l3,1.5h2.9l2,2l1.1-1.1
		l-2.5-2.5h-3.1l-3-1.5h-2.1l-1.1-1.1c0-1-0.1-2.6-0.4-4.6c0.6-5.1,3.9-9.1,9.8-12l-0.7-1.3c-3.1,1.5-5.5,3.3-7.2,5.4
		c-0.7-2-0.2-5.3,1.8-7.4C21.6,6.4,28.9,5,33.4,4.7C33.3,8,32.6,13.3,29,16.6c-2.6,2.4-6.4,3.5-11.2,3.2l-0.1,1.5
		c0.6,0,1.2,0.1,1.8,0.1c4.4,0,7.9-1.2,10.5-3.6c4.1-3.8,4.9-9.6,4.9-13.8V3.2L34.2,3.2z"/>
	<linearGradient id="SVGID_2_" gradientUnits="userSpaceOnUse" x1="5.8808" y1="24.8364" x2="5.8808" y2="17.43">
		<stop  offset="0" style="stop-color:#EC7032"/>
		<stop  offset="1" style="stop-color:#F1922F"/>
	</linearGradient>
	<path class="st1" d="M8.1,24.8c1.7,0,3.1-0.6,3.2-0.6l0.5-0.2l0-0.5c0-0.2-0.1-3.7-2.6-5.1c-2.3-1.3-7.4-0.9-7.9-0.8L0,17.6l0.6,1
		c0.1,0.2,2.5,4.2,4.8,5.5C6.2,24.7,7.2,24.8,8.1,24.8z M2.6,19c1.8-0.1,4.6,0,5.8,0.7c1.3,0.7,1.7,2.4,1.8,3.3
		c-0.9,0.3-2.7,0.6-4.1-0.1C4.8,22.1,3.4,20.2,2.6,19z"/>
</g>
</svg>
