<?xml version="1.0" encoding="UTF-8"?> <svg xmlns="http://www.w3.org/2000/svg" xmlns:xlink="http://www.w3.org/1999/xlink" width="334px" height="270px" viewBox="0 0 334 270" version="1.1"><title>Eficient Resource Management</title><g id="Page-1" stroke="none" stroke-width="1" fill="none" fill-rule="evenodd"><g id="Mobile-App-Development-Services_UPD" transform="translate(-908.000000, -1143.000000)"><g id="Eficient-Resource-Management" transform="translate(908.000000, 1143.000000)"><rect id="Rectangle" x="0" y="0" width="334" height="270"></rect><g id="Expenses-Opt" transform="translate(47.468635, 0.988930)"><g id="Layer_2-2" fill-rule="nonzero"><path d="M119.273345,39.3039575 C119.273345,39.3039575 35.4337156,37.592348 25.1676386,126.596038 C25.1676386,126.596038 14.9015616,224.157775 119.273345,232.715822 C119.273345,232.715822 216.801076,241.273869 219.880899,138.919626 C219.927375,137.966058 219.592712,137.033168 218.950734,136.326747 C218.308756,135.620325 217.412213,135.198414 216.458874,135.154085 L134.67246,135.154085 C128.057696,135.154085 122.69537,129.78989 122.69537,123.172819 L122.69537,42.7271763 C122.69537,40.8365847 121.163277,39.3039575 119.273345,39.3039575 Z" id="Path" stroke="#37474F" stroke-width="3" fill="#FFFFFF"></path><path d="M136.383473,30.4035884 L136.383473,114.614772 C136.383473,118.395955 139.447659,121.46121 143.227524,121.46121 L227.067153,121.46121 C228.958655,121.417325 230.752241,120.611 232.040897,119.225212 C233.329554,117.839424 234.004007,115.991682 233.911205,114.101289 C232.713496,94.4177809 222.447419,39.9886012 144.596335,23.7283117 C142.588298,23.3182554 140.502243,23.8299731 138.911637,25.1227911 C137.321031,26.4156091 136.393297,28.3534485 136.383473,30.4035884 L136.383473,30.4035884 Z" id="Path" stroke="#37474F" stroke-width="3" fill="#FC6E50"></path><circle id="Oval" fill="#FFFFFF" cx="52.9698074" cy="52.9698074" r="52.9698074"></circle><ellipse id="Oval" stroke="#37474F" stroke-width="3" cx="52.9841255" cy="52.9698074" rx="41.0643081" ry="41.0786262"></ellipse><rect id="Rectangle" stroke="#37474F" stroke-width="3" fill="#FFFFFF" x="17.2962637" y="113.50673" width="71.3470876" height="153.50434" rx="10.3"></rect><rect id="Rectangle" fill="#FFD740" x="21.6203296" y="117.830796" width="62.6989557" height="144.856208" rx="6.3"></rect></g><g id="Group-40" transform="translate(97.291483, 123.235879)" fill="#00C8FF"><path d="M18.3670574,9.7584861 L27.9267107,22.7596146 C28.5810472,23.6495121 28.3900871,24.9013611 27.5001896,25.5556975 C27.1567748,25.8082084 26.7416663,25.9443955 26.3154087,25.9443955 L7.19610212,25.9443955 C6.09153262,25.9443955 5.19610212,25.048965 5.19610212,23.9443955 C5.19610212,23.5181379 5.33228918,23.1030294 5.5848001,22.7596146 L15.1444534,9.7584861 C15.7987898,8.86858857 17.0506388,8.67762855 17.9405363,9.33196498 C18.1034552,9.45175831 18.2472641,9.59556718 18.3670574,9.7584861 Z" id="Triangle" transform="translate(16.755755, 16.755755) rotate(45.000000) translate(-16.755755, -16.755755) "></path></g><text id="$" font-family="Montserrat-Regular, Montserrat" font-size="40" font-weight="normal" fill="#00C8FF"><tspan x="38.9165932" y="64.7672662">$</tspan></text></g><g id="Group-43" transform="translate(178.271629, 170.708517)"><rect id="Rectangle" stroke="#37474F" stroke-width="3" fill="#FFFFFF" x="1.5" y="1.5" width="92.1294501" height="87.8053842" rx="8"></rect><g id="Group-41" transform="translate(10.810165, 21.620330)"><path d="M44.6640616,10.4845574 L1.48880205,10.4845574 C0.666487053,10.4845574 9.60135507e-14,9.75865484 9.60135507e-14,8.86303269 C9.60135507e-14,7.96741054 0.666487053,7.24150797 1.48880205,7.24150797 L44.6640616,7.24150797 C45.4863766,7.24150797 46.1528637,7.96741054 46.1528637,8.86303269 C46.1528637,9.75865484 45.4863766,10.4845574 44.6640616,10.4845574 Z" id="Path" fill="#37474F" fill-rule="nonzero"></path><path d="M44.6640616,55.1318404 L1.48880205,55.1318404 C0.666487053,55.1318404 9.60135507e-14,54.4059378 9.60135507e-14,53.5103157 C9.60135507e-14,52.6146935 0.666487053,51.888791 1.48880205,51.888791 L44.6640616,51.888791 C45.4863766,51.888791 46.1528637,52.6146935 46.1528637,53.5103157 C46.1528637,54.4059378 45.4863766,55.1318404 44.6640616,55.1318404 Z" id="Path" fill="#37474F" fill-rule="nonzero"></path><path d="M71.6350956,17.9084055 L0.793008438,17.9084055 C0.355003444,17.9084055 0,17.1825029 0,16.2868808 C0,15.3912586 0.355003444,14.6653561 0.793008438,14.6653561 L71.6350956,14.6653561 C72.0731006,14.6653561 72.428104,15.3912586 72.428104,16.2868808 C72.428104,17.1825029 72.0731006,17.9084055 71.6350956,17.9084055 Z" id="Path" fill="#37474F" fill-rule="nonzero"></path><path d="M71.6350956,47.564725 L0.793008438,47.564725 C0.355003444,47.564725 0,46.8388225 0,45.9432003 C0,45.0475782 0.355003444,44.3216756 0.793008438,44.3216756 L71.6350956,44.3216756 C72.0731006,44.3216756 72.428104,45.0475782 72.428104,45.9432003 C72.428104,46.8388225 72.0731006,47.564725 71.6350956,47.564725 Z" id="Path" fill="#37474F" fill-rule="nonzero"></path><path d="M50.251485,25.3322536 L0.556289502,25.3322536 C0.249032267,25.3322536 0,24.6063511 0,23.7107289 C0,22.8151067 0.249032267,22.0892042 0.556289502,22.0892042 L50.251485,22.0892042 C50.5587422,22.0892042 50.8077745,22.8151067 50.8077745,23.7107289 C50.8077745,24.6063511 50.5587422,25.3322536 50.251485,25.3322536 Z" id="Path" fill="#37474F" fill-rule="nonzero"></path><line x1="0.540508239" y1="0.540508239" x2="72.9686123" y2="0.540508239" id="Line-13" stroke="#37474F" stroke-width="3" stroke-linecap="round" stroke-dasharray="3,10"></line><line x1="0.540508239" y1="38.9165932" x2="72.9686123" y2="38.9165932" id="Line-13" stroke="#37474F" stroke-width="3" stroke-linecap="round" stroke-dasharray="3,10"></line></g><path d="M89.1294501,1.5 C90.3720908,1.5 91.4970908,2.00367966 92.3114306,2.81801948 C93.1257704,3.63235931 93.6294501,4.75735931 93.6294501,6 L93.6294501,6 L93.6294501,12.5532142 L1.5,12.5532142 L1.5,6 C1.5,4.75735931 2.00367966,3.63235931 2.81801948,2.81801948 C3.63235931,2.00367966 4.75735931,1.5 6,1.5 L6,1.5 Z" id="Rectangle" stroke="#37474F" stroke-width="3" fill="#FFD740"></path></g><rect id="Rectangle" fill="#00C8FF" x="77.7370961" y="205.301044" width="9.7291483" height="21.6203296" rx="2"></rect><rect id="Rectangle" fill="#00C8FF" x="89.6282773" y="196.652912" width="9.7291483" height="30.2684614" rx="2"></rect><rect id="Rectangle" fill="#00C8FF" x="101.519459" y="189.085797" width="9.7291483" height="37.8355767" rx="2"></rect><rect id="Rectangle" fill="#00C8FF" x="113.41064" y="196.652912" width="9.7291483" height="30.2684614" rx="2"></rect><line x1="88.5472609" y1="259.351868" x2="112.329623" y2="259.351868" id="Path-61" stroke="#37474F" stroke-width="3" stroke-linecap="round"></line><line x1="73.9535384" y1="226.380866" x2="126.923346" y2="226.380866" id="Line-12" stroke="#37474F" stroke-width="3" stroke-linecap="round"></line><polyline id="Path-62" stroke="#00C8FF" stroke-width="3" stroke-linecap="round" points="77.7370961 181.518682 106.924541 159.898352 123.139788 170.708517 163.137398 140.440056"></polyline><circle id="Oval" fill="#00C8FF" cx="106.924541" cy="159.898352" r="4.32406591"></circle><circle id="Oval" fill="#00C8FF" cx="123.139788" cy="170.708517" r="4.32406591"></circle><circle id="Oval" fill="#00C8FF" cx="77.7370961" cy="181.518682" r="4.32406591"></circle></g></g></g></svg> 