<?xml version="1.0" encoding="utf-8"?>
<!-- Generator: Adobe Illustrator 24.0.0, SVG Export Plug-In . SVG Version: 6.00 Build 0)  -->
<svg version="1.1" id="Warstwa_1" xmlns="http://www.w3.org/2000/svg" xmlns:xlink="http://www.w3.org/1999/xlink" x="0px" y="0px"
	 viewBox="0 0 40 40" style="enable-background:new 0 0 40 40;" xml:space="preserve">
<style type="text/css">
	.st0{fill:#ff4e00;}
</style>
<g>
	<g>
		<polygon class="st0" points="25.5,36 14.5,36 14.5,25.8 22.3,25.8 22.3,27.8 16.5,27.8 16.5,34 23.5,34 23.5,31.3 25.5,31.3 		"/>
	</g>
	<g>
		<polygon class="st0" points="20,34.2 17,31.2 18.5,29.8 20,31.3 24.5,26.1 26,27.4 		"/>
	</g>
	<g>
		<path class="st0" d="M38.3,36h-11V25.8h11V36z M29.3,34h7v-6.3h-7V34z"/>
	</g>
	<g>
		<polygon class="st0" points="12.8,36 1.8,36 1.8,25.8 9.5,25.8 9.5,27.8 3.8,27.8 3.8,34 10.8,34 10.8,31.3 12.8,31.3 		"/>
	</g>
	<g>
		<polygon class="st0" points="7.3,34.2 4.3,31.2 5.7,29.8 7.2,31.3 11.7,26.1 13.3,27.4 		"/>
	</g>
	<g>
		<path class="st0" d="M11,13.5c-2.3,0-4-1.8-4-4.2V8.2C7,5.8,8.7,4,11,4s4,1.8,4,4.2v1.1C15,11.7,13.3,13.5,11,13.5z M11,6
			C9.8,6,9,6.9,9,8.2v1.1c0,1.3,0.8,2.2,2,2.2s2-0.9,2-2.2V8.2C13,6.9,12.2,6,11,6z"/>
	</g>
	<g>
		<path class="st0" d="M17.7,24.8h-5l-4-4.9l1.5-1.3l3.5,4.1h4c0.5,0,0.8-0.2,0.9-0.3c0.2-0.2,0.3-0.4,0.3-0.7H15l-5.2-6h-1
			c-1.5,0-1.9,1.3-2,2.1c-0.3,1.8-0.7,5.9-0.7,6l-2-0.2c0,0,0.5-4.2,0.8-6c0.3-2.4,1.9-3.9,4-3.9h2l5.2,6h4.9l0.1,0.9
			c0,0.2,0.2,1.9-0.9,3.1C19.7,24.2,19,24.8,17.7,24.8z"/>
	</g>
	<g>
		<path class="st0" d="M24.5,22.5h-3v-2h2.4l3.3-5.5h-7.4l-2.7,4.1l-1.7-1.1l3-4.5c0.2-0.3,0.5-0.4,0.8-0.4H29
			c0.4,0,0.7,0.2,0.9,0.5s0.2,0.7,0,1L25.4,22C25.2,22.3,24.9,22.5,24.5,22.5z"/>
	</g>
	<g>
		<rect x="10.3" y="22.8" class="st0" width="25.5" height="2"/>
	</g>
</g>
</svg>
