<?xml version="1.0" encoding="utf-8"?>
<!-- Generator: Adobe Illustrator 23.0.6, SVG Export Plug-In . SVG Version: 6.00 Build 0)  -->
<svg version="1.1" id="Layer_1" xmlns="http://www.w3.org/2000/svg" xmlns:xlink="http://www.w3.org/1999/xlink" x="0px" y="0px"
	 viewBox="0 0 35.2 31.1" style="enable-background:new 0 0 35.2 31.1;" xml:space="preserve">
<style type="text/css">
	.st0{fill:url(#SVGID_1_);}
	.st1{fill:url(#SVGID_2_);}
	.st2{fill:url(#SVGID_3_);}
	.st3{fill:url(#SVGID_4_);}
	.st4{fill:url(#SVGID_5_);}
	.st5{fill:url(#SVGID_6_);}
	.st6{fill:url(#SVGID_7_);}
	.st7{fill:url(#SVGID_8_);}
	.st8{fill:url(#SVGID_9_);}
	.st9{fill:url(#SVGID_10_);}
</style>
<linearGradient id="SVGID_1_" gradientUnits="userSpaceOnUse" x1="17.6019" y1="31.0575" x2="17.6019" y2="0">
	<stop  offset="0" style="stop-color:#EC7032"/>
	<stop  offset="1" style="stop-color:#F1922F"/>
</linearGradient>
<path class="st0" d="M34.6,0.6C34-0.1,32.9-0.2,32,0.3c-1.1,0.6-14.2,12.5-17.1,15.4l-5.2,6.4C9,22,8.2,22,7.4,22.3
	c-1.4,0.4-2.3,1.3-3.1,2.2c-1,1-1.9,2-3.6,2.2c-0.3,0-0.5,0.2-0.6,0.5s0,0.6,0.2,0.8c2.6,2.5,5.1,3.1,6.9,3.1c0.9,0,1.6-0.1,2-0.3
	c3.1-0.8,4.2-3.2,3.8-5.2l6.5-5.4c2.8-2.8,14.7-15.9,15.3-17C35.4,2.3,35.3,1.2,34.6,0.6z M8.8,29.4c-1,0.3-3.6,0.6-6.5-1.6
	c1.3-0.5,2.2-1.4,3-2.3c0.8-0.8,1.4-1.5,2.4-1.8c2.7-0.7,3.5,1,3.7,1.8C11.9,26.9,11.4,28.7,8.8,29.4z M11.2,22.6l4.7-5.7l2.4,2.4
	l-5.8,4.7C12.2,23.5,11.7,23,11.2,22.6z M33.6,2.5C33,3.4,23.3,14.2,19.4,18.3l-2.5-2.5c4.2-4,14.9-13.7,15.8-14.2
	c0.3-0.2,0.7-0.2,0.9,0C33.7,1.8,33.8,2.2,33.6,2.5z"/>
</svg>
