<?xml version="1.0" encoding="utf-8"?>
<!-- Generator: Adobe Illustrator 24.0.0, SVG Export Plug-In . SVG Version: 6.00 Build 0)  -->
<svg version="1.1" id="Layer_1" xmlns="http://www.w3.org/2000/svg" xmlns:xlink="http://www.w3.org/1999/xlink" x="0px" y="0px"
	 viewBox="0 0 48 38.5" style="enable-background:new 0 0 48 38.5;" xml:space="preserve">
<style type="text/css">
	.st0{fill:#FF4E00;}
	.st1{fill:none;stroke:#FF4E00;stroke-width:2;stroke-linecap:round;stroke-miterlimit:10;}
</style>
<g id="Layer_3">
	<g>
		<path class="st0" d="M23.1,5.6c-5.8,0-10.6,4.7-10.6,10.6c0,2,0.6,4,1.7,5.7l0.1,0.2c1.3,2.2,2.5,5.1,2.9,6.4
			c-0.6,0.3-0.9,0.9-0.9,1.6v2c0,1,0.8,1.8,1.8,1.8h0.2c0.6,2.4,2.5,4,4.7,4l0,0c2.2,0,4-1.7,4.7-4h0.6c1,0,1.8-0.8,1.8-1.8v-2
			c0-0.6-0.3-1.1-0.7-1.4c0.3-1.2,1.1-4.1,2.5-6.4c0.1-0.2,0.2-0.3,0.3-0.5l0.1-0.2c0.1-0.2,0.2-0.4,0.3-0.5c0.8-1.5,1.2-3.2,1.2-5
			C33.6,10.4,28.9,5.6,23.1,5.6z M22.9,35.8L22.9,35.8c-1,0-2-0.7-2.5-1.8h5C24.9,35.1,24,35.8,22.9,35.8z M28,31.8h-9.7v-1.6H28
			V31.8z M22,28.3h-2.9c-0.6-2.5-3.3-7.6-3.3-7.6c-0.9-1.4-1.4-3-1.4-4.6c0-4.7,3.8-8.6,8.6-8.6s8.6,3.8,8.6,8.6
			c0,1.4-0.3,2.8-1,4.1c0,0.2-0.4,0.8-0.6,1c-1.1,1.9-2.4,5.1-2.8,7.1H24"/>
		<path class="st0" d="M12,21.8l-2.2,1.6c-0.4,0.3-0.5,1-0.2,1.4c0.2,0.3,0.5,0.4,0.8,0.4c0.2,0,0.4-0.1,0.6-0.2l2.2-1.6
			c0.4-0.3,0.5-1,0.2-1.4C13.1,21.5,12.5,21.4,12,21.8z"/>
		<path class="st0" d="M11.6,16.4c0-0.6-0.4-1-1-1H7.8c-0.6,0-1,0.4-1,1s0.4,1,1,1h2.8C11.2,17.4,11.6,16.9,11.6,16.4z"/>
		<path class="st0" d="M9.2,10l2.4,1.4c0.2,0.1,0.3,0.1,0.5,0.1c0.3,0,0.7-0.2,0.9-0.5c0.3-0.5,0.1-1.1-0.3-1.4l-2.4-1.4
			C9.8,8,9.2,8.2,8.9,8.7C8.6,9.1,8.8,9.8,9.2,10z"/>
		<path class="st0" d="M14.4,4.3L14.4,4.3l1.6,2c0.2,0.3,0.5,0.4,0.8,0.4c0.2,0,0.4-0.1,0.6-0.2c0.2-0.2,0.3-0.4,0.4-0.7
			c0-0.3,0-0.5-0.2-0.7l-1.7-2.2c-0.3-0.4-1-0.5-1.4-0.2s-0.5,1-0.2,1.4L14.4,4.3z"/>
		<path class="st0" d="M23.1,5.2L23.1,5.2c0.6,0,1-0.5,1-1V1.8c0-0.5-0.5-1-1-1l0,0c-0.6,0-1,0.5-1,1v2.4
			C22.1,4.7,22.5,5.2,23.1,5.2z"/>
		<path class="st0" d="M34.4,21.1c-0.4-0.3-1.1-0.2-1.4,0.2c-0.3,0.4-0.2,1.1,0.2,1.4l1.9,1.4c0.2,0.1,0.4,0.2,0.6,0.2
			c0.3,0,0.6-0.1,0.8-0.4c0.3-0.4,0.2-1.1-0.2-1.4L34.4,21.1z"/>
		<path class="st0" d="M37.7,15.1h-2.6c-0.6,0-1,0.4-1,1s0.4,1,1,1h2.6c0.6,0,1-0.4,1-1S38.3,15.1,37.7,15.1z"/>
		<path class="st0" d="M33.7,11.3c0.2,0,0.4,0,0.5-0.1l2.3-1.4c0.5-0.3,0.6-0.9,0.3-1.4s-0.9-0.6-1.4-0.3l-2.3,1.4
			c-0.5,0.3-0.6,0.9-0.3,1.4C33,11.1,33.3,11.3,33.7,11.3z"/>
		<path class="st0" d="M29.1,6.4c0.3,0,0.6-0.1,0.8-0.4l1.4-1.8c0.3-0.4,0.3-1.1-0.2-1.4C30.7,2.5,30,2.5,29.7,3l-1.4,1.8
			C28,5.2,28,5.9,28.5,6.2C28.6,6.3,28.8,6.4,29.1,6.4z"/>
	</g>
</g>
<g id="icons">
</g>
<path class="st1" d="M23.2,24.4"/>
<path class="st1" d="M23,18.8"/>
</svg>
