<?xml version="1.0" encoding="utf-8"?>
<!-- Generator: Adobe Illustrator 24.0.0, SVG Export Plug-In . SVG Version: 6.00 Build 0)  -->
<svg version="1.1" id="icons" xmlns="http://www.w3.org/2000/svg" xmlns:xlink="http://www.w3.org/1999/xlink" x="0px" y="0px"
	 viewBox="0 0 46.6 47.1" style="enable-background:new 0 0 46.6 47.1;" xml:space="preserve">
<style type="text/css">
	.st0{fill:#FF4E00;}
</style>
<g>
	<path class="st0" d="M45.6,4.2c-4.4,0.1-17,1.6-21.9,6.7c-3.7,3.8-4.2,9.9-2.4,13.1c-0.8,1.3-1.5,2.6-2,4c-0.6-2.8-1.4-5.9-2.6-9.1
		c2.5-2.5,3-7.7,1.9-10c-1.6-3.5-4.6-5-7.8-6.5C9.6,1.8,8.3,1.2,7.2,0.5L6.3,0L5.8,0.9C3.6,4.5,3,8.6,4.3,12.1c0.9,2.4,3,5.5,8,7.2
		l0.6-1.9c-3.4-1.1-5.7-3.2-6.8-6C5.2,8.8,5.5,5.6,7,2.8c1,0.5,1.9,1,2.8,1.5c3,1.5,5.5,2.7,6.9,5.6c0.6,1.3,0.4,4.9-0.9,7
		c-1.4-3.4-3.1-6.9-5.4-10L8.8,8c5.6,7.9,8.2,18,9.2,24.9V33l0,0c0.4,2.5,0.5,4.6,0.6,5.9l-3.3,2.5h-3.9L7,43.6l-2,2.1l1.4,1.4
		l1.9-1.9l3.6-1.8H16l3.6-2.7l1.7,1.7h3.2l4,2h3.8l2.7,2.7l1.4-1.4l-3.3-3.3h-4.2l-4-2h-2.8L20.7,39c0-1.4-0.2-3.5-0.6-6.1
		c0.9-6.8,5.2-12.2,13-15.9l-0.9-1.8c-4.1,2-7.3,4.4-9.6,7.1c-1-2.6-0.3-7.1,2.4-9.9c3.7-3.8,13.5-5.7,19.5-6
		c-0.1,4.4-1.2,11.4-5.9,15.9c-3.5,3.3-8.5,4.7-14.9,4.2l-0.1,2c0.8,0.1,1.6,0.1,2.4,0.1c5.9,0,10.6-1.6,14.1-4.9
		c5.4-5.1,6.6-12.8,6.6-18.4v-1L45.6,4.2z"/>
	<path class="st0" d="M10.8,33.1c2.2,0,4.2-0.8,4.3-0.8l0.6-0.3v-0.7c0-0.2-0.2-4.9-3.5-6.8c-3-1.8-9.8-1.2-10.6-1.1L0,23.5l0.8,1.4
		c0.1,0.2,3.3,5.6,6.4,7.4C8.3,32.9,9.6,33.1,10.8,33.1z M3.4,25.3c2.4-0.1,6.1,0,7.7,1c1.7,1,2.3,3.3,2.4,4.4
		c-1.2,0.3-3.7,0.9-5.4-0.2C6.4,29.5,4.5,26.9,3.4,25.3z"/>
</g>
</svg>
