<?xml version="1.0" encoding="utf-8"?>
<!-- Generator: Adobe Illustrator 24.0.0, SVG Export Plug-In . SVG Version: 6.00 Build 0)  -->
<svg version="1.1" id="Layer_1" xmlns="http://www.w3.org/2000/svg" xmlns:xlink="http://www.w3.org/1999/xlink" x="0px" y="0px"
	 viewBox="0 0 48 28" style="enable-background:new 0 0 48 28;" xml:space="preserve">
<style type="text/css">
	.st0{fill:none;stroke:#FF4E00;stroke-width:1.9738;stroke-miterlimit:10;}
	.st1{fill:none;}
	.st2{fill:none;stroke:#FF4E00;stroke-width:2;stroke-linecap:round;stroke-miterlimit:10;}
	.st3{fill:#FF4E00;}
</style>
<g id="Layer_1_1_">
</g>
<g>
	<path class="st0" d="M1.2,5.7"/>
</g>
<path class="st1" d="M35.7,21.1l-9.6-11L25.6,7H1.2v11.3h11.7l7.3,7.4c0.7,0.7,1.7,0.7,2.4,0c0.7-0.7,0.7-1.7,0-2.4l2.5,2.5
	c0.7,0.7,1.7,0.7,2.4,0c0.7-0.7,0.7-1.7,0-2.4l2,2c0.7,0.7,1.7,0.7,2.4,0s0.8-1.8,0.1-2.4l1,1c0.7,0.7,2,0.3,2.7-0.4
	C36.3,22.9,36.3,21.8,35.7,21.1z"/>
<g>
	<path class="st2" d="M70.2,12.1"/>
</g>
<g>
	<path class="st2" d="M70,6.5"/>
</g>
<path class="st3" d="M46.7,6l-0.4,0c-5.4,0.1-7,0-7.4,0c-0.7-0.4-2.8-1.3-9.4-4.3c-0.1-0.1-0.3-0.1-0.4-0.1h-4.5
	c-0.4,0-0.5,0-6.1,4.4H1.2c-0.6,0-1,0.4-1,1v11.3c0,0.6,0.4,1,1,1h11.3l7,7.1c1.1,1.1,2.8,1.1,3.8,0c0.2-0.2,0.3-0.4,0.4-0.6
	l0.7,0.7c0.5,0.5,1.2,0.8,1.9,0.8s1.4-0.3,1.9-0.8c0.2-0.2,0.3-0.4,0.4-0.6l0.2,0.2c1.1,1.1,2.7,1.1,3.8,0c0.3-0.3,0.5-0.5,0.6-0.9
	c1.1,0.3,2.4-0.1,3.2-1c0.6-0.7,0.8-1.7,0.6-2.5l1.3-2.4h8.3c0.6,0,1-0.4,1-1V7C47.7,6.4,47.3,6,46.7,6z M35,22.9
	c-0.2,0.2-0.5,0.4-0.8,0.5c-0.1,0-0.3,0.1-0.4-0.1c0,0-5.4-6.2-5.7-6.5c-0.4-0.4-1-0.4-1.4,0c-0.4,0.4-0.4,1,0,1.4
	c0.2,0.2,2.6,3,4.5,5.1c0.5,0.5,0.4,0.7,0.4,0.8c0,0.2-0.1,0.5-0.3,0.6c-0.3,0.3-0.7,0.3-1,0l-1.6-1.6l-4.6-5.3
	c-0.4-0.4-1-0.5-1.4-0.1c-0.4,0.4-0.5,1-0.1,1.4l4.1,4.7c0,0.1,0.4,0.6,0.4,0.7c0,0.2-0.1,0.3-0.2,0.5c-0.3,0.3-0.8,0.3-1.1,0
	l-6-6.6c-0.4-0.4-1-0.4-1.4-0.1c-0.4,0.4-0.4,1-0.1,1.4c0,0,3.6,4.1,3.7,4.2c0.3,0.3,0.3,0.7,0,1c-0.3,0.3-0.7,0.3-1,0l-7.3-7.4
	c-0.2-0.2-0.4-0.3-0.7-0.3H2.2V8h13.7c-0.3,0.2-0.5,0.4-0.8,0.6c-0.3,0.2-0.4,0.6-0.4,1c0,0.2,0.4,2.1,2.1,3
	c1.2,0.6,2.6,0.5,4.2-0.3c2.2-1.1,3.3-1.5,3.8-1.6l7.4,8.1l2.7,3C35.2,22.1,35.2,22.6,35,22.9z M45.7,17.3h-7.9
	c-0.4,0-0.7,0.2-0.9,0.5l-1.1,2L26.5,9.5l-0.5-0.6c-0.1-0.1-0.2-0.2-0.3-0.2c-0.1-0.1-0.2-0.1-0.5-0.1c-0.6,0-1.7,0.3-5,1.9
	c-1,0.5-1.9,0.6-2.4,0.3c-0.4-0.2-0.7-0.7-0.9-1c2.9-2.2,7-5.4,8.1-6.2h4c3.4,1.6,8.4,3.9,9.1,4.2c0.3,0.3,1.1,0.3,7.7,0.2V17.3z"/>
</svg>
