<?xml version="1.0" encoding="UTF-8"?> <svg xmlns="http://www.w3.org/2000/svg" xmlns:xlink="http://www.w3.org/1999/xlink" width="334px" height="270px" viewBox="0 0 334 270" version="1.1"><title>C7718D2D-3192-4786-B32E-0B7E5FF816B3</title><g id="Page-1" stroke="none" stroke-width="1" fill="none" fill-rule="evenodd"><g id="Mobile-App-Development-Services_UPD" transform="translate(-245.000000, -1569.000000)"><g id="Scalable-Products" transform="translate(245.000000, 1569.000000)"><rect id="Rectangle" x="0" y="0" width="334" height="270"></rect><g id="Group-35" transform="translate(3.000000, 2.000000)"><circle id="Oval" fill="#FFD740" cx="76.4367816" cy="134.528736" r="76.4367816"></circle><circle id="Oval" fill="#FFFFFF" cx="226.252874" cy="134.019157" r="101.915709"></circle><circle id="Oval" fill="#00C8FF" cx="235.425287" cy="133.509579" r="91.7241379"></circle><path d="M246.718582,25.6319838 L255.504993,37.5815026 C256.159329,38.4714002 255.968369,39.7232491 255.078472,40.3775856 C254.735057,40.6300965 254.319948,40.7662835 253.893691,40.7662835 L236.320869,40.7662835 C235.216299,40.7662835 234.320869,39.870853 234.320869,38.7662835 C234.320869,38.3400259 234.457056,37.9249175 234.709567,37.5815026 L243.495978,25.6319838 C244.150314,24.7420862 245.402163,24.5511262 246.292061,25.2054627 C246.45498,25.325256 246.598788,25.4690649 246.718582,25.6319838 Z" id="Triangle" fill="#37474F" transform="translate(245.107280, 32.103448) rotate(134.000000) translate(-245.107280, -32.103448) "></path><path d="M247.737739,228.444244 L256.52415,240.393763 C257.178486,241.283661 256.987526,242.53551 256.097629,243.189846 C255.754214,243.442357 255.339105,243.578544 254.912848,243.578544 L237.340026,243.578544 C236.235456,243.578544 235.340026,242.683114 235.340026,241.578544 C235.340026,241.152286 235.476213,240.737178 235.728724,240.393763 L244.515135,228.444244 C245.169471,227.554347 246.42132,227.363387 247.311218,228.017723 C247.474137,228.137517 247.617945,228.281325 247.737739,228.444244 Z" id="Triangle" fill="#37474F" transform="translate(246.126437, 234.915709) rotate(43.000000) translate(-246.126437, -234.915709) "></path><g id="Group-44" transform="translate(51.977011, 81.532567)"><rect id="Rectangle" stroke="#37474F" stroke-width="3" fill="#FFFFFF" fill-rule="nonzero" x="0" y="0" width="48.9195402" height="105.251132" rx="9.3"></rect><rect id="Rectangle" fill="#FFD740" fill-rule="nonzero" x="2.99507389" y="3.0071752" width="42.9293924" height="99.2367816" rx="6.3"></rect><line x1="16.9720854" y1="99.7379775" x2="32.9458128" y2="99.7379775" id="Path-61" stroke="#37474F" stroke-width="3" stroke-linecap="round"></line></g><g id="Group-44" transform="translate(204.850575, 66.245211)"><rect id="Rectangle" stroke="#37474F" stroke-width="3" fill="#FFFFFF" fill-rule="nonzero" x="0" y="0.741205155" width="62.1685824" height="134.528736" rx="10.3"></rect><rect id="Rectangle" fill="#00C8FF" fill-rule="nonzero" x="4.07662835" y="4.81783351" width="55.0344828" height="126.375479" rx="6.3"></rect><line x1="21.4022989" y1="128.64542" x2="41.7854406" y2="128.64542" id="Path-61" stroke="#37474F" stroke-width="3" stroke-linecap="round"></line></g><polygon id="Star" fill="#FFFFFF" points="64.2068966 109.049808 61.211669 110.114914 61.2990686 106.937148 59.3605166 104.417653 62.40976 103.518791 64.2068966 100.896552 66.0040331 103.518791 69.0532765 104.417653 67.1147245 106.937148 67.2021241 110.114914"></polygon><polygon id="Star" fill="#FFFFFF" points="76.4367816 109.049808 73.4415541 110.114914 73.5289536 106.937148 71.5904017 104.417653 74.6396451 103.518791 76.4367816 100.896552 78.2339181 103.518791 81.2831616 104.417653 79.3446096 106.937148 79.4320091 110.114914"></polygon><polygon id="Star" fill="#FFFFFF" points="88.6666667 109.049808 85.6714391 110.114914 85.7588387 106.937148 83.8202867 104.417653 86.8695301 103.518791 88.6666667 100.896552 90.4638032 103.518791 93.5130466 104.417653 91.5744946 106.937148 91.6618942 110.114914"></polygon><g id="Group-47" transform="translate(208.927203, 91.724138)" fill="#FFD740"><polygon id="Star" points="15.7969349 7.33793103 13.1012301 8.29652622 13.1798897 5.43653642 11.4351929 3.16899103 14.179512 2.36001531 15.7969349 0 17.4143577 2.36001531 20.1586768 3.16899103 18.41398 5.43653642 18.4926396 8.29652622"></polygon><polygon id="Star" points="4.5862069 7.33793103 1.89050212 8.29652622 1.96916172 5.43653642 0.224464943 3.16899103 2.96878403 2.36001531 4.5862069 0 6.20362976 2.36001531 8.94794885 3.16899103 7.20325207 5.43653642 7.28191167 8.29652622"></polygon><polygon id="Star" points="27.0076628 7.33793103 24.3119581 8.29652622 24.3906177 5.43653642 22.6459209 3.16899103 25.39024 2.36001531 27.0076628 0 28.6250857 2.36001531 31.3694048 3.16899103 29.624708 5.43653642 29.7033676 8.29652622"></polygon><polygon id="Star" points="38.2183908 7.33793103 35.522686 8.29652622 35.6013456 5.43653642 33.8566489 3.16899103 36.6009679 2.36001531 38.2183908 0 39.8358137 2.36001531 42.5801328 3.16899103 40.835436 5.43653642 40.9140956 8.29652622"></polygon><polygon id="Star" points="49.4291188 7.33793103 46.733414 8.29652622 46.8120736 5.43653642 45.0673768 3.16899103 47.8116959 2.36001531 49.4291188 0 51.0465416 2.36001531 53.7908607 3.16899103 52.0461639 5.43653642 52.1248236 8.29652622"></polygon></g><g id="like" transform="translate(215.042146, 118.222222)" fill="#FFFFFF" fill-rule="nonzero"><path d="M35.1608941,8.1532567 L32.1034737,8.1532567 C31.2585357,8.1532567 30.5747126,8.83696668 30.5747126,9.68199234 C30.5747126,10.5269163 31.258434,11.210728 32.1034737,11.210728 L35.1608941,11.210728 C36.0058321,11.210728 36.6896552,10.527018 36.6896552,9.68199234 C36.6895535,8.83696668 36.0058321,8.1532567 35.1608941,8.1532567 Z" id="Path"></path><path d="M21.2585226,3.90211422 L19.9000319,0.844329684 C19.5617877,0.088810014 18.7484468,-0.214232008 18.0771107,0.160526907 C17.4057746,0.53823588 17.1337872,1.45651729 17.4695005,2.21203696 L18.8280816,5.2698215 C19.1632525,6.02228939 19.975147,6.33143498 20.6510027,5.95362428 C21.322158,5.57591531 21.5941454,4.65763389 21.2585226,3.90211422 Z" id="Path"></path><path d="M29.8233343,0.160509342 C29.1546248,-0.214251216 28.3361381,0.0888938607 28.0004276,0.844315115 L26.6418572,3.90211305 C26.306237,4.65763603 26.5782222,5.57581974 27.2494627,5.95363209 C27.9273016,6.33246171 28.7381954,6.01975434 29.0723694,5.26982632 L30.4309397,2.21202839 C30.7665599,1.45650541 30.4945747,0.538219969 29.8233343,0.160509342 Z" id="Path"></path><path d="M15.7969094,8.1532567 L12.739489,8.1532567 C11.894551,8.1532567 11.210728,8.83696668 11.210728,9.68199234 C11.210728,10.5269163 11.8944493,11.210728 12.739489,11.210728 L15.7969094,11.210728 C16.6418474,11.210728 17.3256705,10.527018 17.3256705,9.68199234 C17.3256705,8.83696668 16.6418474,8.1532567 15.7969094,8.1532567 Z" id="Path"></path><path d="M6.79444086,21.4022989 L1.35890626,21.4022989 C0.608478982,21.4022989 0,22.0360416 0,22.8178367 L0,45.4656882 C0,46.2473891 0.608388569,46.8812261 1.35890626,46.8812261 L6.79435045,46.8812261 C7.54477772,46.8812261 8.1532567,46.2474833 8.1532567,45.4656882 L8.1532567,22.8177425 C8.1532567,22.0360416 7.54495855,21.4022989 6.79444086,21.4022989 Z" id="Path"></path><path d="M41.7577909,25.6510555 C41.5126569,23.5054272 39.4987853,21.9846678 37.3290118,21.9846678 L26.4940148,21.9846678 C27.4148162,20.34372 27.9090604,15.7024816 27.8871453,13.8065248 C27.8508052,10.6681926 25.2394022,8.1532567 22.0859488,8.1532567 L20.9391544,8.1532567 C20.1710185,8.1532567 19.5493528,8.77186761 19.5493528,9.53643462 C19.5493528,12.734861 18.2979765,18.5079493 15.9379028,20.856867 C14.3493864,22.4378127 12.991394,23.0106858 11.210728,23.8963614 L11.210728,44.650288 C13.9369769,45.5546452 17.3984429,46.8812261 22.6744183,46.8812261 L31.7655518,46.8812261 C34.761069,46.8812261 37.0940494,44.1201158 35.9332922,41.2028344 C37.7017524,40.7233695 39.0059282,39.1092018 39.0059282,37.1992567 C39.0059282,36.6602499 38.9014388,36.144342 38.712803,35.6702147 C41.6929704,34.8621186 42.7899243,31.1998721 40.7214963,28.9003733 C41.4814025,28.055466 41.9004698,26.8997808 41.7577909,25.6510555 Z" id="Path"></path></g><path d="M67.2643678,33.2003377 C122.978289,-8.92482196 180.051086,-10.9631361 238.482759,27.0853952" id="Path-63" stroke="#37474F" stroke-width="3" stroke-linecap="round"></path><path d="M72.3601533,265.568154 C128.074074,223.442994 185.146871,221.40468 243.578544,259.453211" id="Path-63" stroke="#37474F" stroke-width="3" stroke-linecap="round" transform="translate(157.969349, 248.967985) scale(1, -1) translate(-157.969349, -248.967985) "></path></g><g id="Group-46" transform="translate(62.555556, 103.655172)"></g></g></g></g></svg> 