<?xml version="1.0" encoding="UTF-8"?> <svg xmlns="http://www.w3.org/2000/svg" xmlns:xlink="http://www.w3.org/1999/xlink" width="238px" height="276px" viewBox="0 0 238 276" version="1.1"><title>C446F18C-F0B5-4561-8CDD-2768B89105AE</title><g id="Page-1" stroke="none" stroke-width="1" fill="none" fill-rule="evenodd"><g id="Web-developent-services_new" transform="translate(-277.000000, -1526.000000)"><g id="Scalability" transform="translate(277.000000, 1526.000000)"><g id="Group-45" transform="translate(80.859375, 0.000000)"><path d="M49.59375,24.796875 L64.6875,38.8125 C61.3701658,32.6403373 56.0528415,27.6857796 49.59375,24.796875" id="Fill-1" fill="#B8DAE8"></path><path d="M128.318637,35.6064753 L128.318637,45.5010752 C128.318637,20.9669716 108.435391,1.078125 83.9081964,1.078125 C67.8889175,1.078125 53.8507017,9.56197426 46.0390226,22.2830031 L48.7644894,24.836042 C55.5973139,27.9190706 61.2224892,33.2065567 64.731587,39.793649 L48.7644894,24.836042 C44.5286856,22.9248672 39.8292714,21.8601429 34.8806279,21.8601429 C16.2119647,21.8601429 1.078125,36.9984281 1.078125,55.6723502 C1.078125,74.3460897 16.2119647,89.484375 34.8806279,89.484375 L44.3945834,89.484375 L107.887305,89.484375 L128.318637,89.484375 C143.1923,89.484375 155.25,77.4234607 155.25,62.5454252 C155.25,47.6673896 143.1923,35.6064753 128.318637,35.6064753" id="Fill-3" fill="#40C4FF"></path><path d="M128.337382,91.640625 L108.258466,91.640625 C107.41663,91.640625 106.734375,90.9440649 106.734375,90.0849862 C106.734375,89.2259076 107.41663,88.5293475 108.258466,88.5293475 L128.337382,88.5293475 C142.090782,88.5293475 153.279942,77.1085797 153.279942,63.0703125 C153.279942,49.0320453 142.090782,37.6112775 128.337382,37.6112775 C127.495725,37.6112775 126.813291,36.9147174 126.813291,36.0556388 C126.813291,35.1965601 127.495725,34.5 128.337382,34.5 C143.771585,34.5 156.328125,47.3166333 156.328125,63.0703125 C156.328125,78.8239917 143.771585,91.640625 128.337382,91.640625" id="Fill-51" fill="#37474F"></path><path d="M44.9266759,91.640625 L35.4001298,91.640625 C15.8804389,91.640625 0,75.9222009 0,56.6016529 C0,37.281105 15.8804389,21.5625 35.4001298,21.5625 C48.5113026,21.5625 60.4899591,28.6832044 66.6609759,40.1456252 C67.0643629,40.8948019 66.777717,41.8257122 66.0208183,42.2249837 C65.263737,42.6242553 64.3234142,42.3401721 63.9202099,41.5913571 C58.2897828,31.1332634 47.3614305,24.6366016 35.4001298,24.6366016 C17.5930066,24.6366016 3.10578737,38.97602 3.10578737,56.6016529 C3.10578737,74.227105 17.5930066,88.5665234 35.4001298,88.5665234 L44.9266759,88.5665234 C45.7842386,88.5665234 46.4795696,89.2547605 46.4795696,90.1035742 C46.4795696,90.9523879 45.7842386,91.640625 44.9266759,91.640625" id="Fill-53" fill="#37474F"></path><path d="M128.906095,47.4375 C128.051771,47.4375 127.359066,46.7441786 127.359066,45.8890944 C127.359066,22.2933971 108.179539,3.09681117 84.6048093,3.09681117 C69.6259225,3.09681117 55.9967736,10.7331832 48.1467813,23.5242885 C47.6994168,24.2531321 46.7469926,24.481021 46.0187966,24.0332585 C45.2907827,23.5856782 45.0630963,22.6322247 45.5102789,21.9035632 C49.539472,15.3385057 55.1994164,9.84785952 61.8785802,6.02548371 C68.7663201,2.08360742 76.6248665,0 84.6048093,0 C96.8512777,0 108.364818,4.77327901 117.024544,13.440707 C125.684088,22.1079528 130.453125,33.6317336 130.453125,45.8890944 C130.453125,46.7441786 129.76042,47.4375 128.906095,47.4375" id="Fill-55" fill="#37474F"></path></g><g id="Group-41" transform="translate(6.468750, 123.984375)"><path d="M12.0424647,123.407722 C9.82852727,123.407722 8.03375273,125.202496 8.03375273,127.416433 C8.03375273,129.630371 9.82852727,131.425145 12.0424647,131.425145 C14.2564021,131.425145 16.0511767,129.630371 16.0511767,127.416433 C16.0511767,125.202496 14.2564021,123.407722 12.0424647,123.407722" id="Fill-3" fill="#FC6E50"></path><path d="M12.0424647,78.0041988 C9.82852727,78.0041988 8.03375273,79.7989733 8.03375273,82.0129108 C8.03375273,84.2268482 9.82852727,86.0216227 12.0424647,86.0216227 C14.2564021,86.0216227 16.0511767,84.2268482 16.0511767,82.0129108 C16.0511767,79.7989733 14.2564021,78.0041988 12.0424647,78.0041988" id="Fill-5" fill="#FC6E50"></path><path d="M12.0424647,30.7550044 C9.82852727,30.7550044 8.03375273,32.5497789 8.03375273,34.7637164 C8.03375273,36.9776538 9.82852727,38.7724283 12.0424647,38.7724283 C14.2564021,38.7724283 16.0511767,36.9776538 16.0511767,34.7637164 C16.0511767,32.5497789 14.2564021,30.7550044 12.0424647,30.7550044" id="Fill-7" fill="#FC6E50"></path><path d="M78.1696231,39.7796526 C78.1696231,49.7867541 59.1627661,55.0227291 40.3876386,55.0227291 C21.6125111,55.0227291 2.6056541,49.7867541 2.6056541,39.7796526 L2.6056541,18.9267766 C4.51646711,20.8702471 7.8760238,22.8048584 13.2059761,24.4156738 C20.4135628,26.5940006 30.1564509,27.7936438 40.5198321,27.7936438 C56.3040161,27.7936438 72.0897635,25.0120211 78.1696231,18.937894 L78.1696231,39.7796526 Z M79.6027328,11.8991537 C78.8830512,11.8991537 78.4300148,12.4824728 78.4300148,13.2019808 C78.4300148,17.8204158 71.3535794,20.6473768 67.1378047,21.9215417 C60.1680274,24.0279524 50.7506724,25.1879897 40.6355231,25.1879897 C30.5205476,25.1879897 21.0950282,24.0279524 14.1252509,21.9215417 C9.90947626,20.6473768 2.80403123,17.8204158 2.80403123,13.2019808 C2.80403123,12.4824728 2.15452852,11.8991537 1.43502057,11.8991537 C0.715512616,11.8991537 -1.98829717e-13,12.4824728 -1.98829717e-13,13.2019808 L-1.98829717e-13,39.7796526 C-1.98829717e-13,45.4811712 4.64761837,50.1939309 13.1901685,53.4084396 C20.4220746,56.1297847 30.2599822,57.6283832 40.6521993,57.6283832 C51.0442427,57.6283832 60.6177633,56.1297847 67.8496694,53.4084396 C76.3922195,50.1939309 80.7752772,45.4811712 80.7752772,39.7796526 L80.7752772,13.2019808 C80.7752772,12.4824728 80.3222408,11.8991537 79.6027328,11.8991537 L79.6027328,11.8991537 Z" id="Fill-11" fill="#37474F"></path><path d="M77.0452138,6.82542407 C74.8686241,5.32630441 71.7673746,4.03112061 67.8274519,2.97565698 C60.6634665,1.0568533 51.0433916,1.70210288e-13 40.7390718,1.70210288e-13 C30.4347521,1.70210288e-13 20.8145035,1.0568533 13.6505181,2.97565698 C9.71076908,4.03112061 6.60934586,5.32630441 4.43275613,6.82542407 C1.83995659,8.61133939 0.525143528,10.6982946 0.525143528,13.0282705 C0.525143528,13.7477785 1.10846263,14.3310976 1.82797058,14.3310976 C2.54747853,14.3310976 3.13079763,13.7477785 3.13079763,13.0282705 C3.13079763,10.1024684 7.10615724,7.42611419 14.3246877,5.49271885 C21.2750094,3.63089214 30.6558853,2.6056541 40.7390718,2.6056541 C50.8222584,2.6056541 60.2029606,3.63089214 67.1532823,5.49271885 C74.3718127,7.42611419 78.347346,10.1024684 78.347346,13.0282705 C78.347346,13.7477785 78.9306651,14.3310976 79.6501731,14.3310976 C80.3696811,14.3310976 80.9530001,13.7477785 80.9530001,13.0282705 C80.9530001,10.6982946 79.6381871,8.61133939 77.0452138,6.82542407" id="Fill-13" fill="#37474F"></path><path d="M78.1696231,87.028847 C78.1696231,97.0359484 59.1627661,102.271924 40.3876386,102.271924 C21.6125111,102.271924 2.6056541,97.0359484 2.6056541,87.028847 L2.6056541,66.1759709 C4.51646711,68.1194415 7.8760238,70.0540528 13.2059761,71.6648682 C20.4135628,73.843195 30.1564509,75.0428381 40.5198321,75.0428381 C56.3040161,75.0428381 72.0897635,72.2612155 78.1696231,66.1870884 L78.1696231,87.028847 Z M79.6027328,59.1483481 C78.8830512,59.1483481 78.4300148,59.7316672 78.4300148,60.4511752 C78.4300148,65.0696102 71.3535794,67.8965712 67.1378047,69.1707361 C60.1680274,71.2771468 50.7506724,72.437184 40.6355231,72.437184 C30.5205476,72.437184 21.0950282,71.2771468 14.1252509,69.1707361 C9.90947626,67.8965712 2.80403123,65.0696102 2.80403123,60.4511752 C2.80403123,59.7316672 2.15452852,59.1483481 1.43502057,59.1483481 C0.715512616,59.1483481 -1.98829717e-13,59.7316672 -1.98829717e-13,60.4511752 L-1.98829717e-13,87.028847 C-1.98829717e-13,92.7303656 4.64761837,97.4431253 13.1901685,100.657634 C20.4220746,103.378979 30.2599822,104.877578 40.6521993,104.877578 C51.0442427,104.877578 60.6177633,103.378979 67.8496694,100.657634 C76.3922195,97.4431253 80.7752772,92.7303656 80.7752772,87.028847 L80.7752772,60.4511752 C80.7752772,59.7316672 80.3222408,59.1483481 79.6027328,59.1483481 L79.6027328,59.1483481 Z" id="Fill-15" fill="#37474F"></path><path d="M69.102798,50.6312813 C68.4129945,50.4263032 67.6877541,50.8192358 67.482776,51.5088656 C67.2776241,52.1984954 67.6705568,52.9239095 68.3603603,53.1288876 C74.8093542,55.0461279 78.3608607,57.6279837 78.3608607,60.3986626 C78.3608607,61.1181705 78.9441798,61.7014896 79.6636878,61.7014896 C80.3833694,61.7014896 80.9665148,61.1181705 80.9665148,60.3986626 C80.9665148,56.2579308 76.9750001,52.9716798 69.102798,50.6312813" id="Fill-17" fill="#37474F"></path><path d="M12.3154851,50.6144835 C4.40558784,52.9555769 0.394965049,56.2475603 0.394965049,60.3987147 C0.394965049,61.1182226 0.978284147,61.7015417 1.6977921,61.7015417 C2.41747376,61.7015417 3.00061915,61.1182226 3.00061915,60.3987147 C3.00061915,57.619524 6.57140753,55.0319358 13.0549698,53.1129584 C13.744947,52.9088488 14.1387482,52.1839558 13.9344649,51.4939786 C13.7303553,50.8041751 13.0058098,50.4102002 12.3154851,50.6144835" id="Fill-19" fill="#37474F"></path><path d="M78.1696231,132.367228 C78.1696231,142.37433 59.1627661,147.610305 40.3876386,147.610305 C21.6125111,147.610305 2.6056541,142.37433 2.6056541,132.367228 L2.6056541,111.514526 C4.51646711,113.457823 7.8760238,115.392434 13.2059761,117.00325 C20.4135628,119.181576 30.1564509,120.38122 40.5198321,120.38122 C56.3040161,120.38122 72.0897635,117.599597 78.1696231,111.52547 L78.1696231,132.367228 Z M79.6027328,104.486729 C78.8830512,104.486729 78.4300148,105.070049 78.4300148,105.789557 C78.4300148,110.407992 71.3535794,113.234953 67.1378047,114.509117 C60.1680274,116.615528 50.7506724,117.775565 40.6355231,117.775565 C30.5205476,117.775565 21.0950282,116.615528 14.1252509,114.509117 C9.90947626,113.234953 2.80403123,110.407992 2.80403123,105.789557 C2.80403123,105.070049 2.15452852,104.486729 1.43502057,104.486729 C0.715512616,104.486729 -1.98829717e-13,105.070049 -1.98829717e-13,105.789557 L-1.98829717e-13,132.367228 C-1.98829717e-13,138.068747 4.64761837,142.781507 13.1901685,145.996015 C20.4220746,148.71736 30.2599822,150.215959 40.6521993,150.215959 C51.0442427,150.215959 60.6177633,148.71736 67.8496694,145.996015 C76.3922195,142.781507 80.7752772,138.068747 80.7752772,132.367228 L80.7752772,105.789557 C80.7752772,105.070049 80.3222408,104.486729 79.6027328,104.486729 L79.6027328,104.486729 Z" id="Fill-21" fill="#37474F"></path><path d="M71.7942128,96.8122617 C71.1200433,96.5615978 70.3697886,96.905023 70.1191247,97.5793663 C69.8684607,98.2538833 70.211886,99.0037905 70.8862292,99.2546282 C74.2961619,100.522192 78.3609823,102.666993 78.3609823,105.685382 C78.3609823,106.40489 78.9443014,106.98821 79.6638094,106.98821 C80.3833173,106.98821 80.9666364,106.40489 80.9666364,105.685382 C80.9666364,102.060223 77.8806734,99.074838 71.7942128,96.8122617" id="Fill-23" fill="#37474F"></path><path d="M9.52628877,96.8275309 C3.46727443,99.0883701 0.395034533,102.068544 0.395034533,105.685365 C0.395034533,106.404873 0.978353631,106.988192 1.69786158,106.988192 C2.41736954,106.988192 3.00068864,106.404873 3.00068864,105.685365 C3.00068864,102.675314 7.0446638,100.534682 10.4372254,99.268855 C11.111395,99.0171489 11.4539517,98.2668942 11.2024192,97.5927246 C10.9508867,96.9183813 10.2006321,96.5759984 9.52628877,96.8275309" id="Fill-25" fill="#37474F"></path><path d="M12.0424647,37.6816494 C10.3979496,37.6816494 9.05985931,36.3435592 9.05985931,34.699044 C9.05985931,33.0543552 10.3979496,31.7164386 12.0424647,31.7164386 C13.6869799,31.7164386 15.0250701,33.0543552 15.0250701,34.699044 C15.0250701,36.3435592 13.6869799,37.6816494 12.0424647,37.6816494 M12.0424647,29.1107845 C8.96101817,29.1107845 6.45420521,31.6175975 6.45420521,34.699044 C6.45420521,37.7803169 8.96101817,40.2873035 12.0424647,40.2873035 C15.1239113,40.2873035 17.6307242,37.7803169 17.6307242,34.699044 C17.6307242,31.6175975 15.1239113,29.1107845 12.0424647,29.1107845" id="Fill-27" fill="#37474F"></path><path d="M12.0424647,84.985632 C10.3979496,84.985632 9.05985931,83.6475418 9.05985931,82.0030266 C9.05985931,80.3585115 10.3979496,79.0204212 12.0424647,79.0204212 C13.6869799,79.0204212 15.0250701,80.3585115 15.0250701,82.0030266 C15.0250701,83.6475418 13.6869799,84.985632 12.0424647,84.985632 M12.0424647,76.4147671 C8.96101817,76.4147671 6.45420521,78.9215801 6.45420521,82.0030266 C6.45420521,85.0844732 8.96101817,87.5912861 12.0424647,87.5912861 C15.1239113,87.5912861 17.6307242,85.0844732 17.6307242,82.0030266 C17.6307242,78.9215801 15.1239113,76.4147671 12.0424647,76.4147671" id="Fill-29" fill="#37474F"></path><path d="M12.0424647,130.272439 C10.3979496,130.272439 9.05985931,128.934349 9.05985931,127.289833 C9.05985931,125.645145 10.3979496,124.307228 12.0424647,124.307228 C13.6869799,124.307228 15.0250701,125.645145 15.0250701,127.289833 C15.0250701,128.934349 13.6869799,130.272439 12.0424647,130.272439 M12.0424647,121.701574 C8.96101817,121.701574 6.45420521,124.208387 6.45420521,127.289833 C6.45420521,130.371106 8.96101817,132.878093 12.0424647,132.878093 C15.1239113,132.878093 17.6307242,130.371106 17.6307242,127.289833 C17.6307242,124.208387 15.1239113,121.701574 12.0424647,121.701574" id="Fill-31" fill="#37474F"></path></g><path d="M55.5101663,122.442379 L55.5101663,151.548792 C56.9426106,156.57953 60.8818325,160.172915 67.3278319,162.328945 C76.996831,165.562991 59.8074993,156.938869 54.4358331,173.109098 C50.8547223,183.889252 50.8547223,195.028743 54.4358331,206.527573 C60.1656103,212.995665 62.6723879,216.229711 61.9561657,216.229711 C60.8818325,216.229711 54.4358331,217.307726 54.4358331,225.931849 C54.4358331,231.681264 54.4358331,241.74274 54.4358331,256.116277 C57.3007217,265.459077 67.685943,270.849153 85.5914969,272.286507 C103.497051,273.723861 118.895827,271.927169 131.787826,266.896431 C136.085159,265.459077 139.308159,261.506354 141.456825,255.038262 C143.605492,248.57017 143.963603,203.293527 142.531158,119.208333 C143.247381,111.302887 133.22027,106.631487 112.449828,105.194134 C91.6793853,103.75678 75.2062756,104.834795 63.030499,108.42818 C57.3007217,112.021564 54.4358331,114.896272 54.4358331,117.052302 C54.4358331,119.208333 54.7939442,121.005025 55.5101663,122.442379 Z" id="Path-10" fill="#FFFFFF"></path><g id="Group-41" transform="translate(51.750000, 103.500000)"><path d="M13.7628168,141.037396 C11.2326026,141.037396 9.18143169,143.088567 9.18143169,145.618781 C9.18143169,148.148995 11.2326026,150.200166 13.7628168,150.200166 C16.293031,150.200166 18.3442019,148.148995 18.3442019,145.618781 C18.3442019,143.088567 16.293031,141.037396 13.7628168,141.037396" id="Fill-3" fill="#FC6E50"></path><path d="M13.7628168,89.1476557 C11.2326026,89.1476557 9.18143169,91.1988267 9.18143169,93.7290409 C9.18143169,96.2592551 11.2326026,98.310426 13.7628168,98.310426 C16.293031,98.310426 18.3442019,96.2592551 18.3442019,93.7290409 C18.3442019,91.1988267 16.293031,89.1476557 13.7628168,89.1476557" id="Fill-5" fill="#FC6E50"></path><path d="M13.7628168,35.1485764 C11.2326026,35.1485764 9.18143169,37.1997474 9.18143169,39.7299616 C9.18143169,42.2601758 11.2326026,44.3113467 13.7628168,44.3113467 C16.293031,44.3113467 18.3442019,42.2601758 18.3442019,39.7299616 C18.3442019,37.1997474 16.293031,35.1485764 13.7628168,35.1485764" id="Fill-7" fill="#FC6E50"></path><g id="Group-30" transform="translate(25.376235, 143.087513)"><path d="M6.38658228,1.94988293 C3.85636807,1.94988293 1.80519716,4.00105384 1.80519716,6.53126805 C1.80519716,9.06148226 3.85636807,11.1126532 6.38658228,11.1126532 C8.9167965,11.1126532 10.9679674,9.06148226 10.9679674,6.53126805 C10.9679674,4.00105384 8.9167965,1.94988293 6.38658228,1.94988293" id="Fill-3" fill="#FC6E50"></path><path d="M6.38658228,9.79527416 C4.50713639,9.79527416 2.9778904,8.26602818 2.9778904,6.38658228 C2.9778904,4.50693786 4.50713639,2.9778904 6.38658228,2.9778904 C8.26602818,2.9778904 9.79527416,4.50693786 9.79527416,6.38658228 C9.79527416,8.26602818 8.26602818,9.79527416 6.38658228,9.79527416 M6.38658228,2.12274642e-13 C2.86492909,2.12274642e-13 -4.4408921e-15,2.86492909 -4.4408921e-15,6.38658228 C-4.4408921e-15,9.90803695 2.86492909,12.7731646 6.38658228,12.7731646 C9.90823547,12.7731646 12.7731646,9.90803695 12.7731646,6.38658228 C12.7731646,2.86492909 9.90823547,2.12274642e-13 6.38658228,2.12274642e-13" id="Fill-31" fill="#37474F"></path></g><g id="Group-20" transform="translate(25.376235, 91.331162)"><path d="M6.38658228,1.81649329 C3.85636807,1.81649329 1.80519716,3.8676642 1.80519716,6.39787841 C1.80519716,8.92809263 3.85636807,10.9792635 6.38658228,10.9792635 C8.9167965,10.9792635 10.9679674,8.92809263 10.9679674,6.39787841 C10.9679674,3.8676642 8.9167965,1.81649329 6.38658228,1.81649329" id="Fill-5" fill="#FC6E50"></path><path d="M6.38658228,9.79527416 C4.50713639,9.79527416 2.9778904,8.26602818 2.9778904,6.38658228 C2.9778904,4.50713639 4.50713639,2.9778904 6.38658228,2.9778904 C8.26602818,2.9778904 9.79527416,4.50713639 9.79527416,6.38658228 C9.79527416,8.26602818 8.26602818,9.79527416 6.38658228,9.79527416 M6.38658228,2.22932783e-13 C2.86492909,2.22932783e-13 -4.4408921e-15,2.86492909 -4.4408921e-15,6.38658228 C-4.4408921e-15,9.90823547 2.86492909,12.7731646 6.38658228,12.7731646 C9.90823547,12.7731646 12.7731646,9.90823547 12.7731646,6.38658228 C12.7731646,2.86492909 9.90823547,2.22932783e-13 6.38658228,2.22932783e-13" id="Fill-29" fill="#37474F"></path></g><g id="Group-15" transform="translate(25.376235, 37.269468)"><path d="M6.38658228,1.8791084 C3.85636807,1.8791084 1.80519716,3.93027931 1.80519716,6.46049352 C1.80519716,8.99070774 3.85636807,11.0418786 6.38658228,11.0418786 C8.9167965,11.0418786 10.9679674,8.99070774 10.9679674,6.46049352 C10.9679674,3.93027931 8.9167965,1.8791084 6.38658228,1.8791084" id="Fill-7" fill="#FC6E50"></path><path d="M6.38658228,9.79527416 C4.50713639,9.79527416 2.9778904,8.26602818 2.9778904,6.38658228 C2.9778904,4.50693786 4.50713639,2.9778904 6.38658228,2.9778904 C8.26602818,2.9778904 9.79527416,4.50693786 9.79527416,6.38658228 C9.79527416,8.26602818 8.26602818,9.79527416 6.38658228,9.79527416 M6.38658228,2.17603713e-13 C2.86492909,2.17603713e-13 -4.4408921e-15,2.86492909 -4.4408921e-15,6.38658228 C-4.4408921e-15,9.90803695 2.86492909,12.7731646 6.38658228,12.7731646 C9.90823547,12.7731646 12.7731646,9.90803695 12.7731646,6.38658228 C12.7731646,2.86492909 9.90823547,2.17603713e-13 6.38658228,2.17603713e-13" id="Fill-27" fill="#37474F"></path></g><path d="M89.3367121,45.4624601 C89.3367121,56.8991475 67.6145898,62.883119 46.1573012,62.883119 C24.7000127,62.883119 2.9778904,56.8991475 2.9778904,45.4624601 L2.9778904,21.6306018 C5.1616767,23.851711 9.00117006,26.0626953 15.0925441,27.9036272 C23.329786,30.3931436 34.4645153,31.7641643 46.3083795,31.7641643 C64.347447,31.7641643 82.3883011,28.585167 89.3367121,21.6433074 L89.3367121,45.4624601 Z M90.9745518,13.5990328 C90.1520585,13.5990328 89.6343026,14.2656832 89.6343026,15.087978 C89.6343026,20.3661895 81.5469478,23.5970021 76.7289197,25.0531905 C68.7634599,27.4605171 58.0007684,28.7862739 46.4405979,28.7862739 C34.8806259,28.7862739 24.1086036,27.4605171 16.1431439,25.0531905 C11.3251157,23.5970021 3.20460713,20.3661895 3.20460713,15.087978 C3.20460713,14.2656832 2.46231831,13.5990328 1.64002351,13.5990328 C0.817728705,13.5990328 -2.27233962e-13,14.2656832 -2.27233962e-13,15.087978 L-2.27233962e-13,45.4624601 C-2.27233962e-13,51.9784814 5.31156385,57.3644925 15.0744783,61.0382166 C23.3395138,64.1483254 34.5828368,65.8610094 46.4596564,65.8610094 C58.3362774,65.8610094 69.2774438,64.1483254 77.5424793,61.0382166 C87.3053938,57.3644925 92.3146025,51.9784814 92.3146025,45.4624601 L92.3146025,15.087978 C92.3146025,14.2656832 91.7968466,13.5990328 90.9745518,13.5990328 L90.9745518,13.5990328 Z" id="Fill-11" fill="#37474F"></path><path d="M88.051673,7.80048465 C85.5641418,6.08720503 82.0198567,4.60699498 77.5170879,3.40075084 C69.329676,1.20783235 58.3353046,1.94526043e-13 46.5589392,1.94526043e-13 C34.7825739,1.94526043e-13 23.788004,1.20783235 15.6005921,3.40075084 C11.0980218,4.60699498 7.55353812,6.08720503 5.06600701,7.80048465 C2.10280753,9.84153073 0.600164032,12.2266224 0.600164032,14.889452 C0.600164032,15.7117468 1.26681443,16.3783972 2.08910923,16.3783972 C2.91140404,16.3783972 3.57805443,15.7117468 3.57805443,14.889452 C3.57805443,11.5456781 8.12132256,8.48698765 16.3710716,6.27739297 C24.3142965,4.14959101 35.0352975,2.9778904 46.5589392,2.9778904 C58.082581,2.9778904 68.8033835,4.14959101 76.7466084,6.27739297 C84.9963574,8.48698765 89.5398241,11.5456781 89.5398241,14.889452 C89.5398241,15.7117468 90.2064745,16.3783972 91.0287693,16.3783972 C91.8510641,16.3783972 92.5177145,15.7117468 92.5177145,14.889452 C92.5177145,12.2266224 91.015071,9.84153073 88.051673,7.80048465" id="Fill-13" fill="#37474F"></path><path d="M89.3367121,99.4615394 C89.3367121,110.898227 67.6145898,116.882198 46.1573012,116.882198 C24.7000127,116.882198 2.9778904,110.898227 2.9778904,99.4615394 L2.9778904,75.6296811 C5.1616767,77.8507903 9.00117006,80.0617746 15.0925441,81.9027065 C23.329786,84.3922229 34.4645153,85.7632436 46.3083795,85.7632436 C64.347447,85.7632436 82.3883011,82.5842463 89.3367121,75.6423867 L89.3367121,99.4615394 Z M90.9745518,67.5981121 C90.1520585,67.5981121 89.6343026,68.2647625 89.6343026,69.0870573 C89.6343026,74.3652688 81.5469478,77.5960814 76.7289197,79.0522698 C68.7634599,81.4595964 58.0007684,82.7853532 46.4405979,82.7853532 C34.8806259,82.7853532 24.1086036,81.4595964 16.1431439,79.0522698 C11.3251157,77.5960814 3.20460713,74.3652688 3.20460713,69.0870573 C3.20460713,68.2647625 2.46231831,67.5981121 1.64002351,67.5981121 C0.817728705,67.5981121 -2.27233962e-13,68.2647625 -2.27233962e-13,69.0870573 L-2.27233962e-13,99.4615394 C-2.27233962e-13,105.977561 5.31156385,111.363572 15.0744783,115.037296 C23.3395138,118.147405 34.5828368,119.860089 46.4596564,119.860089 C58.3362774,119.860089 69.2774438,118.147405 77.5424793,115.037296 C87.3053938,111.363572 92.3146025,105.977561 92.3146025,99.4615394 L92.3146025,69.0870573 C92.3146025,68.2647625 91.7968466,67.5981121 90.9745518,67.5981121 L90.9745518,67.5981121 Z" id="Fill-15" fill="#37474F"></path><path d="M78.9746263,57.8643215 C78.1862794,57.6300608 77.3574332,58.0791266 77.1231725,58.867275 C76.8887133,59.6554233 77.3377792,60.484468 78.126126,60.7187287 C85.4964048,62.9098605 89.5552694,65.8605528 89.5552694,69.0270429 C89.5552694,69.8493377 90.2219198,70.5159881 91.0442146,70.5159881 C91.8667079,70.5159881 92.5331598,69.8493377 92.5331598,69.0270429 C92.5331598,64.294778 87.9714287,60.5390626 78.9746263,57.8643215" id="Fill-17" fill="#37474F"></path><path d="M14.0748402,57.845124 C5.03495753,60.5206593 0.451388627,64.282926 0.451388627,69.0271025 C0.451388627,69.8493973 1.11803903,70.5160477 1.94033383,70.5160477 C2.76282716,70.5160477 3.42927903,69.8493973 3.42927903,69.0271025 C3.42927903,65.8508846 7.51018004,62.8936409 14.9199655,60.7005239 C15.7085108,60.4672558 16.1585693,59.6388067 15.9251027,58.8502613 C15.6918347,58.0619144 14.8637826,57.6116574 14.0748402,57.845124" id="Fill-19" fill="#37474F"></path><path d="M89.3367121,151.276832 C89.3367121,162.71352 67.6145898,168.697491 46.1573012,168.697491 C24.7000127,168.697491 2.9778904,162.71352 2.9778904,151.276832 L2.9778904,127.445173 C5.1616767,129.666083 9.00117006,131.877068 15.0925441,133.717999 C23.329786,136.207516 34.4645153,137.578537 46.3083795,137.578537 C64.347447,137.578537 82.3883011,134.399539 89.3367121,127.45768 L89.3367121,151.276832 Z M90.9745518,119.413405 C90.1520585,119.413405 89.6343026,120.080056 89.6343026,120.90235 C89.6343026,126.180562 81.5469478,129.411374 76.7289197,130.867563 C68.7634599,133.274889 58.0007684,134.600646 46.4405979,134.600646 C34.8806259,134.600646 24.1086036,133.274889 16.1431439,130.867563 C11.3251157,129.411374 3.20460713,126.180562 3.20460713,120.90235 C3.20460713,120.080056 2.46231831,119.413405 1.64002351,119.413405 C0.817728705,119.413405 -2.27233962e-13,120.080056 -2.27233962e-13,120.90235 L-2.27233962e-13,151.276832 C-2.27233962e-13,157.792854 5.31156385,163.178865 15.0744783,166.852589 C23.3395138,169.962698 34.5828368,171.675382 46.4596564,171.675382 C58.3362774,171.675382 69.2774438,169.962698 77.5424793,166.852589 C87.3053938,163.178865 92.3146025,157.792854 92.3146025,151.276832 L92.3146025,120.90235 C92.3146025,120.080056 91.7968466,119.413405 90.9745518,119.413405 L90.9745518,119.413405 Z" id="Fill-21" fill="#37474F"></path><path d="M82.050529,110.642585 C81.2800494,110.356112 80.4226155,110.748598 80.1361425,111.519276 C79.8496694,112.290152 80.2421554,113.147189 81.0128334,113.433861 C84.9098993,114.882505 89.5554083,117.333706 89.5554083,120.783294 C89.5554083,121.605589 90.2220587,122.272239 91.0443535,122.272239 C91.8666484,122.272239 92.5332988,121.605589 92.5332988,120.783294 C92.5332988,116.640255 89.0064839,113.228386 82.050529,110.642585" id="Fill-23" fill="#37474F"></path><path d="M10.8871872,110.660035 C3.96259935,113.243852 0.451468038,116.649764 0.451468038,120.783274 C0.451468038,121.605569 1.11811844,122.27222 1.94041324,122.27222 C2.76270804,122.27222 3.42935844,121.605569 3.42935844,120.783274 C3.42935844,117.343215 8.05104434,114.896779 11.9282576,113.45012 C12.6987372,113.162456 13.0902305,112.305022 12.8027648,111.534542 C12.5152991,110.763864 11.6578652,110.37257 10.8871872,110.660035" id="Fill-25" fill="#37474F"></path><path d="M13.7628168,43.0647422 C11.8833709,43.0647422 10.3541249,41.5354962 10.3541249,39.6560503 C10.3541249,37.7764059 11.8833709,36.2473584 13.7628168,36.2473584 C15.6422627,36.2473584 17.1715087,37.7764059 17.1715087,39.6560503 C17.1715087,41.5354962 15.6422627,43.0647422 13.7628168,43.0647422 M13.7628168,33.269468 C10.2411636,33.269468 7.37623453,36.1343971 7.37623453,39.6560503 C7.37623453,43.177505 10.2411636,46.0426326 13.7628168,46.0426326 C17.28447,46.0426326 20.1493991,43.177505 20.1493991,39.6560503 C20.1493991,36.1343971 17.28447,33.269468 13.7628168,33.269468" id="Fill-27" fill="#37474F"></path><path d="M13.7628168,97.1264366 C11.8833709,97.1264366 10.3541249,95.5971906 10.3541249,93.7177447 C10.3541249,91.8382988 11.8833709,90.3090529 13.7628168,90.3090529 C15.6422627,90.3090529 17.1715087,91.8382988 17.1715087,93.7177447 C17.1715087,95.5971906 15.6422627,97.1264366 13.7628168,97.1264366 M13.7628168,87.3311624 C10.2411636,87.3311624 7.37623453,90.1960915 7.37623453,93.7177447 C7.37623453,97.2393979 10.2411636,100.104327 13.7628168,100.104327 C17.28447,100.104327 20.1493991,97.2393979 20.1493991,93.7177447 C20.1493991,90.1960915 17.28447,87.3311624 13.7628168,87.3311624" id="Fill-29" fill="#37474F"></path><path d="M13.7628168,148.882787 C11.8833709,148.882787 10.3541249,147.353541 10.3541249,145.474095 C10.3541249,143.594451 11.8833709,142.065403 13.7628168,142.065403 C15.6422627,142.065403 17.1715087,143.594451 17.1715087,145.474095 C17.1715087,147.353541 15.6422627,148.882787 13.7628168,148.882787 M13.7628168,139.087513 C10.2411636,139.087513 7.37623453,141.952442 7.37623453,145.474095 C7.37623453,148.99555 10.2411636,151.860678 13.7628168,151.860678 C17.28447,151.860678 20.1493991,148.99555 20.1493991,145.474095 C20.1493991,141.952442 17.28447,139.087513 13.7628168,139.087513" id="Fill-31" fill="#37474F"></path></g><path d="M114.171289,106.060999 L114.171289,138.339266 C115.772256,143.918225 120.174916,147.903196 127.379268,150.294179 C138.185796,153.880653 118.97419,144.316722 112.970563,162.249092 C108.968146,174.204006 108.968146,186.557416 112.970563,199.309324 C119.374432,206.482272 122.176125,210.068746 121.375641,210.068746 C120.174916,210.068746 112.970563,211.264237 112.970563,220.828168 C112.970563,227.204122 112.970563,238.362041 112.970563,254.301925 C116.172498,264.66285 127.77951,270.640307 147.7916,272.234296 C167.803689,273.828284 185.014086,271.835798 199.422791,266.256839 C204.225692,264.66285 207.827869,260.279382 210.229319,253.106434 C212.63077,245.933486 213.031012,195.72285 211.430045,102.474525 C212.230528,93.7075888 201.023758,88.5271264 177.809734,86.9331379 C154.59571,85.3391495 136.184587,86.5346408 122.576367,90.5196119 C116.172498,94.5045831 112.970563,97.69256 112.970563,100.083543 C112.970563,102.474525 113.370805,104.467011 114.171289,106.060999 Z" id="Path-10" fill="#FFFFFF"></path><g id="Group-41" transform="translate(111.046875, 84.093750)"><path d="M15.3111337,156.904103 C12.4962704,156.904103 10.2143428,159.186031 10.2143428,162.000894 C10.2143428,164.815757 12.4962704,167.097685 15.3111337,167.097685 C18.125997,167.097685 20.4079246,164.815757 20.4079246,162.000894 C20.4079246,159.186031 18.125997,156.904103 15.3111337,156.904103" id="Fill-3" fill="#FC6E50"></path><path d="M15.3111337,99.176767 C12.4962704,99.176767 10.2143428,101.458695 10.2143428,104.273558 C10.2143428,107.088421 12.4962704,109.370349 15.3111337,109.370349 C18.125997,109.370349 20.4079246,107.088421 20.4079246,104.273558 C20.4079246,101.458695 18.125997,99.176767 15.3111337,99.176767" id="Fill-5" fill="#FC6E50"></path><path d="M15.3111337,39.1027913 C12.4962704,39.1027913 10.2143428,41.3847189 10.2143428,44.1995822 C10.2143428,47.0144455 12.4962704,49.2963732 15.3111337,49.2963732 C18.125997,49.2963732 20.4079246,47.0144455 20.4079246,44.1995822 C20.4079246,41.3847189 18.125997,39.1027913 15.3111337,39.1027913" id="Fill-7" fill="#FC6E50"></path><path d="M33.3111337,160.904103 C30.4962704,160.904103 28.2143428,163.186031 28.2143428,166.000894 C28.2143428,168.815757 30.4962704,171.097685 33.3111337,171.097685 C36.125997,171.097685 38.4079246,168.815757 38.4079246,166.000894 C38.4079246,163.186031 36.125997,160.904103 33.3111337,160.904103" id="Fill-3" fill="#FC6E50"></path><path d="M33.3111337,103.176767 C30.4962704,103.176767 28.2143428,105.458695 28.2143428,108.273558 C28.2143428,111.088421 30.4962704,113.370349 33.3111337,113.370349 C36.125997,113.370349 38.4079246,111.088421 38.4079246,108.273558 C38.4079246,105.458695 36.125997,103.176767 33.3111337,103.176767" id="Fill-5" fill="#FC6E50"></path><path d="M33.3111337,43.1027913 C30.4962704,43.1027913 28.2143428,45.3847189 28.2143428,48.1995822 C28.2143428,51.0144455 30.4962704,53.2963732 33.3111337,53.2963732 C36.125997,53.2963732 38.4079246,51.0144455 38.4079246,48.1995822 C38.4079246,45.3847189 36.125997,43.1027913 33.3111337,43.1027913" id="Fill-7" fill="#FC6E50"></path><path d="M53.3111337,161.904103 C50.4962704,161.904103 48.2143428,164.186031 48.2143428,167.000894 C48.2143428,169.815757 50.4962704,172.097685 53.3111337,172.097685 C56.125997,172.097685 58.4079246,169.815757 58.4079246,167.000894 C58.4079246,164.186031 56.125997,161.904103 53.3111337,161.904103" id="Fill-3" fill="#FC6E50"></path><path d="M53.3111337,104.176767 C50.4962704,104.176767 48.2143428,106.458695 48.2143428,109.273558 C48.2143428,112.088421 50.4962704,114.370349 53.3111337,114.370349 C56.125997,114.370349 58.4079246,112.088421 58.4079246,109.273558 C58.4079246,106.458695 56.125997,104.176767 53.3111337,104.176767" id="Fill-5" fill="#FC6E50"></path><path d="M53.3111337,44.1027913 C50.4962704,44.1027913 48.2143428,46.3847189 48.2143428,49.1995822 C48.2143428,52.0144455 50.4962704,54.2963732 53.3111337,54.2963732 C56.125997,54.2963732 58.4079246,52.0144455 58.4079246,49.1995822 C58.4079246,46.3847189 56.125997,44.1027913 53.3111337,44.1027913" id="Fill-7" fill="#FC6E50"></path><path d="M99.3870922,50.5769869 C99.3870922,63.3003016 75.2212312,69.9574699 51.3499976,69.9574699 C27.4787641,69.9574699 3.31290307,63.3003016 3.31290307,50.5769869 L3.31290307,24.0640445 C5.74236533,26.5350285 10.0138017,28.9947486 16.7904554,31.0427852 C25.954387,33.8123722 38.3417733,35.3376328 51.5180722,35.3376328 C71.5865348,35.3376328 91.656985,31.8009983 99.3870922,24.0781795 L99.3870922,50.5769869 Z M101.209189,15.128924 C100.294165,15.128924 99.7181616,15.8705726 99.7181616,16.7853756 C99.7181616,22.6573858 90.7209795,26.2516648 85.3609232,27.8716744 C76.4993492,30.5498253 64.5258549,32.0247297 51.6651651,32.0247297 C38.8046963,32.0247297 26.8208216,30.5498253 17.9592476,27.8716744 C12.5991912,26.2516648 3.56512543,22.6573858 3.56512543,16.7853756 C3.56512543,15.8705726 2.73932912,15.128924 1.82452615,15.128924 C0.909723184,15.128924 -2.52797783e-13,15.8705726 -2.52797783e-13,16.7853756 L-2.52797783e-13,50.5769869 C-2.52797783e-13,57.8260606 5.90911478,63.8179979 16.7703571,67.905016 C25.9652091,71.365012 38.473406,73.270373 51.6863677,73.270373 C64.8991086,73.270373 77.0711562,71.365012 86.2660083,67.905016 C97.1272506,63.8179979 102.699995,57.8260606 102.699995,50.5769869 L102.699995,16.7853756 C102.699995,15.8705726 102.123992,15.128924 101.209189,15.128924 L101.209189,15.128924 Z" id="Fill-11" fill="#37474F"></path><path d="M97.9574862,8.67803917 C95.1901078,6.7720156 91.2470906,5.12528191 86.2377603,3.78333531 C77.1292645,1.34371349 64.8980264,2.16410223e-13 51.7968199,2.16410223e-13 C38.6956134,2.16410223e-13 26.4641544,1.34371349 17.3556587,3.78333531 C12.3465493,5.12528191 8.40331116,6.7720156 5.63593279,8.67803917 C2.33937338,10.9487029 0.667682485,13.6021174 0.667682485,16.5645154 C0.667682485,17.4793183 1.40933105,18.2209669 2.32413402,18.2209669 C3.23893699,18.2209669 3.98058556,17.4793183 3.98058556,16.5645154 C3.98058556,12.8445669 9.03497135,9.44177376 18.2128172,6.98359968 C27.0496548,4.61642 38.9767685,3.31290307 51.7968199,3.31290307 C64.6168714,3.31290307 76.5437641,4.61642 85.3806018,6.98359968 C94.5584476,9.44177376 99.6130543,12.8445669 99.6130543,16.5645154 C99.6130543,17.4793183 100.354703,18.2209669 101.269506,18.2209669 C102.184309,18.2209669 102.925957,17.4793183 102.925957,16.5645154 C102.925957,13.6021174 101.254266,10.9487029 97.9574862,8.67803917" id="Fill-13" fill="#37474F"></path><path d="M99.3870922,110.650963 C99.3870922,123.374277 75.2212312,130.031446 51.3499976,130.031446 C27.4787641,130.031446 3.31290307,123.374277 3.31290307,110.650963 L3.31290307,84.1380202 C5.74236533,86.6090042 10.0138017,89.0687243 16.7904554,91.116761 C25.954387,93.8863479 38.3417733,95.4116085 51.5180722,95.4116085 C71.5865348,95.4116085 91.656985,91.874974 99.3870922,84.1521553 L99.3870922,110.650963 Z M101.209189,75.2028998 C100.294165,75.2028998 99.7181616,75.9445483 99.7181616,76.8593513 C99.7181616,82.7313616 90.7209795,86.3256405 85.3609232,87.9456501 C76.4993492,90.623801 64.5258549,92.0987054 51.6651651,92.0987054 C38.8046963,92.0987054 26.8208216,90.623801 17.9592476,87.9456501 C12.5991912,86.3256405 3.56512543,82.7313616 3.56512543,76.8593513 C3.56512543,75.9445483 2.73932912,75.2028998 1.82452615,75.2028998 C0.909723184,75.2028998 -2.52797783e-13,75.9445483 -2.52797783e-13,76.8593513 L-2.52797783e-13,110.650963 C-2.52797783e-13,117.900036 5.90911478,123.891974 16.7703571,127.978992 C25.9652091,131.438988 38.473406,133.344349 51.6863677,133.344349 C64.8991086,133.344349 77.0711562,131.438988 86.2660083,127.978992 C97.1272506,123.891974 102.699995,117.900036 102.699995,110.650963 L102.699995,76.8593513 C102.699995,75.9445483 102.123992,75.2028998 101.209189,75.2028998 L101.209189,75.2028998 Z" id="Fill-15" fill="#37474F"></path><path d="M87.8592717,64.3740577 C86.9822358,64.1134426 86.0601445,64.6130284 85.7995294,65.4898434 C85.5386935,66.3666584 86.0382793,67.2889706 86.9153152,67.5495857 C95.1147503,69.9872198 99.6302372,73.269865 99.6302372,76.7925852 C99.6302372,77.7073882 100.371886,78.4490368 101.286689,78.4490368 C102.201713,78.4490368 102.94314,77.7073882 102.94314,76.7925852 C102.94314,71.5279405 97.8682145,67.3497072 87.8592717,64.3740577" id="Fill-17" fill="#37474F"></path><path d="M15.6582597,64.3527005 C5.60139026,67.3292335 0.502169848,71.5147552 0.502169848,76.7926515 C0.502169848,77.7074545 1.24381842,78.449103 2.15862138,78.449103 C3.07364521,78.449103 3.81507292,77.7074545 3.81507292,76.7926515 C3.81507292,73.2591091 8.35507529,69.9691755 16.5984616,67.5293328 C17.4757183,67.2698221 17.9764084,66.3481724 17.7166768,65.4709157 C17.4571661,64.5938798 16.5359581,64.0929689 15.6582597,64.3527005" id="Fill-19" fill="#37474F"></path><path d="M99.3870922,168.295476 C99.3870922,181.018791 75.2212312,187.675959 51.3499976,187.675959 C27.4787641,187.675959 3.31290307,181.018791 3.31290307,168.295476 L3.31290307,141.782755 C5.74236533,144.253518 10.0138017,146.713238 16.7904554,148.761274 C25.954387,151.530861 38.3417733,153.056122 51.5180722,153.056122 C71.5865348,153.056122 91.656985,149.519488 99.3870922,141.796669 L99.3870922,168.295476 Z M101.209189,132.847413 C100.294165,132.847413 99.7181616,133.589062 99.7181616,134.503865 C99.7181616,140.375875 90.7209795,143.970154 85.3609232,145.590164 C76.4993492,148.268314 64.5258549,149.743219 51.6651651,149.743219 C38.8046963,149.743219 26.8208216,148.268314 17.9592476,145.590164 C12.5991912,143.970154 3.56512543,140.375875 3.56512543,134.503865 C3.56512543,133.589062 2.73932912,132.847413 1.82452615,132.847413 C0.909723184,132.847413 -4.90274488e-13,133.589062 -4.90274488e-13,134.503865 L-4.90274488e-13,168.295476 C-4.90274488e-13,175.54455 5.90911478,181.536487 16.7703571,185.623505 C25.9652091,189.083501 38.473406,190.988862 51.6863677,190.988862 C64.8991086,190.988862 77.0711562,189.083501 86.2660083,185.623505 C97.1272506,181.536487 102.699995,175.54455 102.699995,168.295476 L102.699995,134.503865 C102.699995,133.589062 102.123992,132.847413 101.209189,132.847413 L101.209189,132.847413 Z" id="Fill-21" fill="#37474F"></path><path d="M91.2812135,123.089876 C90.424055,122.771174 89.4701598,123.207815 89.1514585,124.065194 C88.8327572,124.922794 89.2693979,125.876248 90.1267772,126.19517 C94.462263,127.806787 99.6303918,130.533748 99.6303918,134.371415 C99.6303918,135.286218 100.37204,136.027866 101.286843,136.027866 C102.201646,136.027866 102.943295,135.286218 102.943295,134.371415 C102.943295,129.762283 99.0197133,125.96658 91.2812135,123.089876" id="Fill-23" fill="#37474F"></path><path d="M12.1119957,123.109289 C4.40839177,125.983785 0.502258192,129.772862 0.502258192,134.371393 C0.502258192,135.286196 1.24390676,136.027844 2.15870973,136.027844 C3.0735127,136.027844 3.81516126,135.286196 3.81516126,134.371393 C3.81516126,130.544327 8.95678683,127.822667 13.2701866,126.213259 C14.1273451,125.893232 14.5628814,124.939337 14.2430758,124.082178 C13.9232703,123.224799 12.969375,122.789484 12.1119957,123.109289" id="Fill-25" fill="#37474F"></path><path d="M15.3111337,47.9095257 C13.2202501,47.9095257 11.518964,46.2082395 11.518964,44.117356 C11.518964,42.0262516 13.2202501,40.3251863 15.3111337,40.3251863 C17.4020173,40.3251863 19.1033034,42.0262516 19.1033034,44.117356 C19.1033034,46.2082395 17.4020173,47.9095257 15.3111337,47.9095257 M15.3111337,37.0122832 C11.3932945,37.0122832 8.20606091,40.1995168 8.20606091,44.117356 C8.20606091,48.0349743 11.3932945,51.2224288 15.3111337,51.2224288 C19.2289729,51.2224288 22.4162065,48.0349743 22.4162065,44.117356 C22.4162065,40.1995168 19.2289729,37.0122832 15.3111337,37.0122832" id="Fill-27" fill="#37474F"></path><path d="M15.3111337,108.053161 C13.2202501,108.053161 11.518964,106.351875 11.518964,104.260991 C11.518964,102.170107 13.2202501,100.468821 15.3111337,100.468821 C17.4020173,100.468821 19.1033034,102.170107 19.1033034,104.260991 C19.1033034,106.351875 17.4020173,108.053161 15.3111337,108.053161 M15.3111337,97.1559182 C11.3932945,97.1559182 8.20606091,100.343152 8.20606091,104.260991 C8.20606091,108.17883 11.3932945,111.366064 15.3111337,111.366064 C19.2289729,111.366064 22.4162065,108.17883 22.4162065,104.260991 C22.4162065,100.343152 19.2289729,97.1559182 15.3111337,97.1559182" id="Fill-29" fill="#37474F"></path><path d="M15.3111337,165.632101 C13.2202501,165.632101 11.518964,163.930815 11.518964,161.839931 C11.518964,159.748827 13.2202501,158.047761 15.3111337,158.047761 C17.4020173,158.047761 19.1033034,159.748827 19.1033034,161.839931 C19.1033034,163.930815 17.4020173,165.632101 15.3111337,165.632101 M15.3111337,154.734858 C11.3932945,154.734858 8.20606091,157.922092 8.20606091,161.839931 C8.20606091,165.757549 11.3932945,168.945004 15.3111337,168.945004 C19.2289729,168.945004 22.4162065,165.757549 22.4162065,161.839931 C22.4162065,157.922092 19.2289729,154.734858 15.3111337,154.734858" id="Fill-31" fill="#37474F"></path><path d="M34.3111337,51.9095257 C32.2202501,51.9095257 30.518964,50.2082395 30.518964,48.117356 C30.518964,46.0262516 32.2202501,44.3251863 34.3111337,44.3251863 C36.4020173,44.3251863 38.1033034,46.0262516 38.1033034,48.117356 C38.1033034,50.2082395 36.4020173,51.9095257 34.3111337,51.9095257 M34.3111337,41.0122832 C30.3932945,41.0122832 27.2060609,44.1995168 27.2060609,48.117356 C27.2060609,52.0349743 30.3932945,55.2224288 34.3111337,55.2224288 C38.2289729,55.2224288 41.4162065,52.0349743 41.4162065,48.117356 C41.4162065,44.1995168 38.2289729,41.0122832 34.3111337,41.0122832" id="Fill-27" fill="#37474F"></path><path d="M34.3111337,112.053161 C32.2202501,112.053161 30.518964,110.351875 30.518964,108.260991 C30.518964,106.170107 32.2202501,104.468821 34.3111337,104.468821 C36.4020173,104.468821 38.1033034,106.170107 38.1033034,108.260991 C38.1033034,110.351875 36.4020173,112.053161 34.3111337,112.053161 M34.3111337,101.155918 C30.3932945,101.155918 27.2060609,104.343152 27.2060609,108.260991 C27.2060609,112.17883 30.3932945,115.366064 34.3111337,115.366064 C38.2289729,115.366064 41.4162065,112.17883 41.4162065,108.260991 C41.4162065,104.343152 38.2289729,101.155918 34.3111337,101.155918" id="Fill-29" fill="#37474F"></path><path d="M34.3111337,169.632101 C32.2202501,169.632101 30.518964,167.930815 30.518964,165.839931 C30.518964,163.748827 32.2202501,162.047761 34.3111337,162.047761 C36.4020173,162.047761 38.1033034,163.748827 38.1033034,165.839931 C38.1033034,167.930815 36.4020173,169.632101 34.3111337,169.632101 M34.3111337,158.734858 C30.3932945,158.734858 27.2060609,161.922092 27.2060609,165.839931 C27.2060609,169.757549 30.3932945,172.945004 34.3111337,172.945004 C38.2289729,172.945004 41.4162065,169.757549 41.4162065,165.839931 C41.4162065,161.922092 38.2289729,158.734858 34.3111337,158.734858" id="Fill-31" fill="#37474F"></path><path d="M53.3111337,52.9095257 C51.2202501,52.9095257 49.518964,51.2082395 49.518964,49.117356 C49.518964,47.0262516 51.2202501,45.3251863 53.3111337,45.3251863 C55.4020173,45.3251863 57.1033034,47.0262516 57.1033034,49.117356 C57.1033034,51.2082395 55.4020173,52.9095257 53.3111337,52.9095257 M53.3111337,42.0122832 C49.3932945,42.0122832 46.2060609,45.1995168 46.2060609,49.117356 C46.2060609,53.0349743 49.3932945,56.2224288 53.3111337,56.2224288 C57.2289729,56.2224288 60.4162065,53.0349743 60.4162065,49.117356 C60.4162065,45.1995168 57.2289729,42.0122832 53.3111337,42.0122832" id="Fill-27" fill="#37474F"></path><path d="M53.3111337,113.053161 C51.2202501,113.053161 49.518964,111.351875 49.518964,109.260991 C49.518964,107.170107 51.2202501,105.468821 53.3111337,105.468821 C55.4020173,105.468821 57.1033034,107.170107 57.1033034,109.260991 C57.1033034,111.351875 55.4020173,113.053161 53.3111337,113.053161 M53.3111337,102.155918 C49.3932945,102.155918 46.2060609,105.343152 46.2060609,109.260991 C46.2060609,113.17883 49.3932945,116.366064 53.3111337,116.366064 C57.2289729,116.366064 60.4162065,113.17883 60.4162065,109.260991 C60.4162065,105.343152 57.2289729,102.155918 53.3111337,102.155918" id="Fill-29" fill="#37474F"></path><path d="M53.3111337,170.632101 C51.2202501,170.632101 49.518964,168.930815 49.518964,166.839931 C49.518964,164.748827 51.2202501,163.047761 53.3111337,163.047761 C55.4020173,163.047761 57.1033034,164.748827 57.1033034,166.839931 C57.1033034,168.930815 55.4020173,170.632101 53.3111337,170.632101 M53.3111337,159.734858 C49.3932945,159.734858 46.2060609,162.922092 46.2060609,166.839931 C46.2060609,170.757549 49.3932945,173.945004 53.3111337,173.945004 C57.2289729,173.945004 60.4162065,170.757549 60.4162065,166.839931 C60.4162065,162.922092 57.2289729,159.734858 53.3111337,159.734858" id="Fill-31" fill="#37474F"></path><path d="M100.068821,37.546014 C94.675636,43.3977051 82.8638114,46.8853086 64.9615458,47.9123085 C64.0482888,47.9646524 63.3503706,48.7476018 63.4027145,49.6608588 C63.4532915,50.5418701 64.1836762,51.2223404 65.0549697,51.2223404 C65.0869944,51.2223404 65.1190191,51.221457 65.1514856,51.2196901 C74.2056497,50.7002269 81.8719282,49.5402691 87.9369703,47.7718415 C94.4814999,45.8638301 99.3828296,43.1786118 102.504689,39.7912788 C103.124864,39.1185386 103.082238,38.070557 102.409498,37.4506024 C101.736758,36.8304269 100.688776,36.8734946 100.068821,37.546014" id="Fill-33" fill="#37474F"></path></g><path d="M8.625,73.3125 L12.9375,66.84375 L8.625,58.21875 C5.03125,59.65625 3.234375,59.65625 3.234375,58.21875 C3.234375,56.78125 3.234375,53.1875 3.234375,47.4375 L8.625,45.28125 L12.9375,36.65625 L8.625,31.265625 L16.171875,21.5625 L21.5625,28.03125 L30.1875,24.796875 L30.1875,17.25 L44.203125,17.25 L44.203125,23.71875 L51.75,28.03125 L59.296875,23.71875 L65.765625,31.265625 L61.453125,36.65625 L63.609375,45.28125 L74.390625,45.28125 L72.234375,58.21875 L63.609375,58.21875 L61.453125,66.84375 L65.765625,73.3125 L57.140625,83.015625 L51.75,75.46875 L44.203125,78.703125 L44.203125,89.484375 L30.1875,86.25 L31.265625,76.546875 L23.71875,75.46875 L16.171875,83.015625 L8.625,73.3125 Z" id="Path-17" fill="#FFD740"></path><g id="Group-47" transform="translate(0.000000, 15.093750)" fill="#37474F"><path d="M32.5411479,71.2028014 L41.8460738,71.2067753 L41.8313257,62.8623452 C41.8300022,62.1328509 42.319148,61.4939994 43.0232759,61.3055231 C45.5242158,60.636205 47.7545845,59.678117 49.8418209,58.376949 C50.476368,57.9812623 51.2994262,58.0758789 51.8280894,58.6047859 L57.8006977,64.5822863 L64.4855643,57.8919442 L58.5127669,51.9144438 C57.984671,51.385726 57.8901318,50.5627505 58.2843602,49.9276837 C59.5833288,47.8368453 60.5729651,45.5047345 61.2258528,43.037322 C61.4124732,42.3318604 62.0502346,41.8194167 62.77951,41.8194167 L62.7802663,41.8194167 L71.1759142,41.8445847 L71.1744015,32.5414989 L63.1553978,32.5469866 L63.1546415,32.5469866 C62.3883068,32.5469866 61.7288013,32.0146734 61.5786731,31.2626604 C61.0318584,28.5229412 60.129009,26.0663149 58.8188849,23.7430981 C58.4641738,23.1140867 58.5717594,22.3278225 59.0818929,21.8172712 L64.4855643,16.410309 L57.9343761,9.85432252 L52.9362779,14.8567039 C52.3902195,15.4030204 51.5329381,15.483823 50.8947985,15.0487757 C48.4921793,13.4103941 45.7747447,12.1552098 43.0359441,11.4181462 C42.333707,11.2291022 41.8456957,10.5917646 41.8460738,9.86397341 L41.8494772,3.21715492 L32.5532489,3.21866879 L32.5615684,9.46071732 C32.5627029,10.2273013 32.0230731,10.8881039 31.2722428,11.0394905 C28.2617367,11.6471185 25.4079765,12.7798688 22.7907534,14.4063287 C22.1562063,14.8001232 21.3344716,14.7053173 20.8063756,14.176978 L16.4878251,9.85489022 L9.80276945,16.5452324 L14.1222653,20.8680771 C14.6441217,21.3903609 14.7433879,22.2010362 14.3631512,22.8342107 C12.7860483,25.46039 11.6027958,28.4427063 11.031779,31.2846115 C10.8808944,32.0356783 10.221389,32.5469866 9.45618876,32.5469866 L9.45354166,32.5469866 L3.21565639,32.5590975 L3.22359768,41.8402323 L9.86913597,41.8194167 L9.87159399,41.8194167 C10.599924,41.8194167 11.2371181,42.3337527 11.4244948,43.0382682 C12.1550937,45.7813936 13.405091,48.516382 15.0394846,50.9247538 C15.4728523,51.5632268 15.3919268,52.4261305 14.8464356,52.9718793 L9.80276945,58.0227044 L16.3541467,64.5809617 L21.7997935,59.1314221 C22.3104942,58.620303 23.098573,58.513197 23.7276368,58.8689555 C26.0739106,60.1969946 28.5309843,61.1053143 31.2391541,61.6450076 C31.9903626,61.7948803 32.5315049,62.4543582 32.5324503,63.2209422 L32.5411479,71.2028014 Z M43.4560763,74.3675385 L43.45532,74.3675385 L30.934927,74.390625 C30.0483384,74.390625 29.3294623,73.6855418 29.328517,72.7982271 L29.3196303,64.5052684 C27.1919311,63.9807138 25.1519643,63.2269977 23.2286589,62.248094 L17.4905078,67.9926483 C16.8623894,68.6209027 15.8449586,68.6214704 15.2175965,67.9935944 L6.39349694,59.1626456 C5.76594576,58.5345804 5.76594576,57.5163161 6.39349694,56.8882509 L11.6557377,51.6216999 C10.3959084,49.568519 9.37961201,47.3156969 8.66659739,45.0560625 L1.62040199,45.0363822 L1.61775489,45.0363822 C1.19213943,45.0363822 0.784108254,44.8986204 0.482717296,44.5977395 C0.18094818,44.2962909 0.0109667047,43.9026857 0.0105885479,43.4759647 L0,30.9687812 C0,30.541114 0.169414398,30.1166638 0.471939827,29.8144582 C0.773141707,29.5135774 1.18174012,29.3300211 1.6071665,29.3300211 L1.6115153,29.3300211 L8.17537172,29.3661646 C8.78514954,26.9646053 9.75379815,24.5183868 10.9809169,22.2646186 L6.39349694,17.6779827 C5.76594576,17.0499175 5.76594576,16.0337348 6.39349694,15.4056696 L15.3512749,6.44168979 C15.9790152,5.81343534 16.996446,5.81381381 17.6243753,6.44225749 L22.1985598,11.0203779 C24.4502944,9.75421812 26.8451613,8.80161786 29.3457231,8.17733731 L29.3368364,1.61245682 C29.3362692,1.18554657 29.5051162,0.776045785 29.8066962,0.473840258 C30.1080872,0.171823964 30.5170637,0.00208172416 30.9438137,0.00189249089 L43.4570217,0 C43.8833935,0 44.2923701,0.169363932 44.5939501,0.471380225 C44.8953411,0.773018052 45.0645662,1.18251884 45.0643771,1.60923986 L45.0609737,8.66101754 C47.3164899,9.37877932 49.5340013,10.3993143 51.5824766,11.6624464 L56.7978259,6.44282519 C57.4255662,5.81438151 58.442997,5.81457074 59.0709264,6.44282519 L67.8950259,15.2741525 C68.5225771,15.9022177 68.5225771,16.9206712 67.8950259,17.5487364 L62.1986611,23.2499562 C63.1758183,25.1742693 63.9171946,27.1805204 64.4443452,29.3408074 L72.7804334,29.3300211 L72.7811897,29.3300211 C73.2071833,29.3300211 73.6157817,29.5058188 73.9173618,29.8074566 C74.2189418,30.1089052 74.3883561,30.5214337 74.3883561,30.9481547 L74.390625,43.472937 C74.390625,43.899658 74.2212108,44.2864508 73.9198198,44.5880886 C73.6182398,44.8897264 73.2096414,45.0363822 72.7834587,45.0363822 L72.7828914,45.0363822 L63.9892335,45.055684 C63.39704,46.9667508 62.6186042,48.8007996 61.6656491,50.5086298 L67.8950259,56.748786 C68.5225771,57.3768512 68.5225771,58.3983324 67.8950259,59.0263976 L58.9372479,67.9930267 C58.3093186,68.6210919 57.2918878,68.6218489 56.6641475,67.9937837 L50.4364725,61.7610076 C48.7434645,62.7105801 46.9636696,63.4726224 45.0479273,64.0681395 L45.0632427,72.8129873 C45.0638099,73.240276 44.8947738,73.6217702 44.5931938,73.9239758 C44.2916138,74.2261813 43.8824481,74.3675385 43.4560763,74.3675385 L43.4560763,74.3675385 Z" id="Fill-29"></path><path d="M36.65625,21.5631915 C32.7893806,21.5631915 28.9225113,23.035035 25.9788091,25.9787218 C20.0910241,31.8664763 20.0910241,41.4461189 25.9788091,47.333683 C31.8662134,53.2212471 41.4462866,53.2212471 47.3336909,47.333683 C53.2214759,41.4461189 53.2214759,31.8664763 47.3336909,25.9787218 C44.3899887,23.035035 40.5231194,21.5631915 36.65625,21.5631915 M36.65625,54.984375 C31.9606434,54.984375 27.2650368,53.1970686 23.6902149,49.6222653 C16.5407617,42.4726588 16.5407617,30.839746 23.6902149,23.6903299 C30.8398586,16.5407234 42.4726414,16.5407234 49.6222851,23.6903299 C56.7717383,30.839746 56.7717383,42.4726588 49.6222851,49.6222653 C46.0474632,53.1970686 41.3518566,54.984375 36.65625,54.984375" id="Fill-27"></path></g><g id="Group-49" transform="translate(22.640625, 17.250000)" fill="#FC6E50" fill-rule="nonzero"><path d="M186.748596,1.30924524 C187.440655,0.0749815184 189.001789,-0.364304526 190.235487,0.328072398 C191.392078,0.977175765 191.85028,2.39046519 191.332797,3.58159278 L191.21621,3.81656388 L144.652631,86.861087 C143.884632,88.2307854 142.095199,88.5782553 140.875593,87.6529537 L140.677874,87.4869089 L100.544501,50.276945 L74.5541415,82.4957846 C73.854455,83.3630886 72.683056,83.6712793 71.6583994,83.2845571 L71.4248266,83.1829159 L45.5978999,70.3921568 L5.31023017,122.980637 C4.50348459,124.033647 3.0400268,124.286339 1.93517294,123.604433 L1.71928439,123.455551 C0.666756914,122.648435 0.414181197,121.184305 1.0957744,120.078945 L1.24458839,119.862957 L42.8146536,65.6033282 C43.5059947,64.7009502 44.700167,64.3700191 45.745427,64.7622426 L45.9837008,64.8656619 L71.8564257,77.6768286 L98.2815429,44.9243654 C99.1549705,43.8416986 100.716324,43.6650382 101.804581,44.4783683 L102.015581,44.6542591 L141.773661,81.516839 L186.748596,1.30924524 Z" id="Stroke-59"></path></g><circle id="Oval" fill="#FFFFFF" cx="36.65625" cy="51.75" r="16.171875"></circle></g></g></g></svg> 