<?xml version="1.0" encoding="utf-8"?>
<!-- Generator: Adobe Illustrator 23.0.6, SVG Export Plug-In . SVG Version: 6.00 Build 0)  -->
<svg version="1.1" id="Layer_1" xmlns="http://www.w3.org/2000/svg" xmlns:xlink="http://www.w3.org/1999/xlink" x="0px" y="0px"
	 viewBox="0 0 35.9 26.4" style="enable-background:new 0 0 35.9 26.4;" xml:space="preserve">
<style type="text/css">
	.st0{fill:url(#SVGID_1_);}
	.st1{fill:url(#SVGID_2_);}
	.st2{fill:url(#SVGID_3_);}
	.st3{fill:url(#SVGID_4_);}
	.st4{fill:url(#SVGID_5_);}
	.st5{fill:url(#SVGID_6_);}
	.st6{fill:url(#SVGID_7_);}
	.st7{fill:url(#SVGID_8_);}
	.st8{fill:url(#SVGID_9_);}
	.st9{fill:url(#SVGID_10_);}
</style>
<linearGradient id="SVGID_1_" gradientUnits="userSpaceOnUse" x1="17.9636" y1="26.3613" x2="17.9636" y2="0">
	<stop  offset="0" style="stop-color:#EC7032"/>
	<stop  offset="1" style="stop-color:#F1922F"/>
</linearGradient>
<path class="st0" d="M34.8,0.6C30.7,3,26.8,2.4,22.6,1.9c-4.5-0.6-9.1-1.3-14.1,1.8c-5,3.1-6.8,9.6-4.2,15.5c-1.6,1.8-3.1,4-4.3,6.6
	l1.4,0.6C6.2,16.1,15,12.9,22.8,10.1c1.3-0.5,2.5-0.9,3.7-1.4l-0.5-1.4c-1.2,0.5-2.4,0.9-3.6,1.4C16.6,10.7,10.4,13,5.4,18
	c-1.9-5.1-0.3-10.4,3.9-13c4.5-2.8,8.6-2.2,13.1-1.6c3.9,0.5,7.9,1.1,12-0.8C34,10.4,30,16.4,22.8,20.1c-5.2,2.6-12.7,1.9-14.9,0.1
	l-1,1.1c1.5,1.3,4.5,2,7.8,2c3,0,6.1-0.6,8.8-1.9c8.1-4.1,12.4-11.1,12.4-20.2V0L34.8,0.6z"/>
</svg>
