<?xml version="1.0" encoding="utf-8"?>
<!-- Generator: Adobe Illustrator 24.0.0, SVG Export Plug-In . SVG Version: 6.00 Build 0)  -->
<svg version="1.1" id="Layer_1" xmlns="http://www.w3.org/2000/svg" xmlns:xlink="http://www.w3.org/1999/xlink" x="0px" y="0px"
	 viewBox="0 0 35.2 30.8" style="enable-background:new 0 0 35.2 30.8;" xml:space="preserve">
<style type="text/css">
	.st0{fill:#FF4E00;}
</style>
<path class="st0" d="M0,0v30.8h30.8v-1.5H1.5V6h32.2v20.2h1.5V0H0z M33.8,4.5H1.5v-3h32.2L33.8,4.5L33.8,4.5z M4.5,3.8H3V2.2h1.5
	V3.8z M7.5,3.8H6V2.2h1.5V3.8z M10.5,3.8H9V2.2h1.5V3.8z M24.8,18.8h1.5v3h-1.5V18.8z M10.5,21.8v-6H12v6H10.5z M7.5,21.8V18H9v3.8
	H7.5z M4.5,21.8v-8.2H6v8.2H4.5z M21.8,13.5h1.5v8.2h-1.5V13.5z M18.8,15.8h1.5v6h-1.5V15.8z M31.5,18c0-5-4-9-9-9s-9,4-9,9s4,9,9,9
	c2.2,0,4.2-0.8,5.8-2.1l5.7,5.7l1.1-1.1l-5.7-5.7C30.7,22.2,31.5,20.2,31.5,18z M22.5,25.5c-4.1,0-7.5-3.4-7.5-7.5s3.4-7.5,7.5-7.5
	S30,13.9,30,18S26.6,25.5,22.5,25.5z"/>
</svg>
