<?xml version="1.0" encoding="UTF-8"?> <svg xmlns="http://www.w3.org/2000/svg" xmlns:xlink="http://www.w3.org/1999/xlink" width="358px" height="294px" viewBox="0 0 358 294" version="1.1"><title>25DA614F-2072-4763-9D95-FD499500782C</title><g id="Page-1" stroke="none" stroke-width="1" fill="none" fill-rule="evenodd"><g id="Web-developent-services_new" transform="translate(-814.000000, -1941.000000)" stroke="#37474F" stroke-width="3"><g id="Unique-Brand-Identity" transform="translate(816.000000, 1943.000000)"><rect id="Rectangle" x="51.6153846" y="57.6153846" width="250.769231" height="203" rx="10"></rect><path d="M204.692308,46.7692308 L307,46.7692308 C311.248344,46.7692308 314.692308,50.2131942 314.692308,54.4615385 L314.692308,96" id="Path" stroke-linecap="round" stroke-linejoin="round"></path><rect id="Rectangle" fill="#FFD740" stroke-linecap="round" stroke-linejoin="round" x="312.384615" y="119.076923" width="41.5384615" height="170.769231"></rect><line x1="326.230769" y1="135.230769" x2="353.923077" y2="135.230769" id="Path" stroke-linecap="round" stroke-linejoin="round"></line><line x1="334.923077" y1="149.076923" x2="353.923077" y2="149.076923" id="Path" stroke-linecap="round" stroke-linejoin="round"></line><line x1="325.923077" y1="162.923077" x2="353.615385" y2="162.923077" id="Path" stroke-linecap="round" stroke-linejoin="round"></line><line x1="333.846154" y1="176.769231" x2="352.846154" y2="176.769231" id="Path" stroke-linecap="round" stroke-linejoin="round"></line><line x1="325.692308" y1="189.846154" x2="353.384615" y2="189.846154" id="Path" stroke-linecap="round" stroke-linejoin="round"></line><line x1="334.384615" y1="203.692308" x2="353.384615" y2="203.692308" id="Path" stroke-linecap="round" stroke-linejoin="round"></line><line x1="325.384615" y1="217.538462" x2="353.076923" y2="217.538462" id="Path" stroke-linecap="round" stroke-linejoin="round"></line><line x1="333.307692" y1="231.384615" x2="352.307692" y2="231.384615" id="Path" stroke-linecap="round" stroke-linejoin="round"></line><line x1="326.230769" y1="245.230769" x2="353.923077" y2="245.230769" id="Path" stroke-linecap="round" stroke-linejoin="round"></line><line x1="334.923077" y1="259.076923" x2="353.923077" y2="259.076923" id="Path" stroke-linecap="round" stroke-linejoin="round"></line><line x1="325.923077" y1="272.923077" x2="353.615385" y2="272.923077" id="Path" stroke-linecap="round" stroke-linejoin="round"></line><line x1="43.9230769" y1="276" x2="222.384615" y2="276" id="Path" stroke-linecap="round" stroke-linejoin="round"></line><line x1="37.0769231" y1="288.307692" x2="98.6153846" y2="288.307692" id="Path" stroke-linecap="round" stroke-linejoin="round"></line><line x1="145.461538" y1="289.076923" x2="270.846154" y2="289.076923" id="Path" stroke-linecap="round" stroke-linejoin="round"></line><line x1="280.846154" y1="289.076923" x2="303.153846" y2="289.076923" id="Path" stroke-linecap="round" stroke-linejoin="round"></line><path d="M135.538462,135.307692 L116.307692,98 L22.3076923,4.07692308 C22.3076923,4.07692308 15.9230769,-2.92307692 7.76923077,2.38461538 L1.30769231,8.76923077 C1.30769231,8.76923077 -2.30769231,15 4.61538462,22.4615385 L95.6153846,114.076923 L135.538462,135.307692 Z" id="Path" fill="#FFD740" fill-rule="nonzero" stroke-linecap="round" stroke-linejoin="round"></path><line x1="11.6153846" y1="30" x2="29.6153846" y2="12.0769231" id="Path" fill="#FFFFFF" fill-rule="nonzero" stroke-linecap="round" stroke-linejoin="round"></line><line x1="16.2307692" y1="34.0769231" x2="34.3076923" y2="16.1538462" id="Path" fill="#FFFFFF" fill-rule="nonzero" stroke-linecap="round" stroke-linejoin="round"></line><circle id="Oval" fill="#D0FFFF" fill-rule="nonzero" stroke-linecap="round" stroke-linejoin="round" cx="203.153846" cy="155.846154" r="53.4615385"></circle><path d="M185.076923,106.153846 C185.076923,106.153846 169.846154,142.615385 188.769231,165.076923 C207.692308,187.538462 239.153846,184 249.615385,181.384615 C254.593638,171.565021 256.901611,160.608778 256.307692,149.615385 C255.448097,138.932662 251.157833,128.814116 244.076923,120.769231 C234.076923,109.307692 214.846154,95.3846154 185.076923,106.153846 Z" id="Path" fill="#40C4FF" fill-rule="nonzero" stroke-linecap="round" stroke-linejoin="round"></path><path d="M244.769231,122.307692 C244.769231,122.307692 204.153846,137.615385 213.307692,180.230769" id="Path" stroke-linecap="round" stroke-linejoin="round"></path><path d="M252.846154,136.615385 C252.846154,136.615385 223.692308,167.384615 179.692308,139.846154" id="Path" stroke-linecap="round" stroke-linejoin="round"></path><path d="M203,221.461538 C238.983476,221.461538 268.153846,192.291168 268.153846,156.307692 C268.153846,120.324217 238.983476,91.1538462 203,91.1538462 C167.016524,91.1538462 137.846154,120.324217 137.846154,156.307692 C137.846154,192.291168 167.016524,221.461538 203,221.461538 Z" id="Oval" stroke-linecap="round" stroke-linejoin="round" stroke-dasharray="10.24"></path></g></g></g></svg> 