<?xml version="1.0" encoding="UTF-8"?> <svg xmlns="http://www.w3.org/2000/svg" xmlns:xlink="http://www.w3.org/1999/xlink" width="318px" height="225px" viewBox="0 0 318 225" version="1.1"><title>F3F72601-C5ED-420A-9E62-26B8E4BAB272</title><g id="Page-1" stroke="none" stroke-width="1" fill="none" fill-rule="evenodd"><g id="Web-developent-services_new" transform="translate(-854.000000, -1136.000000)"><g id="User-friendliness" transform="translate(855.104890, 1138.000000)"><g id="Group-13" transform="translate(0.895110, 0.000000)" stroke="#37474F" stroke-linecap="round" stroke-width="3"><path d="M211.6875,0 L48.2589286,0 C38.0022118,0 29.6875,8.32685596 29.6875,18.5985533 L29.6875,187" id="Path"></path><path d="M255.102425,17.0046329 C263.271345,16.8049584 270.14518,23.0833496 270.6875,31.2396555 L270.6875,163.760937 C270.6875,167.595763 269.142955,171.268823 266.400608,173.948368 C263.658262,176.627913 259.951189,178.087265 256.118843,177.995959 L58.2561572,177.995959 C54.4238107,178.087265 50.7167384,176.627913 47.9743916,173.948368 C45.2320447,171.268823 43.6875,167.595763 43.6875,163.760937 L43.6875,31.2396555 C43.6875,27.4048291 45.2320447,23.7317689 47.9743916,21.052224 C50.7167384,18.3726791 54.4238107,16.9133274 58.2561572,17.0046329 L254.6875,17" id="Path"></path><path d="M211.6875,0 L266.013081,0 C276.326678,0 284.6875,8.32685596 284.6875,18.5985533 L284.6875,187" id="Path"></path><rect id="Rectangle" fill="#00C8FF" x="0.6875" y="195" width="312" height="26" rx="3.4"></rect><path d="M162.773518,207.992416 L146.257392,207.992416 C142.076656,207.992416 138.6875,204.711246 138.6875,200.663717 L138.6875,196 L170.6875,196 L170.6875,200.663717 C170.689634,202.666527 169.845036,204.582929 168.350089,205.967317 C166.855142,207.351705 164.840105,208.083454 162.773518,207.992416 L162.773518,207.992416 Z" id="Path" fill="#FFD740"></path></g><g id="017-lifebuoy" transform="translate(80.895110, 21.000000)"><path d="M77.5003309,139 C43.5889427,139 16,111.410983 16,77.4998346 C16,43.5886861 43.5889427,16 77.5003309,16 C111.411388,16 139,43.5886861 139,77.4998346 C139,111.410983 111.411388,139 77.5003309,139 Z M77.5003309,17.9851784 C44.6834348,17.9851784 17.9851731,44.6831811 17.9851731,77.4998346 C17.9851731,110.316488 44.6834348,137.014822 77.5003309,137.014822 C110.316896,137.014822 137.014827,110.316488 137.014827,77.4998346 C137.014827,44.6831811 110.316896,17.9851784 77.5003309,17.9851784 Z M77.5003309,108.22411 C60.5588639,108.22411 46.7761381,94.4413471 46.7761381,77.4998346 C46.7761381,60.5530282 60.5588639,46.7656333 77.5003309,46.7656333 C94.4417978,46.7656333 108.224524,60.5526973 108.224524,77.4998346 C108.224524,94.4413471 94.4417978,108.22411 77.5003309,108.22411 Z M77.5003309,48.7508117 C61.653356,48.7508117 48.7613112,61.6475232 48.7613112,77.4998346 C48.7613112,93.3468521 61.6536868,106.238932 77.5003309,106.238932 C93.3469749,106.238932 106.239351,93.3465212 106.239351,77.4998346 C106.239351,61.6475232 93.3469749,48.7508117 77.5003309,48.7508117 Z" id="Shape" fill="#00C8FF" fill-rule="nonzero"></path><path d="M95.0169138,55 C94.7977586,55 94.580569,54.925725 94.4030172,54.7826157 C89.4892241,50.8165386 83.4714655,48.7201363 77,48.7201363 C70.5285345,48.7201363 64.5104483,50.8165386 59.5966552,54.7826157 C59.3018276,55.0205803 58.8979138,55.0675122 58.5568966,54.9019285 C58.2165345,54.7366753 58,54.389313 58,54.0082391 L58,19.9660771 C58,19.545673 58.2627241,19.1708787 58.6555,19.0310744 C64.2244655,17.0480359 70.5675172,16 77,16 C83.4324828,16 89.7755345,17.0480359 95.3441724,19.0310744 C95.7372759,19.1708787 96,19.545673 96,19.9660771 L96,54.0082391 C96,54.389313 95.7834655,54.7370058 95.4431034,54.9019285 C95.3074828,54.9673688 95.1617069,55 95.0169138,55 Z M60,20.6864947 L60,52 C64.9385,48.5346198 70.7747308,46.71282 77,46.71282 C83.2252692,46.71282 89.0611731,48.5346198 94,52 L94,20.6864947 C88.8091154,18.9274017 82.9480385,18 77,18 C71.0519615,18 65.1912115,18.9274017 60,20.6864947 Z" id="Shape" fill="#00C8FF" fill-rule="nonzero"></path><path d="M135.033903,96 L100.991574,96 C100.610498,96 100.263134,95.7834655 100.09788,95.4431034 C99.9329569,95.1024138 99.979228,94.6985 100.217194,94.4033448 C104.18329,89.4895517 106.279703,83.4717931 106.279703,77 C106.279703,70.5285345 104.18329,64.5104483 100.217194,59.5966552 C99.9788975,59.3018276 99.9329569,58.8975862 100.09788,58.5568966 C100.263134,58.2165345 100.610498,58 100.991574,58 L135.033903,58 C135.453979,58 135.828775,58.2627241 135.968911,58.6555 C137.951959,64.2244655 139,70.5675172 139,77 C139,83.4321552 137.951959,89.7755345 135.968911,95.3441724 C135.828775,95.7372759 135.453979,96 135.033903,96 Z M103,94 L134.313531,94 C136.072277,88.8091154 137,82.9480385 137,77 C137,71.0519615 136.072277,65.1908846 134.313531,60 L103,60 C106.465347,64.9385 108.287129,70.7747308 108.287129,77 C108.287129,83.2252692 106.465347,89.0611731 103,94 Z" id="Shape" fill="#00C8FF" fill-rule="nonzero"></path><path d="M77.0001638,139 C70.5679532,139 64.2245192,137.951956 58.6555057,135.968903 C58.2627264,135.828768 58,135.453971 58,135.033894 L58,100.991482 C58,100.610405 58.2165363,100.263041 58.5569014,100.097786 C58.8975939,99.9328622 59.3015112,99.9791334 59.5966689,100.2171 C64.5105044,104.183206 70.5286425,106.279624 77.0001638,106.279624 C83.4716851,106.279624 89.4894956,104.183206 94.4033311,100.2171 C94.6984888,99.9788029 95.1027336,99.9331927 95.4430986,100.097786 C95.7834637,100.263041 96,100.610405 96,100.991482 L96,135.033894 C96,135.453971 95.7372736,135.828768 95.3441668,135.968903 C89.7758084,137.951956 83.432702,139 77.0001638,139 Z M59.9655342,134.326605 C65.1669928,136.087887 71.040009,137.016947 77.0001638,137.016947 C82.9603186,137.016947 88.8333348,136.087887 94.0347934,134.326605 L94.0347934,102.967925 C89.0862335,106.438268 83.2381141,108.262677 77.0001638,108.262677 C70.7622135,108.262677 64.9140941,106.438268 59.9655342,102.967925 L59.9655342,134.326605 Z" id="Shape" fill="#00C8FF" fill-rule="nonzero"></path><path d="M54.0086426,96 C54.0063294,96 54.0043467,96 54.0020336,96 L19.9654296,96 C19.5450941,96 19.170361,95.7372759 19.0305796,95.3441724 C17.0478648,89.7755345 16,83.4321552 16,77 C16,70.5678448 17.0478648,64.2244655 19.0305796,58.6555 C19.170361,58.2627241 19.5450941,58 19.9654296,58 L54.0020336,58 C54.3830452,58 54.7306812,58.2165345 54.895577,58.5568966 C55.0608033,58.8975862 55.0142095,59.3015 54.7762837,59.5966552 C50.8108541,64.5104483 48.7147941,70.5285345 48.7147941,77 C48.7147941,83.4390345 50.7897051,89.4292759 54.7168022,94.3293103 C54.891942,94.5065345 55,94.7492759 55,95.0172414 C55,95.5600517 54.5562023,96 54.0086426,96 Z M20.6725979,94.0344828 L52.0255974,94.0344828 C48.5558465,89.0859655 46.7317489,83.2378966 46.7317489,77 C46.7317489,70.7621034 48.5558465,64.9140345 52.0255974,59.9655172 L20.6725979,59.9655172 C18.9112862,65.166931 17.9827148,71.0398966 17.9827148,77 C17.9827148,82.9601034 18.9116167,88.833069 20.6725979,94.0344828 Z" id="Shape" fill="#00C8FF" fill-rule="nonzero"></path><circle id="Oval" fill="#00C8FF" cx="77.5" cy="77.5" r="30.5"></circle><path d="M29.4090594,41 C29.138721,41 28.8782688,40.8929545 28.6859979,40.7003409 C27.003968,39.0186364 26,36.7089773 26,34.5227273 C26,29.9030682 29.9030321,26 34.5226485,26 C36.7092192,26 39.018516,27.0039773 40.700205,28.6860227 C40.9098622,28.8956818 41.0182703,29.1857955 40.997475,29.4817045 C40.9763388,29.7772727 40.8280447,30.0496591 40.5907742,30.2272727 C36.550357,33.2576136 33.2575465,36.5504545 30.2272336,40.5909091 C30.0496217,40.8281818 29.7772378,40.9764773 29.4816724,40.9976136 C29.457468,40.9989773 29.4332637,41 29.4090594,41 Z M34.5226485,28.0454545 C31.0116582,28.0454545 28.0454356,31.0117045 28.0454356,34.5227273 C28.0454356,35.8007955 28.5363402,37.1906818 29.3678098,38.3514773 C32.0207398,34.9764773 34.9760534,32.0211364 38.3513631,29.3678409 C37.1905784,28.5363636 35.8007049,28.0454545 34.5226485,28.0454545 Z" id="Shape" fill="#00C8FF" fill-rule="nonzero"></path><path d="M124.590881,41 C124.567017,41 124.542471,40.9993182 124.518266,40.9976136 C124.222696,40.9764773 123.950648,40.8281818 123.772351,40.5909091 C120.741985,36.5504545 117.449116,33.2576136 113.408969,30.2272727 C113.171694,30.0496591 113.023398,29.7772727 113.002602,29.4817045 C112.981465,29.1857955 113.089875,28.8956818 113.299536,28.6860227 C114.981596,27.0039773 117.290592,26 119.477202,26 C124.09724,26 128,29.9030682 128,34.5227273 C128,36.7093182 126.996014,39.0186364 125.313955,40.7003409 C125.12134,40.8929545 124.861224,41 124.590881,41 Z M115.64842,29.3678409 C119.023107,32.0207955 121.978813,34.9761364 124.63179,38.3514773 C125.463274,37.1906818 125.954528,35.8007955 125.954528,34.5227273 C125.954528,31.0117045 122.988254,28.0454545 119.477202,28.0454545 C118.199123,28.0454545 116.809566,28.5363636 115.64842,29.3678409 Z" id="Shape" fill="#00C8FF" fill-rule="nonzero"></path><path d="M119.477202,130 C117.290592,130 114.981255,128.996014 113.299536,127.313955 C113.089875,127.104635 112.981465,126.814178 113.002602,126.518266 C113.023739,126.222696 113.171694,125.950648 113.408969,125.772351 C117.449457,122.741985 120.742326,119.449116 123.772351,115.408969 C123.950307,115.171694 124.222355,115.023398 124.518266,115.002602 C124.816564,114.981465 125.104635,115.089875 125.313955,115.299536 C126.996014,116.981596 128,119.290592 128,121.477202 C128,126.09724 124.09724,130 119.477202,130 Z M115.64842,126.63179 C116.809225,127.463274 118.198782,127.954528 119.476861,127.954528 C122.987913,127.954528 125.954187,124.988254 125.954187,121.477202 C125.954187,120.199123 125.463274,118.809566 124.631449,117.64876 C121.979154,121.023448 119.023448,123.979154 115.64842,126.63179 Z" id="Shape" fill="#00C8FF" fill-rule="nonzero"></path><path d="M34.5226049,128 C29.9030121,128 26,124.09724 26,119.477202 C26,117.290592 27.0039629,114.981255 28.6859841,113.299536 C28.8956402,113.089875 29.1840452,112.981465 29.4816545,113.002602 C29.7772185,113.023739 30.0496009,113.171694 30.227212,113.408969 C33.2575094,117.449457 36.550303,120.742326 40.5906995,123.772351 C40.8279688,123.950307 40.9762622,124.222355 40.9973982,124.518266 C41.0185343,124.814178 40.9101268,125.104635 40.7001298,125.313955 C39.0184494,126.996014 36.7091644,128 34.5226049,128 Z M29.3681334,115.64842 C28.5366681,116.809225 28.0457661,118.198782 28.0457661,119.476861 C28.0457661,122.987913 31.0119735,125.954187 34.5229458,125.954187 C35.8009956,125.954187 37.190862,125.463274 38.3516408,124.631449 C34.9763483,121.979154 32.0210499,119.023448 29.3681334,115.64842 Z" id="Shape" fill="#00C8FF" fill-rule="nonzero"></path><path d="M78.6063881,154 C78.0682712,154 77.6266716,153.569681 77.6154333,153.029303 C77.6038644,152.481985 78.0381922,152.028531 78.5858948,152.016963 C79.1299614,152.005395 79.6727058,151.98854 80.2137976,151.966065 C80.7532367,151.935659 81.2229321,152.367961 81.2457393,152.915279 C81.2685464,153.462266 80.8438043,153.924314 80.2964323,153.947119 C79.7417884,153.970254 79.1858224,153.987771 78.6278732,153.999339 C78.6206013,154 78.61366,154 78.6063881,154 Z M72.6623116,153.893247 C72.6434709,153.893247 72.6249607,153.892586 72.6057895,153.891594 C72.0475097,153.860196 71.4905521,153.822518 70.9352471,153.779222 C70.3891973,153.736256 69.9813126,153.259005 70.0242826,152.713009 C70.0669221,152.167013 70.5442199,151.761151 71.0902698,151.801804 C71.631031,151.844439 72.1731144,151.880795 72.717181,151.911532 C73.2638919,151.942269 73.6823539,152.410596 73.6516138,152.956923 C73.6218653,153.485071 73.1845627,153.893247 72.6623116,153.893247 Z M86.1796897,153.468546 C85.6848734,153.468546 85.2571563,153.09904 85.1963372,152.595349 C85.1308906,152.051336 85.518943,151.55756 86.0623485,151.49245 C86.6031097,151.427671 87.1422183,151.356942 87.6793436,151.280265 C88.222088,151.201274 88.7235152,151.579703 88.8008612,152.122064 C88.8782073,152.664425 88.5013932,153.166133 87.9589793,153.243471 C87.4076408,153.321801 86.8543191,153.394513 86.2993447,153.461275 C86.2593495,153.466233 86.2193544,153.468546 86.1796897,153.468546 Z M65.1088423,153.088134 C65.0576089,153.088134 65.0057143,153.084167 64.9534892,153.076235 C64.4014896,152.988982 63.8514733,152.89644 63.3031097,152.797949 C62.7640012,152.701111 62.4053667,152.185521 62.5022145,151.646796 C62.5987318,151.108071 63.1133805,150.748481 63.6531501,150.84598 C64.1876311,150.941827 64.7237648,151.032385 65.2618817,151.116995 C65.8029735,151.202265 66.1721852,151.709923 66.0872368,152.250961 C66.0102212,152.73978 65.5884539,153.088134 65.1088423,153.088134 Z M93.6670512,152.186182 C93.2128911,152.186182 92.8036843,151.872201 92.7002257,151.410484 C92.5809012,150.876056 92.917059,150.345924 93.45154,150.226611 C93.9830462,150.10796 94.5122386,149.983359 95.0391172,149.853139 C95.572276,149.721598 96.1080792,150.046816 96.2396336,150.57827 C96.3705269,151.109724 96.0459379,151.647127 95.5144318,151.778668 C94.97334,151.911862 94.430265,152.039768 93.8842151,152.161725 C93.8111661,152.17792 93.7387781,152.186182 93.6670512,152.186182 Z M57.6730449,151.532441 C57.5897491,151.532441 57.5051312,151.521865 57.4205133,151.49939 C56.8797521,151.357603 56.3416352,151.210198 55.805832,151.056512 C55.279284,150.906132 54.9745273,150.357161 55.1252529,149.830665 C55.2759786,149.303838 55.8253338,148.999442 56.3515513,149.150153 C56.8734719,149.299211 57.3977062,149.442981 57.9239237,149.581463 C58.4537772,149.720606 58.7704332,150.262636 58.6312764,150.792107 C58.5145963,151.23796 58.1126613,151.532441 57.6730449,151.532441 Z M100.989143,150.157205 C100.573326,150.157205 100.185935,149.893792 100.047769,149.477354 C99.8755587,148.957798 100.157178,148.396268 100.676784,148.224075 C101.193416,148.052542 101.706743,147.875721 102.217756,147.693612 C102.732404,147.508859 103.300931,147.778552 103.485041,148.293811 C103.669481,148.809731 103.400423,149.37688 102.884783,149.560972 C102.359557,149.748369 101.831686,149.930147 101.301172,150.106307 C101.197713,150.14068 101.092602,150.157205 100.989143,150.157205 Z M50.4302819,149.236415 C50.3152545,149.236415 50.1979133,149.215924 50.0838774,149.173619 C49.5586515,148.977629 49.0364005,148.77635 48.5164632,148.568792 C48.0077642,148.365862 47.7601907,147.789128 47.9631415,147.28048 C48.1660922,146.772161 48.7425516,146.524612 49.2515811,146.727212 C49.7573053,146.928821 50.2660042,147.125142 50.7773475,147.315844 C51.2903435,147.507207 51.5511385,148.078321 51.3597566,148.591267 C51.2106837,148.989857 50.8322169,149.236415 50.4302819,149.236415 Z M108.064984,147.405411 C107.686187,147.405411 107.324908,147.187277 107.159639,146.819754 C106.935534,146.320029 107.158647,145.73338 107.658422,145.508967 C108.153238,145.286866 108.64541,145.06047 109.134607,144.827793 C109.629754,144.593465 110.220757,144.803666 110.45577,145.298104 C110.690783,145.792871 110.4799,146.384147 109.985414,146.619137 C109.483326,146.857432 108.978263,147.090439 108.470555,147.318157 C108.33834,147.377318 108.200505,147.405411 108.064984,147.405411 Z M43.4466613,146.220216 C43.2995716,146.220216 43.1498376,146.187165 43.0086976,146.117428 C42.5066094,145.869879 42.0078266,145.617042 41.5123491,145.359247 C41.0264573,145.10608 40.8377198,144.507533 41.0905818,144.021689 C41.3434439,143.536175 41.9427105,143.347126 42.4279412,143.600294 C42.9108582,143.851809 43.39675,144.098036 43.8859472,144.338975 C44.3771276,144.580905 44.5787562,145.175486 44.3364714,145.666949 C44.1639302,146.016955 43.8122371,146.220216 43.4466613,146.220216 Z M114.826483,143.959223 C114.483053,143.959223 114.149209,143.780419 113.96576,143.461481 C113.692735,142.986544 113.856352,142.380395 114.331006,142.107728 C114.801693,141.837374 115.269074,141.562062 115.73315,141.281462 C116.201193,140.998549 116.811368,141.14926 117.094639,141.617918 C117.37758,142.086575 117.226855,142.696029 116.758151,142.979273 C116.281845,143.266813 115.801903,143.549396 115.318986,143.82669 C115.163963,143.916588 114.994066,143.959223 114.826483,143.959223 Z M36.8034955,142.519869 C36.624013,142.519869 36.4425473,142.471615 36.2789307,142.369158 C35.8049383,142.073025 35.3342512,141.771934 34.8672001,141.466215 C34.4090735,141.166116 34.2811551,140.551044 34.5812842,140.093293 C34.8814133,139.635211 35.4962152,139.507636 35.9540112,139.807405 C36.4091629,140.105522 36.8679506,140.399011 37.3300436,140.687873 C37.7944504,140.978058 37.9359209,141.589825 37.645708,142.054186 C37.457301,142.354616 37.1340342,142.519869 36.8034955,142.519869 Z M121.212159,139.853345 C120.903106,139.853345 120.59901,139.709245 120.405314,139.439221 C120.086345,138.994029 120.188811,138.374661 120.633717,138.055722 C121.075316,137.739098 121.51361,137.418176 121.948599,137.092958 C122.386563,136.764435 123.008306,136.853672 123.336531,137.292584 C123.664756,137.730835 123.575511,138.352517 123.136886,138.680379 C122.690989,139.01419 122.241787,139.343374 121.788619,139.667601 C121.613764,139.793193 121.411804,139.853345 121.212159,139.853345 Z M30.5652396,138.176357 C30.3533643,138.176357 30.1398363,138.108934 29.9593622,137.96913 C29.5177626,137.627717 29.0797989,137.281347 28.6458016,136.930349 C28.2197373,136.586292 28.153299,135.961966 28.4977203,135.535944 C28.841811,135.109921 29.4661986,135.043159 29.8922629,135.388207 C30.3153524,135.729951 30.7424083,136.067398 31.1731002,136.400548 C31.6064363,136.735681 31.6857656,137.358355 31.3509299,137.791648 C31.1549205,138.044155 30.8614022,138.176357 30.5652396,138.176357 Z M127.159541,135.131404 C126.884202,135.131404 126.610186,135.017379 126.414176,134.793957 C126.052567,134.382808 126.093223,133.756168 126.504744,133.394925 C126.912959,133.035995 127.317539,132.673099 127.717821,132.305907 C128.121409,131.93574 128.74844,131.962842 129.118974,132.36639 C129.489178,132.770268 129.462073,133.397238 129.058486,133.767405 C128.647296,134.144513 128.23247,134.516993 127.813016,134.884847 C127.62527,135.0501 127.39191,135.131404 127.159541,135.131404 Z M24.791721,133.235951 C24.5471224,133.235951 24.3025238,133.146384 24.1108113,132.965267 C23.7052404,132.58188 23.3039665,132.194196 22.9069896,131.801885 C22.5172845,131.417176 22.513318,130.789545 22.898065,130.399878 C23.2831426,130.009881 23.9108355,130.006245 24.30021,130.390954 C24.6872707,130.772689 25.078298,131.150788 25.4729611,131.52393 C25.8709297,131.900376 25.8887787,132.527677 25.5126258,132.925606 C25.317608,133.131511 25.0548297,133.235951 24.791721,133.235951 Z M132.610785,129.841323 C132.36883,129.841323 132.125884,129.753078 131.934833,129.574935 C131.53422,129.201132 131.512405,128.573832 131.886244,128.173589 C132.256778,127.77599 132.623676,127.374425 132.985946,126.968894 C133.350861,126.560058 133.977562,126.524694 134.385777,126.889903 C134.794323,127.254782 134.82969,127.881421 134.464776,128.289596 C134.09292,128.706034 133.716767,129.117845 133.336317,129.525689 C133.141299,129.735561 132.876207,129.841323 132.610785,129.841323 Z M19.5384702,127.748227 C19.2608177,127.748227 18.9848179,127.63222 18.7888085,127.406153 C18.4235633,126.985089 18.0629456,126.559397 17.7069555,126.1304 C17.3572456,125.709004 17.415751,125.084017 17.8371877,124.734011 C18.2586245,124.384997 18.8840037,124.442835 19.233383,124.864561 C19.5804486,125.282982 19.9314806,125.697437 20.2871402,126.107595 C20.6457747,126.521388 20.6011519,127.147367 20.1873176,127.505966 C19.9999021,127.668575 19.7685251,127.748227 19.5384702,127.748227 Z M137.512012,124.03466 C137.30212,124.03466 137.091236,123.968559 136.911753,123.831729 C136.476104,123.499901 136.392147,122.877558 136.724338,122.442282 C137.053885,122.009319 137.379135,121.573381 137.699758,121.133477 C138.022363,120.690599 138.642784,120.59343 139.085045,120.916004 C139.527306,121.238578 139.625145,121.858608 139.30254,122.301155 C138.973654,122.752627 138.63981,123.200132 138.301338,123.644002 C138.10632,123.900144 137.811149,124.03466 137.512012,124.03466 Z M14.8563902,121.76871 C14.5450228,121.76871 14.2382829,121.622626 14.0452483,121.348637 C13.7239648,120.89353 13.4079698,120.434787 13.0966024,119.97307 C12.7905236,119.518955 12.9105092,118.902891 13.3646693,118.596843 C13.8188294,118.290463 14.4349534,118.410768 14.7413627,118.864883 C15.0447972,119.315032 15.3531898,119.762207 15.6658794,120.205747 C15.9815438,120.653252 15.8747798,121.271959 15.4272304,121.587593 C15.2533671,121.70988 15.0537218,121.76871 14.8563902,121.76871 Z M141.812981,117.767933 C141.635812,117.767933 141.456329,117.72034 141.294365,117.621188 C140.827975,117.334309 140.682208,116.723534 140.969446,116.256859 C141.254701,115.79382 141.534998,115.327145 141.810336,114.856835 C142.086667,114.384211 142.694197,114.224577 143.166867,114.502202 C143.639537,114.778836 143.798196,115.386306 143.521535,115.858599 C143.239255,116.341138 142.951025,116.820042 142.658829,117.296301 C142.471083,117.600367 142.146164,117.767933 141.812981,117.767933 Z M10.7937396,115.354908 C10.4479962,115.354908 10.1118384,115.17346 9.92971161,114.851216 C9.65569507,114.367025 9.38696714,113.879859 9.12352784,113.389057 C8.86438554,112.906849 9.04519018,112.305658 9.52777661,112.046211 C10.0100325,111.786763 10.6109518,111.967881 10.8707551,112.45042 C11.1275837,112.928001 11.3893703,113.403269 11.656115,113.875232 C11.925504,114.351822 11.7579209,114.956648 11.2809536,115.226341 C11.1265921,115.313264 10.959009,115.354908 10.7937396,115.354908 Z M145.468407,111.101955 C145.323632,111.101955 145.176211,111.069896 145.036724,111.002472 C144.543891,110.763847 144.337965,110.170919 144.576284,109.678134 C144.81361,109.187663 145.045979,108.694548 145.273059,108.198458 C145.5008,107.700385 146.088498,107.48126 146.587611,107.70964 C147.085733,107.937358 147.304219,108.52599 147.076478,109.024063 C146.843448,109.533042 146.60513,110.038716 146.361523,110.541747 C146.190304,110.895719 145.836628,111.101955 145.468407,111.101955 Z M7.393158,108.570939 C7.01204694,108.570939 6.64845442,108.34983 6.48483779,107.978341 C6.26106312,107.470023 6.04290761,106.958399 5.83004072,106.444462 C5.62047922,105.938788 5.86045028,105.358749 6.36650495,105.148878 C6.87189855,104.939337 7.45232442,105.179285 7.66221646,105.685289 C7.86979474,106.186006 8.08233109,106.684079 8.3004866,107.179508 C8.52095588,107.680886 8.29354529,108.265881 7.79211815,108.486329 C7.66188592,108.543837 7.52636508,108.570939 7.393158,108.570939 Z M148.437306,104.100182 C148.3236,104.100182 148.208573,104.080352 148.095859,104.039038 C147.581541,103.85065 147.317771,103.280857 147.506509,102.76659 C147.693924,102.255297 147.87539,101.74136 148.051237,101.224779 C148.227744,100.707206 148.78966,100.429581 149.309928,100.606071 C149.828212,100.782561 150.105204,101.346074 149.928696,101.864638 C149.747561,102.395431 149.561137,102.924241 149.368433,103.449746 C149.221013,103.851311 148.841554,104.100182 148.437306,104.100182 Z M4.69067399,101.483565 C4.2725426,101.483565 3.88382915,101.216846 3.74764722,100.797765 C3.57543659,100.267633 3.40917564,99.7351873 3.24820332,99.2004284 C3.09053638,98.6759151 3.38769063,98.1229783 3.91225547,97.9653269 C4.43648977,97.807345 4.98981147,98.105131 5.14747841,98.6293137 C5.30415373,99.1505219 5.46644821,99.6694166 5.6340313,100.185998 C5.80293655,100.706875 5.5176817,101.266092 4.99675278,101.43498 C4.89494688,101.467701 4.79181882,101.483565 4.69067399,101.483565 Z M150.686291,96.8376399 C150.605309,96.8376399 150.523005,96.8277247 150.4407,96.8065724 C149.910186,96.6713953 149.589563,96.1313483 149.724754,95.6008859 C149.858952,95.0750506 149.987532,94.5469018 150.110492,94.0164395 C150.234114,93.4830025 150.76562,93.1508439 151.300762,93.2744532 C151.834251,93.398393 152.166443,93.9308384 152.042821,94.4646058 C151.916555,95.0089494 151.78434,95.5509795 151.646836,96.0910265 C151.531809,96.5391929 151.128882,96.8376399 150.686291,96.8376399 Z M2.71107801,94.1496334 C2.2542736,94.1496334 1.84341406,93.832017 1.74293031,93.3676559 C1.62525855,92.8233123 1.5128754,92.2763246 1.4067725,91.7273539 C1.30298336,91.1896204 1.65434595,90.6697342 2.19213233,90.5656248 C2.72793548,90.4618459 3.24985601,90.8131739 3.35397569,91.3509074 C3.45743429,91.8850053 3.56651204,92.4177812 3.68153949,92.9479131 C3.79755856,93.4830025 3.45743429,94.0108209 2.92229221,94.126498 C2.8512264,94.1423623 2.78049113,94.1496334 2.71107801,94.1496334 Z M152.192225,89.3919975 C152.142974,89.3919975 152.093063,89.3883619 152.043152,89.3810908 C151.501399,89.2994557 151.128551,88.7941118 151.210194,88.2527428 C151.291176,87.7163313 151.366209,87.1782673 151.435291,86.6382202 C151.504704,86.0951986 151.998529,85.710159 152.544579,85.7805568 C153.087984,85.8499631 153.47174,86.3467138 153.402327,86.8897354 C153.331261,87.4446552 153.254576,87.9972615 153.171611,88.5482153 C153.09757,89.0393474 152.674481,89.3919975 152.192225,89.3919975 Z M1.47816885,86.654415 C0.980708177,86.654415 0.551669008,86.2809431 0.494155283,85.7746077 C0.431352939,85.2213404 0.374500291,84.6664206 0.323597339,84.1095177 C0.274016541,83.5645131 0.675621002,83.0819741 1.22100978,83.0320677 C1.76705963,82.9795172 2.24898498,83.3837262 2.29889632,83.9293919 C2.34814657,84.4717525 2.40367707,85.01213 2.46482672,85.5511855 C2.52663745,86.0951986 2.13527968,86.5863308 1.59121306,86.6478049 C1.55320112,86.6527625 1.51551971,86.654415 1.47816885,86.654415 Z M152.944861,81.8339829 C152.927673,81.8339829 152.910816,81.8336524 152.893958,81.8326609 C152.346917,81.8048984 151.925811,81.3392152 151.953576,80.792558 C151.981011,80.251189 152.001834,79.7084979 152.017039,79.1638237 C152.032244,78.6257597 152.473183,78.2000678 153.007664,78.2000678 C153.017249,78.2000678 153.026835,78.2000678 153.03609,78.2003983 C153.583462,78.2159321 154.014815,78.6720306 153.99961,79.2193488 C153.983744,79.7785652 153.962259,80.3364595 153.934163,80.8927014 C153.90739,81.4225027 153.469426,81.8339829 152.944861,81.8339829 Z M0.998887803,79.0739261 C0.457796031,79.0739261 0.0152047779,78.6393105 0.00760238897,78.0962889 C0.00231377056,77.7340542 0,77.3714889 0,77.0082627 C0,76.812603 0.000661077301,76.6172739 0.0019832319,76.4222753 C0.00628023436,75.8746266 0.467381652,75.4337314 1.00087103,75.4379968 C1.54857358,75.4423245 1.9891816,75.8894993 1.98521514,76.4368175 C1.98389298,76.6268586 1.9832319,76.8172301 1.9832319,77.0076016 C1.9832319,77.3612432 1.98587621,77.7152153 1.99050375,78.0681959 C1.99810614,78.615514 1.56047297,79.0659939 1.01277043,79.0735956 C1.00847342,79.0739261 1.00351534,79.0739261 0.998887803,79.0739261 Z M152.947175,74.2366381 C152.421288,74.2366381 151.982994,73.8238359 151.957542,73.2933736 C151.931099,72.7493604 151.898376,72.2066694 151.860364,71.6656308 C151.821691,71.1193041 152.233212,70.6453583 152.779592,70.6066891 C153.318039,70.5673589 153.799634,70.9795 153.838307,71.5258267 C153.877641,72.0814075 153.911026,72.6383104 153.93813,73.1971963 C153.964904,73.744184 153.543136,74.2092061 152.995764,74.2356466 C152.979568,74.2363076 152.963371,74.2366381 152.947175,74.2366381 Z M1.26860734,71.4828609 C1.24051156,71.4828609 1.21241577,71.4818694 1.18365891,71.4792253 C0.637939596,71.4329545 0.233029749,70.9530595 0.27930516,70.4073939 C0.326572187,69.8501605 0.37978891,69.2949102 0.438955328,68.7409819 C0.497130131,68.1966383 0.984013563,67.8003614 1.53039395,67.8605135 C2.07479111,67.9186826 2.46912372,68.4071707 2.41094892,68.9518448 C2.35343519,69.4912309 2.30121009,70.0322694 2.25526521,70.5749605 C2.21163411,71.0922026 1.77829794,71.4828609 1.26860734,71.4828609 Z M152.200158,66.6779625 C151.717571,66.6779625 151.294482,66.324982 151.220772,65.8328583 C151.14012,65.2944638 151.05385,64.7573913 150.96196,64.2226324 C150.869409,63.6829158 151.231679,63.1703008 151.771449,63.0777591 C152.309566,62.9835648 152.824215,63.3474521 152.916765,63.8871686 C153.010638,64.4358088 153.099553,64.9867626 153.182188,65.5393689 C153.26317,66.0807379 152.889992,66.5857513 152.34857,66.6667253 C152.298658,66.674327 152.248747,66.6779625 152.200158,66.6779625 Z M2.28831908,63.9562444 C2.22783051,63.9562444 2.16668086,63.9506258 2.10487013,63.9390581 C1.5667532,63.8385842 1.21175469,63.3206811 1.31256898,62.7822866 C1.4153665,62.2329854 1.52378318,61.6856672 1.63814955,61.1403321 C1.75053269,60.6042511 2.27675023,60.2615162 2.8118923,60.3732273 C3.34802599,60.4855994 3.69145565,61.0111041 3.57907251,61.5468546 C3.46768098,62.077978 3.36190862,62.6114149 3.26208594,63.1465044 C3.17250997,63.6234247 2.75636181,63.9562444 2.28831908,63.9562444 Z M150.702487,59.2313285 C150.259565,59.2313285 149.855978,58.932551 149.742272,58.4837236 C149.608074,57.9562358 149.468586,57.4310616 149.323149,56.9078703 C149.176721,56.3803825 149.485444,55.8337254 150.013314,55.6873111 C150.540854,55.5395749 151.087234,55.8495897 151.233993,56.377408 C151.383066,56.9144805 151.52652,57.453536 151.664024,57.9955661 C151.798884,58.5260284 151.477931,59.065745 150.947416,59.2005915 C150.865773,59.2214134 150.783469,59.2313285 150.702487,59.2313285 Z M4.05670086,56.5691015 C3.96415004,56.5691015 3.87027706,56.5558813 3.77706516,56.5287798 C3.25150871,56.3744334 2.95071854,55.8234797 3.10474955,55.2979749 C3.26208594,54.7618939 3.4250415,54.228457 3.59361621,53.6970031 C3.75888554,53.1748034 4.31650424,52.8856105 4.83875531,53.0518551 C5.36067584,53.2174387 5.64956662,53.7746721 5.48396675,54.2968718 C5.31968905,54.8144444 5.16103049,55.3343306 5.0079911,55.8565303 C4.88106426,56.2885018 4.48540949,56.5691015 4.05670086,56.5691015 Z M148.464079,51.9727526 C148.059169,51.9727526 147.67905,51.7228899 147.532621,51.3206639 C147.346528,50.8097014 147.154155,50.3010525 146.957484,49.7950476 C146.7585,49.2847461 147.011031,48.7099959 147.521383,48.5110312 C148.031074,48.3127275 148.606541,48.5649037 148.805195,49.0748747 C149.007485,49.5944303 149.204486,50.11663 149.395868,50.6411433 C149.583283,51.1557414 149.318522,51.7248729 148.803873,51.9122699 C148.69149,51.9532527 148.577124,51.9727526 148.464079,51.9727526 Z M6.56152276,49.3914996 C6.43724022,49.3914996 6.31064392,49.3680336 6.18834462,49.3181272 C5.68096779,49.1118914 5.43703027,48.5331751 5.64328638,48.0261787 C5.85450058,47.507284 6.07067286,46.9913639 6.29279483,46.4777574 C6.5106198,45.975388 7.09501214,45.7443642 7.59643927,45.9615068 C8.09918856,46.1789798 8.33023508,46.7626537 8.11307118,47.2653535 C7.8968989,47.7650788 7.68601525,48.2677787 7.4804202,48.7731226 C7.32407542,49.1581622 6.95288052,49.3914996 6.56152276,49.3914996 Z M145.509394,44.979573 C145.140844,44.979573 144.786506,44.7730067 144.615618,44.4190346 C144.379944,43.930877 144.138981,43.445694 143.89273,42.963155 C143.643834,42.4753279 143.837199,41.8781033 144.325074,41.6292322 C144.81361,41.3803611 145.410233,41.5737072 145.659128,42.0615342 C145.912321,42.5569629 146.159894,43.0553662 146.401849,43.556744 C146.639836,44.0498592 146.432919,44.6427872 145.939756,44.8807517 C145.800599,44.9478444 145.65384,44.979573 145.509394,44.979573 Z M9.77700275,42.4991244 C9.62032743,42.4991244 9.46166888,42.4621077 9.3139181,42.3837777 C8.83000952,42.1276355 8.64523841,41.5274363 8.90140586,41.0435753 C9.16319248,40.5491381 9.43026771,40.058006 9.70230102,39.5701789 C9.96871517,39.091606 10.5726093,38.9200733 11.0512292,39.1871223 C11.5295187,39.4538407 11.7010682,40.0576755 11.4343235,40.5359179 C11.1692315,41.0111857 10.9090976,41.4897586 10.6542523,41.9716366 C10.476092,42.3074308 10.1326623,42.4991244 9.77700275,42.4991244 Z M141.869833,38.3205352 C141.53632,38.3205352 141.21107,38.152638 141.023654,37.8475809 C140.739391,37.3845418 140.450831,36.9251382 140.157312,36.4690397 C139.86115,36.0086447 139.994026,35.3948948 140.454467,35.0987612 C140.914907,34.8022972 141.528387,34.9358217 141.82488,35.3962168 C142.126001,35.8642135 142.422494,36.3355152 142.713698,36.8104526 C143.000275,37.2771273 142.854177,37.8875721 142.387457,38.1741209 C142.225823,38.2732728 142.046671,38.3205352 141.869833,38.3205352 Z M13.6654594,35.9660094 C13.4767219,35.9660094 13.2863316,35.9121369 13.1170958,35.8000953 C12.661283,35.4966906 12.537331,34.8812882 12.8407655,34.4251897 C13.1501497,33.9601676 13.4644919,33.4984505 13.7837923,33.040369 C14.0968124,32.5908806 14.7149197,32.4804916 15.1641217,32.7931504 C15.6136542,33.1061397 15.7240542,33.7241862 15.4113646,34.173344 C15.1003277,34.6198578 14.7939184,35.0696767 14.4924671,35.5231311 C14.3010853,35.8106715 13.9864125,35.9660094 13.6654594,35.9660094 Z M137.581755,32.0541386 C137.282618,32.0541386 136.986455,31.9192921 136.791437,31.6624888 C136.462882,31.2298563 136.129368,30.8011898 135.791888,30.3761589 C135.451103,29.9474924 135.52283,29.3238273 135.951208,28.9830755 C136.379917,28.6423237 137.003974,28.713713 137.344429,29.1423795 C137.691164,29.5783171 138.032941,30.0185513 138.370421,30.4627515 C138.70162,30.8986891 138.617002,31.5207017 138.181022,31.8521994 C138.00187,31.9883679 137.790986,32.0541386 137.581755,32.0541386 Z M18.1849144,29.8546202 C17.9637841,29.8546202 17.7413315,29.7809173 17.5572215,29.629876 C17.133471,29.2828446 17.0716602,28.658188 17.4187258,28.2344791 C17.7724022,27.8028381 18.1310366,27.3748326 18.4936375,26.9511237 C18.8496276,26.5350165 19.4753373,26.4861016 19.891816,26.8423872 C20.3079642,27.1983423 20.3565533,27.824321 20.0005632,28.2404282 C19.6468869,28.6535609 19.2975075,29.0706596 18.9527557,29.491394 C18.7567463,29.7306804 18.4721525,29.8546202 18.1849144,29.8546202 Z M132.691105,26.2431796 C132.425022,26.2431796 132.16026,26.1370871 131.964581,25.9268852 C131.594378,25.5286253 131.220208,25.1349924 130.841742,24.7449952 C130.4603,24.3523539 130.469555,23.7243922 130.862566,23.3429881 C131.255246,22.961584 131.883599,22.9705077 132.264711,23.36381 C132.653093,23.7637224 133.03751,24.168262 133.417299,24.5764371 C133.790146,24.977341 133.767339,25.6046417 133.366396,25.9777831 C133.175014,26.1555954 132.93306,26.2431796 132.691105,26.2431796 Z M23.2881006,24.2241175 C23.0339164,24.2241175 22.7800627,24.1272792 22.5863671,23.9332721 C22.1993063,23.5459189 22.1996369,22.9179572 22.5870282,22.5309345 C22.9816913,22.1369712 23.3803209,21.7469739 23.7832475,21.3612733 C24.1789023,20.9825132 24.8065952,20.9963945 25.1853925,21.3916798 C25.5641898,21.7872957 25.5503072,22.4149269 25.1549829,22.7936869 C24.762303,23.1698029 24.373259,23.549885 23.9888426,23.9339331 C23.7954775,24.1276097 23.5416238,24.2241175 23.2881006,24.2241175 Z M127.246803,20.944505 C127.013774,20.944505 126.780083,20.86287 126.591676,20.6966254 C126.183791,20.3370347 125.77194,19.9820711 125.356122,19.6314041 C124.93733,19.2784235 124.884113,18.6527754 125.237459,18.2340241 C125.589813,17.8156033 126.216184,17.7620613 126.634646,18.1153724 C127.061702,18.4752936 127.48413,18.8395114 127.903253,19.2090172 C128.314113,19.5709215 128.353447,20.1975611 127.991837,20.6083803 C127.794836,20.8308109 127.521481,20.944505 127.246803,20.944505 Z M28.9234541,19.1290348 C28.636216,19.1290348 28.3512917,19.0050949 28.1552823,18.7651475 C27.8085472,18.3414386 27.8713496,17.716782 28.2951001,17.370081 C28.7264531,17.017431 29.1617725,16.6690775 29.6007278,16.3253511 C30.0317502,15.9879043 30.6551461,16.0639207 30.992626,16.4952313 C31.330106,16.9265418 31.2540821,17.5495459 30.8227292,17.8869927 C30.3950122,18.2217954 29.9706005,18.5612252 29.5501554,18.9049516 C29.3663759,19.0556624 29.1439234,19.1290348 28.9234541,19.1290348 Z M121.300744,16.2106655 C121.100768,16.2106655 120.898478,16.1501829 120.723292,16.0245905 C120.281032,15.7073046 119.835466,15.3946458 119.386594,15.0866141 C118.935078,14.7765993 118.820051,14.1595443 119.130096,13.7080729 C119.440141,13.2566015 120.057588,13.1419159 120.508773,13.4512697 C120.969544,13.7672335 121.426348,14.0878245 121.880178,14.4137036 C122.325083,14.7329725 122.426558,15.3526715 122.107258,15.7975328 C121.913562,16.0672258 121.609467,16.2106655 121.300744,16.2106655 Z M35.0341221,14.6199394 C34.7128386,14.6199394 34.3978352,14.464271 34.2071144,14.1767307 C33.9040105,13.7206322 34.0286236,13.1048992 34.4847669,12.8021556 C34.9485126,12.4941239 35.4158943,12.1913802 35.8869118,11.8932637 C36.3493354,11.6001047 36.9621541,11.7379258 37.2550113,12.2006344 C37.5478686,12.663343 37.4103645,13.2757709 36.9476104,13.5685993 C36.4888227,13.8591142 36.0333405,14.1542562 35.5814941,14.4540253 C35.4129194,14.5663974 35.2221986,14.6199394 35.0341221,14.6199394 Z M114.912423,12.0909064 C114.744509,12.0909064 114.574282,12.0482711 114.418268,11.9583734 C113.946259,11.6866973 113.471936,11.4196484 112.993646,11.158218 C112.513373,10.8951351 112.337527,10.2926224 112.600636,9.81239699 C112.863414,9.33184105 113.465655,9.15568127 113.946589,9.41909467 C114.436778,9.68779617 114.924322,9.96145526 115.408562,10.240733 C115.883215,10.5140615 116.046171,11.1205403 115.772815,11.5948166 C115.589036,11.9127635 115.255522,12.0909064 114.912423,12.0909064 Z M41.5609383,10.7427718 C41.2049482,10.7427718 40.861188,10.5507477 40.6833582,10.2142925 C40.4275213,9.73010095 40.6126229,9.1302323 41.0965315,8.87442054 C41.588373,8.61464271 42.0831894,8.35982247 42.5813111,8.11062084 C43.0711694,7.86538528 43.6668001,8.06368896 43.9120598,8.55316857 C44.1573194,9.04297868 43.9589962,9.63855075 43.4694685,9.88378631 C42.9842378,10.1267083 42.5023124,10.3745879 42.0233619,10.6274251 C41.8756111,10.7057551 41.7172831,10.7427718 41.5609383,10.7427718 Z M108.142661,8.62951549 C108.00681,8.62951549 107.868975,8.60142246 107.736759,8.54193136 C107.239629,8.31883971 106.740185,8.10070565 106.238097,7.88785969 C105.733695,7.67435272 105.498021,7.09266191 105.711219,6.58830953 C105.925077,6.08395715 106.508478,5.84863677 107.010897,6.06181323 C107.526867,6.27994729 108.039533,6.50369995 108.549554,6.73307122 C109.049328,6.95748489 109.272111,7.54446381 109.047676,8.04385859 C108.882406,8.41171194 108.521128,8.62951549 108.142661,8.62951549 Z M48.4391171,7.5388452 C48.0474288,7.5388452 47.6765644,7.30517736 47.5202197,6.9201377 C47.3139635,6.41281076 47.5582316,5.83442501 48.0656084,5.62851968 C48.5822403,5.41864827 49.1015166,5.21439547 49.6234371,5.01576128 C50.135772,4.82142367 50.7082649,5.07789644 50.9032828,5.58951995 C51.09797,6.10114347 50.8411415,6.67424112 50.3294677,6.86923975 C49.8207687,7.06291635 49.3150445,7.26188105 48.8119647,7.46613385 C48.6896654,7.51537927 48.5633996,7.5388452 48.4391171,7.5388452 Z M101.056243,5.86450106 C100.952454,5.86450106 100.846681,5.84797576 100.742892,5.81327261 C100.22593,5.64107891 99.7063229,5.47417331 99.1844024,5.31321681 C98.6611597,5.15159931 98.3676414,4.59667949 98.5296053,4.07348826 C98.6909082,3.55029703 99.2458826,3.25746858 99.7694558,3.41842507 C100.305589,3.58400865 100.839079,3.75521084 101.369924,3.93203163 C101.889531,4.10521685 102.170489,4.66674679 101.996956,5.18630245 C101.85846,5.60141817 101.47173,5.86450106 101.056243,5.86450106 Z M55.6121364,5.03889671 C55.1830972,5.03889671 54.787773,4.75829699 54.6611767,4.32566445 C54.5071457,3.80015967 54.8085969,3.24920593 55.3341534,3.09552057 C55.8689649,2.93886066 56.4060902,2.78781935 56.9455293,2.64239664 C57.4737301,2.49928748 58.0184577,2.81326832 58.1609199,3.34174765 C58.3033821,3.87055748 57.9900314,4.4145706 57.4611696,4.55701875 C56.9356131,4.69847538 56.4123704,4.84588112 55.891111,4.99824445 C55.7982296,5.02567646 55.7043567,5.03889671 55.6121364,5.03889671 Z M93.7321673,3.82759168 C93.6601099,3.82759168 93.5873914,3.81965954 93.5140118,3.80346473 C92.9841584,3.68448252 92.4523217,3.57111891 91.9188323,3.46370442 C91.3820375,3.3552984 91.0346414,2.83243768 91.1430581,2.29569569 C91.2511442,1.75895371 91.7740564,1.41258327 92.3111817,1.51966726 C92.8588842,1.63005631 93.4046035,1.74672498 93.9483396,1.86868175 C94.4828206,1.98865548 94.8186479,2.51911785 94.6986624,3.05321578 C94.5948732,3.51460236 94.1856664,3.82759168 93.7321673,3.82759168 Z M62.9996752,3.27267186 C62.5313019,3.27267186 62.1148232,2.93952167 62.0259084,2.4626013 C61.9254246,1.92453729 62.2807537,1.40663416 62.8192011,1.30616029 C63.3665731,1.20403389 63.9159284,1.1078566 64.4675974,1.01729792 C65.007367,0.928722272 65.5177187,1.29459258 65.6066336,1.83497013 C65.6955485,2.37534768 65.3293116,2.88531866 64.7888809,2.97422481 C64.2514251,3.06246995 63.7156219,3.1563337 63.1821326,3.25581605 C63.1213134,3.26738376 63.0601638,3.27267186 62.9996752,3.27267186 Z M86.2464585,2.5379567 C86.2064633,2.5379567 86.1664682,2.53564316 86.1258119,2.53068556 C85.5870339,2.46557585 85.0469338,2.40608475 84.5051809,2.35221225 C83.9604532,2.29833974 83.5621541,1.81282621 83.6163625,1.26782158 C83.6705708,0.722816943 84.1604291,0.323235011 84.7008598,0.37909055 C85.2571563,0.434285077 85.8114697,0.495428714 86.3647914,0.562521461 C86.9085274,0.628292185 87.2955882,1.12239887 87.229811,1.66608148 C87.1686614,2.16878133 86.7406138,2.5379567 86.2464585,2.5379567 Z M70.527693,2.25603496 C70.0180024,2.25603496 69.5843357,1.86537669 69.5407046,1.34813457 C69.4944292,0.802468924 69.899339,0.322573999 70.4450583,0.276633645 C70.9997022,0.229701772 71.5563293,0.18871901 72.1142785,0.153354852 C72.6599978,0.122948287 73.132007,0.534097933 73.166383,1.0807551 C73.2007591,1.62708176 72.7856025,2.09838352 72.2388916,2.13275616 C71.694825,2.1671288 71.1527416,2.20712005 70.6123109,2.25272989 C70.5838846,2.25504344 70.5557888,2.25603496 70.527693,2.25603496 Z M78.6681989,2.00055371 C78.6612576,2.00055371 78.6539857,2.00055371 78.6467139,2.00055371 C78.1042999,1.98898599 77.5608944,1.98303688 77.0158362,1.98303688 C76.4681336,1.98303688 76.0242202,1.53916712 76.0242202,0.99151844 C76.0242202,0.443869755 76.4681336,0 77.0158362,0 C77.5751076,0 78.1327263,0.00594911064 78.6893534,0.0178473319 C79.2367254,0.0297455532 79.6713837,0.48286948 79.6594843,1.03051816 C79.6475849,1.57056521 79.2059853,2.00055371 78.6681989,2.00055371 Z" id="Shape" fill="#00C8FF" fill-rule="nonzero"></path><g id="Group-14" transform="translate(65.000000, 61.000000)" stroke="#37474F" stroke-linecap="round" stroke-width="2"><path d="M14.5712261,0.555716995 C17.4598779,1.74410645 19.3476594,4.556196 19.3536499,7.67974251 C19.3536499,8.01136847 19.3337307,8.34269506 19.2941176,8.67194662" id="Path"></path></g></g><path d="M165.189227,90.6719466 C164.667867,94.7671287 161.009532,97.7223973 156.896266,97.3711499 C152.783,97.0199025 149.678703,93.4871471 149.859234,89.3628603 C150.039765,85.2385735 153.440875,81.9905775 157.5691,82 C158.561308,82.0002547 159.832201,82.2455022 160.754075,82.6124144 C162.636428,83.5535908 163.930546,84.8477085 164.636428,86.4947673" id="Path" stroke="#37474F" stroke-width="2" fill="#FFFFFF" stroke-linecap="round"></path><path d="M146,108.33318 C146,108.33318 146.138909,102.935589 149.571935,99.6017836 C151.117322,98.1278555 153.192577,97.3406898 155.326719,97.4189346 C156.576896,97.4586227 158.382707,97.4784668 160.406804,97.4387787 C162.323378,97.3709574 164.194741,98.0301876 165.645641,99.2842783 C167.451453,100.891649 169.356485,103.66982 169.356485,108.33318 C166.20978,110.715415 162.283487,111.906532 157.577605,111.906532 C152.871722,111.906532 149.012521,110.715415 146,108.33318 Z" id="Path" stroke="#37474F" stroke-width="2" fill="#FFFFFF" stroke-linecap="round"></path></g></g></g></svg> 