<?xml version="1.0" encoding="utf-8"?>
<!-- Generator: Adobe Illustrator 23.0.6, SVG Export Plug-In . SVG Version: 6.00 Build 0)  -->
<svg version="1.1" id="Layer_1" xmlns="http://www.w3.org/2000/svg" xmlns:xlink="http://www.w3.org/1999/xlink" x="0px" y="0px"
	 viewBox="0 0 29.2 36" style="enable-background:new 0 0 29.2 36;" xml:space="preserve">
<style type="text/css">
	.st0{fill:url(#SVGID_1_);}
	.st1{fill:url(#SVGID_2_);}
	.st2{fill:url(#SVGID_3_);}
	.st3{fill:url(#SVGID_4_);}
	.st4{fill:url(#SVGID_5_);}
	.st5{fill:url(#SVGID_6_);}
	.st6{fill:url(#SVGID_7_);}
	.st7{fill:url(#SVGID_8_);}
	.st8{fill:url(#SVGID_9_);}
	.st9{fill:url(#SVGID_10_);}
</style>
<linearGradient id="SVGID_1_" gradientUnits="userSpaceOnUse" x1="14.625" y1="36" x2="14.625" y2="0">
	<stop  offset="0" style="stop-color:#EC7032"/>
	<stop  offset="1" style="stop-color:#F1922F"/>
</linearGradient>
<path class="st0" d="M1.5,4.5H15v5.2h1.5V2.2c0-1.2-1-2.2-2.2-2.2h-12C1,0,0,1,0,2.2v21c0,1.2,1,2.2,2.2,2.2H12V24H2.2
	c-0.4,0-0.8-0.3-0.8-0.8v-0.8H12V21H1.5V4.5z M2.2,1.5h12c0.4,0,0.8,0.3,0.8,0.8V3H1.5V2.2C1.5,1.8,1.8,1.5,2.2,1.5z M27,10.5H15
	c-1.2,0-2.2,1-2.2,2.2v21c0,1.2,1,2.2,2.2,2.2h12c1.2,0,2.2-1,2.2-2.2v-21C29.2,11.5,28.2,10.5,27,10.5z M15,12h12
	c0.4,0,0.8,0.3,0.8,0.8v0.8H14.2v-0.8C14.2,12.3,14.6,12,15,12z M27.8,15v16.5H14.2V15H27.8z M27,34.5H15c-0.4,0-0.8-0.3-0.8-0.8V33
	h13.5v0.8C27.8,34.2,27.4,34.5,27,34.5z M11.2,17.2v-6.8c0-1.2-1-2.2-2.2-2.2H7.5c-1.2,0-2.2,1-2.2,2.2v6.8h1.5v-3h3v3H11.2z
	 M6.8,12.8v-2.2c0-0.4,0.3-0.8,0.8-0.8H9c0.4,0,0.8,0.3,0.8,0.8v2.2H6.8z M21.8,27.8c1.2,0,2.2-1,2.2-2.2v-0.8
	c0-0.6-0.2-1.1-0.6-1.5c0.4-0.4,0.6-0.9,0.6-1.5V21c0-1.2-1-2.2-2.2-2.2H18v9H21.8z M19.5,20.2h2.2c0.4,0,0.8,0.3,0.8,0.8v0.8
	c0,0.4-0.3,0.8-0.8,0.8h-2.2V20.2z M19.5,24h2.2c0.4,0,0.8,0.3,0.8,0.8v0.8c0,0.4-0.3,0.8-0.8,0.8h-2.2V24z"/>
</svg>
