<?xml version="1.0" encoding="UTF-8"?> <svg xmlns="http://www.w3.org/2000/svg" xmlns:xlink="http://www.w3.org/1999/xlink" width="334px" height="270px" viewBox="0 0 334 270" version="1.1"><title>533162A7-D4C6-4E75-9619-C64BFE016A6A</title><g id="Page-1" stroke="none" stroke-width="1" fill="none" fill-rule="evenodd"><g id="Mobile-App-Development-Services_UPD" transform="translate(-894.000000, -1991.000000)"><g id="Visual-Design" transform="translate(894.000000, 1991.000000)"><rect id="Rectangle" x="0" y="0" width="334" height="270"></rect><g id="Group-36" transform="translate(28.000000, 2.000000)"><path d="M134.220183,266 C207.674055,266 267.220183,206.453872 267.220183,133 C267.220183,59.5461283 207.674055,0 134.220183,0 C60.7663118,0 1.22018349,59.5461283 1.22018349,133 C1.22018349,206.453872 60.7663118,266 134.220183,266 Z" id="Oval" stroke="#37474F" stroke-width="3" stroke-linecap="round" stroke-dasharray="5,12"></path><circle id="Oval" fill="#00C8FF" cx="133" cy="133" r="109.816514"></circle><rect id="Rectangle" fill="#FFFFFF" fill-rule="nonzero" x="92.733945" y="41.4862385" width="80.5321101" height="173.266055" rx="10"></rect><line x1="119.577982" y1="204.990826" x2="146.422018" y2="204.990826" id="Path-61" stroke="#37474F" stroke-width="3" stroke-linecap="round"></line><g id="Group-8" transform="translate(98.834862, 87.853211)"><rect id="Rectangle" fill="#00C8FF" x="29.2844037" y="2.44036697" width="9.76146789" height="8.5412844"></rect><circle id="Oval" fill="#00C8FF" cx="6.71100917" cy="6.71100917" r="4.2706422"></circle><circle id="Oval" fill="#00C8FF" cx="62.8394495" cy="6.71100917" r="4.2706422"></circle><path d="M18.3900886,23.2027907 C18.3738984,17.0425651 22.1574166,11.4507241 28.0451784,8.93307543 L28.0451784,11.513675 C28.0451784,12.1765707 28.6079363,12.7139538 29.3021333,12.7139538 L40.1025186,12.7139538 C40.7967156,12.7139538 41.3594735,12.1765707 41.3594735,11.513675 L41.3594735,8.87186121 C47.3303946,11.3512549 51.1833196,16.9859835 51.1591132,23.2033909 C51.1591132,23.8662866 51.721871,24.4036697 52.4160681,24.4036697 C53.1102651,24.4036697 53.673023,23.8662866 53.673023,23.2033909 C53.685216,19.3096532 52.3671234,15.5183628 49.9187081,12.404682 C48.3689297,10.4350058 46.4169198,8.785926 44.1807089,7.55715576 L56.615764,7.55715576 C57.2673391,10.4311833 59.9397249,12.475382 63.0191114,12.4552937 C66.6204968,12.4552937 69.5504587,9.71965818 69.5504587,6.3568769 C69.5504587,2.99409562 66.6204968,0.258460048 63.0191114,0.258460048 C59.9397529,0.238448934 57.2674118,2.28261344 56.615764,5.15659804 L41.3594735,5.15659804 L41.3594735,1.20027886 C41.3594735,0.537383151 40.7967156,0 40.1025186,0 L29.3021333,0 C28.6079363,0 28.0451784,0.537383151 28.0451784,1.20027886 L28.0451784,5.15659804 L12.6516704,5.15659804 C12.0770325,2.29033211 9.48665785,0.120227933 6.38616902,0.120227933 C2.86480978,0.120227933 0,2.91807796 0,6.3568769 C0,9.79567584 2.86376232,12.5927257 6.38616902,12.5927257 C9.48665785,12.5927257 12.0780799,10.4228215 12.6527178,7.55635557 L25.3425158,7.55635557 C19.4733639,10.7698893 15.8599236,16.742364 15.8761787,23.2027907 C15.8761787,23.8656864 16.4389366,24.4030696 17.1331337,24.4030696 C17.8273307,24.4030696 18.3900886,23.8656864 18.3900886,23.2027907 L18.3900886,23.2027907 Z M63.0191114,2.65901777 C65.234285,2.65901777 67.0365489,4.31800321 67.0365489,6.3568769 C67.0365489,8.39575059 65.2349135,10.054736 63.0191114,10.054736 C60.8033094,10.054736 59.0018834,8.39595064 59.0018834,6.3568769 C59.0018834,4.31780316 60.8041473,2.65901777 63.0191114,2.65901777 Z M38.8455637,2.40055772 L38.8455637,6.69235484 C38.8369745,6.71395986 38.8277568,6.73516479 38.8202151,6.75756999 C38.7369158,7.01300098 38.7458424,7.28774256 38.8455637,7.53775125 L38.8455637,10.3133961 L30.5590883,10.3133961 L30.5590883,7.55755585 C30.6505858,7.31108755 30.6547811,7.04274509 30.5710294,6.7937784 C30.567468,6.78357603 30.5626497,6.77377376 30.5590883,6.76377143 L30.5590883,2.40055772 L38.8455637,2.40055772 Z M6.38616902,10.192168 C4.25102158,10.192168 2.51390986,8.47176825 2.51390986,6.35607671 C2.51390986,4.24038517 4.24934564,2.52078566 6.38616902,2.52078566 C8.5229924,2.52078566 10.2588472,4.24118536 10.2588472,6.3568769 C10.2588472,8.47256844 8.52047849,10.192168 6.38616902,10.192168 Z" id="Shape" fill="#37474F" fill-rule="nonzero"></path><polygon id="Path-5" fill="#FFD740" points="41.4862385 70.7706422 29.2844037 70.7706422 26.8440367 70.7706422 26.8440367 60.0705716 29.2844037 57.6927782 29.2844037 54.126088 23.1834862 42.2371207 34.1651376 24.4036697 47.587156 42.2371207 40.266055 57.6927782 41.4862385 58.8816749"></polygon><circle id="Oval" fill="#FFFFFF" cx="35.9954128" cy="43.3165138" r="3.05045872"></circle><path d="M19.792359,30.094281 C19.5231862,29.4510519 18.7180824,29.1234828 17.9941093,29.3626351 C17.2701362,29.6017873 16.9014478,30.3170986 17.1706205,30.9603278 C17.7404161,32.3210015 18.487152,33.6178838 19.3956485,34.8246112 C19.6713818,35.1978309 20.151278,35.4109361 20.6527641,35.3828523 C21.1542501,35.3547686 21.6002312,35.0898132 21.8210371,34.6887867 C22.0418429,34.2877602 22.0035284,33.8123133 21.72067,33.4433266 C20.9333835,32.3974624 20.2862318,31.2735043 19.792359,30.094281 L19.792359,30.094281 Z" id="Path" fill="#37474F" fill-rule="nonzero"></path><path d="M49.5818894,30.1507386 C49.1459714,31.3357874 48.5443568,32.4744459 47.7893219,33.5434792 C47.5230353,33.9207062 47.5195879,34.3871201 47.7802782,34.7670272 C48.0409685,35.1469344 48.5261914,35.3826179 49.0531683,35.3853211 C49.5801451,35.3879782 50.0688156,35.1572478 50.3351021,34.7800208 C51.206364,33.5463531 51.9006274,32.2323633 52.4037329,30.8648495 C52.5574274,30.4467162 52.4305267,29.9923295 52.0708332,29.6728526 C51.7111397,29.3533757 51.1732994,29.2173447 50.6599114,29.3160011 C50.1465235,29.4146575 49.7355839,29.7330131 49.5818894,30.1511464 L49.5818894,30.1507386 Z" id="Path" fill="#37474F" fill-rule="nonzero"></path><path d="M76.6729251,70.7706422 L85.015575,70.7706422 C89.7828035,69.1695549 92.5636868,66.3676521 93.3582249,62.3649337 C94.152763,58.3622154 94.152763,51.1573225 93.3582249,40.7502548 C92.5636868,37.5480802 89.7828035,35.1464492 85.015575,33.5453619 C80.2483465,31.9442745 75.0838489,33.5453619 69.5220824,38.3486239 C68.7275443,39.1491675 68.3302752,41.5507985 68.3302752,45.5535168 C68.3302752,49.5562351 68.3302752,55.9605844 68.3302752,64.7665647 L71.9056966,68.3690112 L76.6729251,70.7706422 Z" id="Path-11" fill="#D8D8D8"></path><path d="M84.6622216,32.9207731 L77.8518901,32.9207731 C72.0490323,32.9274681 67.3465885,37.6300671 67.3400093,43.4330011 L67.3400093,61.7007385 C67.3464734,67.5039517 72.049172,72.2068056 77.852309,72.2133854 L80.0009336,72.2133854 L80.0009336,88.0930561 C79.9780215,92.6473517 76.2796293,96.3272324 71.7253357,96.3272324 C67.1710421,96.3272324 63.47265,92.6473517 63.4497378,88.0930561 L63.4497378,80.52669 C63.4497379,77.2987569 61.7276787,74.3160236 58.9322431,72.7020569 C56.1368076,71.0880903 52.692689,71.0880903 49.8972535,72.7020569 C47.101818,74.3160236 45.3797588,77.2987569 45.3797589,80.52669 L45.3797589,83.4612411 C45.3797589,85.796865 43.4863864,87.6902622 41.1507931,87.6902622 C38.8151998,87.6902622 36.9218274,85.796865 36.9218274,83.4612411 L36.9218274,73.1959678 L42.8432172,73.1586837 C43.1765303,73.1565794 43.4953551,73.022148 43.7295503,72.7849643 C43.9637455,72.5477806 44.0941261,72.2272745 44.0920084,71.8939572 L44.0654072,67.6471318 L44.0119953,59.149292 C44.0085145,58.4868669 43.4903432,57.9414405 42.8289741,57.9040453 L42.8195484,56.4275534 L49.0599435,42.680826 C49.2330084,42.2991558 49.204657,41.8563649 48.984329,41.4998839 C46.8233429,38.0073753 45.7281694,36.2373939 45.6988086,36.1899396 C43.6568583,32.8896458 40.5939328,27.939205 36.5100321,21.3386174 C36.2810644,20.9685588 35.8769561,20.7431193 35.4417941,20.7431193 L35.4338347,20.7431193 C34.9959987,20.7461422 34.591296,20.9768257 34.3655967,21.3520229 L22.1430688,41.6685001 C21.9271065,42.0276004 21.9043265,42.4707168 22.0823258,42.8500706 L28.4942674,56.5172028 L28.503693,57.9939041 C27.8433866,58.0410064 27.3328277,58.5922487 27.3363811,59.254232 L27.4172321,71.9980594 C27.4216084,72.6890422 27.982995,73.2468807 28.6739827,73.2468669 L28.6819421,73.2468669 L34.4076978,73.2108396 L34.4076978,83.4604032 C34.4076978,87.1842137 37.4264031,90.2029585 41.1501647,90.2029585 C44.8739264,90.2029585 47.8926317,87.1842137 47.8926317,83.4604032 L47.8926317,80.5258522 C47.8926317,76.9240865 50.8124014,74.0042785 54.41412,74.0042785 C58.0158385,74.0042785 60.9356082,76.9240865 60.9356082,80.5258522 L60.9356082,88.0930561 C60.9617811,94.0332325 65.784551,98.8348624 71.7247073,98.8348624 C77.6648637,98.8348624 82.4876336,94.0332325 82.5138065,88.0930561 L82.5138065,72.2133854 L84.6622216,72.2133854 C90.4652768,72.2066902 95.1678481,67.50387 95.1743119,61.7007385 L95.1743119,43.4330011 C95.1677324,37.6299854 90.4651613,32.9273527 84.6622216,32.9207731 Z M31.0150996,57.4823999 L40.3119121,57.4239603 L40.315054,57.9159846 L31.018032,57.9744242 L31.0150996,57.4823999 Z M29.8586796,60.49508 L41.5060346,60.4219781 L41.5169265,62.156945 L29.8695714,62.2300469 L29.8586796,60.49508 Z M29.8852808,64.743581 L41.5326358,64.6704791 L41.5437371,66.4052365 L29.8963821,66.478129 L29.8852808,64.743581 Z M35.5873677,45.3305224 L35.5716583,45.3305224 C34.1903151,45.3348479 33.0669985,44.2185501 33.0626479,42.8371888 C33.0583225,41.4558274 34.1746057,40.3324961 35.5559489,40.3281455 L35.5716583,40.3281455 C36.9530015,40.32382 38.0763181,41.4401179 38.0806687,42.8214792 C38.0849942,44.2028405 36.9687109,45.3261718 35.5873677,45.3305224 L35.5873677,45.3305224 Z M34.2122731,26.4808892 L34.2845363,37.9803078 C31.8502827,38.6271207 30.2732981,40.979015 30.5991828,43.4765955 C30.9250676,45.9741761 33.0527298,47.8426747 35.5714489,47.8432061 L35.6032865,47.8432061 C38.1277765,47.8270602 40.2466645,45.9367164 40.5496206,43.430386 C40.8525768,40.9240556 39.2451318,38.5832744 36.7971996,37.9660644 L36.7249364,26.4647607 L46.4926115,42.25164 L40.7477951,54.9068653 L30.5457032,54.9709604 L24.6429552,42.3888371 L34.2122731,26.4808892 Z M29.9120915,68.9916631 L41.5594465,68.9187706 L41.5703384,70.6533186 L29.9229833,70.72663 L29.9120915,68.9916631 Z M77.8518901,69.7000608 C73.4363335,69.6948659 69.8582428,66.1163535 69.8535104,61.7007385 L69.8535104,59.9519472 L80.0009336,59.9519472 L80.0009336,69.6998513 L77.8518901,69.7000608 Z M84.6626405,69.7000608 L82.5140159,69.7000608 L82.5140159,59.9519472 L92.6612297,59.9519472 L92.6612297,61.7007385 C92.6563813,66.1165167 89.0779419,69.6950029 84.6622216,69.6998513 L84.6626405,69.7000608 Z M92.6612297,57.4386225 L69.8535104,57.4386225 L69.8535104,43.4330011 C69.8585894,39.0174682 73.4368338,35.4392706 77.852309,35.4343072 L84.6622216,35.4343072 C89.077615,35.439386 92.655732,39.0175498 92.6608107,43.4330011 L92.6612297,57.4386225 Z" id="Shape" fill="#37474F" fill-rule="nonzero"></path></g><polygon id="Path-64" fill="#FFFFFF" points="163.504587 119.021407 163.504587 147.278287 166.912686 170.825688 174.486239 170.825688 174.486239 117.137615 163.504587 117.137615"></polygon><polygon id="Path-64" fill="#00C8FF" points="173.266055 133 173.266055 161.06422 174.949067 186.688073 197.669725 186.688073 197.669725 117.137615 173.266055 117.137615"></polygon><rect id="Rectangle" stroke="#37474F" stroke-width="3" fill-rule="nonzero" x="92.733945" y="41.4862385" width="80.5321101" height="173.266055" rx="11.3"></rect><path d="M173.266055,185.46789 C180.023994,184.654434 183.402964,176.11315 183.402964,159.844037 C183.402964,135.440367 206.211009,140.321101 206.211009,148.862385 C206.211009,154.556575 206.211009,166.351682 206.211009,184.247706" id="Path-65" stroke="#37474F" stroke-width="2" stroke-linecap="round"></path><g id="Group-51" transform="translate(191.568807, 183.027523)" stroke="#37474F" stroke-width="2"><rect id="Rectangle" fill="#FFD740" x="1" y="1" width="28.5045872" height="44.3669725" rx="10"></rect><line x1="3.04293009" y1="21.3605582" x2="28.0566916" y2="20.7504665" id="Line-14" stroke-linecap="square" transform="translate(15.549811, 21.055512) rotate(1.397181) translate(-15.549811, -21.055512) "></line><line x1="15.2522936" y1="1.83027523" x2="15.2522936" y2="20.1330275" id="Line-15" stroke-linecap="square"></line></g><g id="Group-49" transform="translate(229.394495, 63.449541) scale(-1, 1) translate(-229.394495, -63.449541) translate(192.788991, 26.844037)" fill-rule="nonzero" stroke="#37474F" stroke-linecap="round" stroke-linejoin="round" stroke-width="3"><path d="M73.2110092,73.2110092 L62.7955411,52.9655832 L11.8847332,1.9972016 C11.8847332,1.9972016 8.42679785,-1.80142471 4.01063939,1.07885238 L0.511042127,4.54353352 C0.511042127,4.54353352 -1.44706587,7.92472837 2.30250263,11.9738136 L51.5884975,61.6899008 L73.2110092,73.2110092 Z" id="Path" fill="#FFD740"></path><line x1="6.10091743" y1="15.8623853" x2="15.8623853" y2="6.10091743" id="Path" fill="#FFFFFF"></line><line x1="8.5412844" y1="18.3027523" x2="18.3027523" y2="8.5412844" id="Path" fill="#FFFFFF"></line></g><g id="Group-50" transform="translate(-0.000000, 26.844037)" stroke="#37474F" stroke-linecap="round" stroke-linejoin="round" stroke-width="3"><rect id="Rectangle" fill="#FFD740" x="-3.12117304e-13" y="-1.21378952e-13" width="50.6845448" height="208.369795"></rect><line x1="16.8948483" y1="19.7106563" x2="50.6845448" y2="19.7106563" id="Path"></line><line x1="27.5010586" y1="36.6055046" x2="50.6845448" y2="36.6055046" id="Path"></line><line x1="16.5194072" y1="53.5003529" x2="50.3091037" y2="53.5003529" id="Path"></line><line x1="26.1870148" y1="70.3952011" x2="49.3705011" y2="70.3952011" id="Path"></line><line x1="16.2378264" y1="86.3514467" x2="50.0275229" y2="86.3514467" id="Path"></line><line x1="26.8440367" y1="103.246295" x2="50.0275229" y2="103.246295" id="Path"></line><line x1="15.8623853" y1="120.141143" x2="49.6520819" y2="120.141143" id="Path"></line><line x1="25.5299929" y1="137.035992" x2="48.7134792" y2="137.035992" id="Path"></line><line x1="16.8948483" y1="153.93084" x2="50.6845448" y2="153.93084" id="Path"></line><line x1="27.5010586" y1="170.825688" x2="50.6845448" y2="170.825688" id="Path"></line><line x1="16.5194072" y1="187.720536" x2="50.3091037" y2="187.720536" id="Path"></line></g><path d="M111.036697,41.4862385 L154.963303,41.4862385 L154.963303,47.0275229 C154.963303,48.6843772 153.620157,50.0275229 151.963303,50.0275229 L114.036697,50.0275229 C112.379843,50.0275229 111.036697,48.6843772 111.036697,47.0275229 L111.036697,41.4862385 L111.036697,41.4862385 Z" id="Rectangle" fill="#37474F"></path></g></g></g></g></svg> 