<?xml version="1.0" encoding="UTF-8"?> <svg xmlns="http://www.w3.org/2000/svg" xmlns:xlink="http://www.w3.org/1999/xlink" width="213px" height="198px" viewBox="0 0 213 198" version="1.1"><title>Group 42</title><g id="Page-1" stroke="none" stroke-width="1" fill="none" fill-rule="evenodd"><g id="Web-developent-services_new" transform="translate(-920.000000, -3504.000000)"><g id="Group-42" transform="translate(922.000000, 3506.000000)"><rect id="Rectangle" x="0.995260664" y="0" width="209.004739" height="196"></rect><g id="Web-Applications" transform="translate(0.000000, -0.000000)"><polygon id="Path-12" fill="#D8D8D8" points="78.1163893 141.27907 89.2758735 141.27907 87.0439766 169.310631 75.8844925 169.310631"></polygon><path d="M208.858057,28.8490493 L208.858057,128.860889 C208.858057,131.894138 207.658814,134.803152 205.524149,136.947983 C203.389483,139.092813 200.494256,140.297766 197.475383,140.297766 L11.4776482,140.297766 C8.45877539,140.297766 5.56354776,139.092813 3.42888232,136.947983 C1.29421689,134.803152 0.0949743335,131.894138 0.0949743335,128.860889 L0.0949743335,12.0587404 C0.0949743335,5.74232757 5.19117101,0.621863293 11.4776482,0.621863293 L198.80899,0.0315799402 C204.33181,0.0141774665 208.823048,4.47720025 208.84045,10.0000203 C208.840474,10.0074144 208.840489,10.0148085 208.840496,10.0222026 L208.858057,28.8490493 L208.858057,28.8490493 Z" id="Path" stroke="#37474F" stroke-width="3" stroke-linecap="round"></path><line x1="0.0949743335" y1="113.043932" x2="208.858057" y2="113.043932" id="Path" stroke="#37474F" stroke-width="3"></line><line x1="77.836215" y1="140.297766" x2="75.656554" y2="169.741641" id="Path" stroke="#37474F" stroke-width="3"></line><line x1="130.390262" y1="140.297766" x2="132.569923" y2="169.741641" id="Path" stroke="#37474F" stroke-width="3"></line><rect id="Rectangle" stroke="#37474F" stroke-width="3" fill="#00C8FF" x="57.0083437" y="169.741641" width="94.4519746" height="20.6350463" rx="4"></rect><line x1="91.5077703" y1="125.940836" x2="115.726225" y2="125.940836" id="Path" stroke="#00C8FF" stroke-width="3" stroke-linecap="round"></line><rect id="Rectangle" fill="#00C8FF" x="67.1800948" y="76.0714286" width="76.7772512" height="13.9285714" rx="6.5"></rect><g id="corners" transform="translate(119.431280, 79.285714)" fill="#FFFFFF" fill-rule="nonzero" stroke="#37474F" stroke-width="2"><path d="M15.7348934,14.5473214 L9.73530806,8.51910714 L15.3218602,7.11583333 C15.6993483,7.02166667 15.9718602,6.69119048 15.9935427,6.30059524 C16.0161137,5.91083333 15.7826422,5.55160714 15.4190758,5.41386905 L1.20106635,0.0567261905 C0.873045024,-0.0653571429 0.506812796,0.0131547619 0.260367299,0.261607143 C0.0139218009,0.50922619 -0.065936019,0.878928571 0.056457346,1.20678571 L5.3882109,15.4925 C5.51919431,15.8420833 5.85154028,16.0714881 6.22037915,16.0714881 C6.23684834,16.0714881 6.25420616,16.0705357 6.2707346,16.0697024 C6.65953791,16.0479167 6.98838863,15.7741071 7.082109,15.3948214 L8.47873223,9.78166667 L14.4783768,15.809881 C14.651955,15.9842857 14.8793246,16.0714881 15.1066351,16.0714881 C15.3339455,16.0714881 15.5613744,15.9842857 15.7348934,15.809881 C16.0819905,15.461131 16.0819905,14.8960714 15.7348934,14.5473214 Z" id="Path"></path></g><path d="M8.53080569,113.521595 L8.53080569,10.5215947 C8.53080569,9.41702518 9.42623619,8.52159468 10.5308057,8.52159468 L198.473934,8.52159468 C199.578503,8.52159468 200.473934,9.41702518 200.473934,10.5215947 L200.473934,113.521595 L200.473934,113.521595" id="Path-13" stroke="#37474F" stroke-width="3"></path><g id="Group-11" transform="translate(54.383886, 37.500000)"><line x1="7.99763033" y1="6.96428571" x2="67.7132701" y2="6.96428571" id="Line" stroke="#37474F" stroke-width="3" stroke-linecap="round" stroke-linejoin="round"></line><text id="******" font-family="Montserrat-SemiBold, Montserrat" font-size="12" font-weight="500" fill="#3A4750"><tspan x="9.55006635" y="30.75">******</tspan></text><rect id="Rectangle" stroke="#37474F" stroke-width="2" opacity="0.601655506" x="1" y="1" width="100.369668" height="11.9285714" rx="2"></rect><rect id="Rectangle" stroke="#37474F" stroke-width="2" opacity="0.601655506" x="1" y="18.1428571" width="100.369668" height="11.9285714" rx="2"></rect></g></g></g></g></g></svg> 