<?xml version="1.0" encoding="utf-8"?>
<!-- Generator: Adobe Illustrator 23.0.6, SVG Export Plug-In . SVG Version: 6.00 Build 0)  -->
<svg version="1.1" id="Layer_1" xmlns="http://www.w3.org/2000/svg" xmlns:xlink="http://www.w3.org/1999/xlink" x="0px" y="0px"
	 viewBox="0 0 33 33" style="enable-background:new 0 0 33 33;" xml:space="preserve">
<style type="text/css">
	.st0{fill:url(#SVGID_1_);}
	.st1{fill:url(#SVGID_2_);}
	.st2{fill:url(#SVGID_3_);}
	.st3{fill:url(#SVGID_4_);}
	.st4{fill:url(#SVGID_5_);}
	.st5{fill:url(#SVGID_6_);}
	.st6{fill:url(#SVGID_7_);}
	.st7{fill:url(#SVGID_8_);}
	.st8{fill:url(#SVGID_9_);}
	.st9{fill:url(#SVGID_10_);}
</style>
<linearGradient id="SVGID_1_" gradientUnits="userSpaceOnUse" x1="16.5021" y1="33" x2="16.5021" y2="0">
	<stop  offset="0" style="stop-color:#EC7032"/>
	<stop  offset="1" style="stop-color:#F1922F"/>
</linearGradient>
<path class="st0" d="M32.8,4.8l-4.5-4.5C28.1,0.1,28,0,27.8,0c-0.2,0-0.4,0.1-0.5,0.2l-27,27C0.1,27.4,0,27.6,0,27.8
	s0.1,0.4,0.2,0.5l4.5,4.5C4.9,32.9,5.1,33,5.3,33c0.2,0,0.4-0.1,0.5-0.2l27-27C33.1,5.5,33.1,5.1,32.8,4.8z M28.5,8l-1.7-1.7
	l-1.1,1.1L27.5,9l-2.3,2.3L23.8,10L22.7,11l1.4,1.4l-1.9,1.9L20.8,13L19.7,14l1.4,1.4l-2.3,2.3L17.1,16L16,17.1l1.7,1.7l-2.3,2.3
	L14,19.7L13,20.8l1.4,1.4l-1.9,1.9L11,22.7L10,23.8l1.4,1.4L9,27.5l-1.7-1.7l-1.1,1.1L8,28.5l-2.7,2.7l-3.5-3.4L27.8,1.8l3.4,3.5
	L28.5,8z M28.8,24.5l-6.3-6.3l-1.1,1.1l5.4,5.4l-2.1,2.1l-5.4-5.4l-1.1,1.1l6.3,6.3c0.4,0.4,3.9,2.1,6.7,3.4c0.1,0,0.2,0.1,0.3,0.1
	c0.2,0,0.4-0.1,0.5-0.2c0.2-0.2,0.3-0.6,0.1-0.9C30.9,28.4,29.2,24.9,28.8,24.5z M25.8,27.8l2-2c0.4,0.6,1.2,2.3,2.1,4.1
	C28,29,26.4,28.2,25.8,27.8z M2.3,6.6L2.3,6.6l8.4,8.2l1-1.1L4.5,6.6l2.1-2.1l7.1,7.3l1.1-1L6.6,2.3l0,0L5,0.8
	C4.6,0.4,4.1,0.1,3.6,0C3-0.1,2.5,0.1,2.1,0.5L0.5,2.1c-0.7,0.7-0.6,2,0.3,2.9L2.3,6.6z M1.5,3.1l1.6-1.6c0,0,0.1-0.1,0.2,0
	c0.2,0,0.4,0.1,0.6,0.3l1.6,1.6L3.4,5.5L1.8,3.9C1.6,3.8,1.5,3.6,1.5,3.4C1.5,3.3,1.5,3.2,1.5,3.1z"/>
</svg>
