<?xml version="1.0" encoding="UTF-8"?> <svg xmlns="http://www.w3.org/2000/svg" xmlns:xlink="http://www.w3.org/1999/xlink" width="224px" height="206px" viewBox="0 0 224 206" version="1.1"><title>C03A2BC3-B2A5-43B5-973B-09CDBDBAD973</title><g id="Page-1" stroke="none" stroke-width="1" fill="none" fill-rule="evenodd"><g id="Web-developent-services_new" transform="translate(-921.000000, -2619.000000)"><g id="Website-Development" transform="translate(923.000000, 2621.000000)"><g transform="translate(0.000000, 23.000000)"><polygon id="Path-12" fill="#D8D8D8" transform="translate(116.441860, 144.988372) scale(-1, 1) translate(-116.441860, -144.988372) " points="112.255814 131.906977 122.72093 131.906977 120.627907 158.069767 110.162791 158.069767"></polygon><g id="Customer-satisf-icon" transform="translate(0.000000, 0.046512)" stroke-width="3"><path d="M195.862444,26.9257793 L195.862444,120.270163 C195.862444,123.101195 194.737821,125.816275 192.73598,127.818117 C190.734138,129.819959 188.019058,130.944582 185.188026,130.944582 L10.7634834,130.944582 C7.93245159,130.944582 5.21737145,129.819959 3.21552964,127.818117 C1.21368784,125.816275 0.0890648194,123.101195 0.0890648194,120.270163 L0.0890648194,11.2548243 C0.0890648194,5.35950574 4.86816482,0.58040574 10.7634834,0.58040574 L185.815246,0.0314296648 C191.338066,0.0141096664 195.829237,4.47719952 195.846557,10.0000199 C195.84658,10.0073494 195.846595,10.0146789 195.846602,10.0220084 L195.862444,26.9257793 L195.862444,26.9257793 Z" id="Path" stroke="#37474F" stroke-linecap="round"></path><line x1="0.0890648194" y1="105.507669" x2="195.862444" y2="105.507669" id="Path" stroke="#37474F"></line><line x1="72.9930727" y1="130.944582" x2="70.9490351" y2="158.425532" id="Path" stroke="#37474F"></line><line x1="122.277091" y1="130.944582" x2="124.321128" y2="158.425532" id="Path" stroke="#37474F"></line><rect id="Rectangle" stroke="#37474F" fill="#00C8FF" x="53.4611578" y="158.425532" width="88.5749629" height="19.2593765" rx="4"></rect><line x1="85.8139535" y1="117.54478" x2="108.525482" y2="117.54478" id="Path" stroke="#00C8FF" stroke-linecap="round"></line><path d="M8,105.953488 L8,9.95348837 C8,8.84891887 8.8954305,7.95348837 10,7.95348837 L186,7.95348837 C187.104569,7.95348837 188,8.84891887 188,9.95348837 L188,105.953488 L188,105.953488" id="Path-13" stroke="#37474F"></path></g><g id="Group-9" transform="translate(21.000000, 19.000000)" fill-rule="nonzero"><path d="M97.3238434,0 C98.0845302,0 98.7010676,0.61486747 98.7010676,1.37349398 L98.7010676,8.69879518 C98.7010676,9.45742169 98.0845302,10.0722892 97.3238434,10.0722892 L1.3772242,10.0722892 C0.616537367,10.0722892 0,9.45742169 0,8.69879518 L0,1.37349398 C0,0.61486747 0.616537367,0 1.3772242,0 L97.3238434,0 Z" id="Shape" fill="#00C8FF"></path><path d="M44.5302491,17.3975904 L4.59074733,17.3975904 C3.8300605,17.3975904 3.21352313,16.7827229 3.21352313,16.0240964 C3.21352313,15.2654699 3.8300605,14.6506024 4.59074733,14.6506024 L44.5302491,14.6506024 C45.2909359,14.6506024 45.9074733,15.2654699 45.9074733,16.0240964 C45.9074733,16.7827229 45.2909359,17.3975904 44.5302491,17.3975904 Z" id="Path" fill="#37474F"></path><path d="M127.622776,24.2650602 L4.59074733,24.2650602 C3.8300605,24.2650602 3.21352313,23.6501928 3.21352313,22.8915663 C3.21352313,22.1329398 3.8300605,21.5180723 4.59074733,21.5180723 L127.622776,21.5180723 C128.383463,21.5180723 129,22.1329398 129,22.8915663 C129,23.6501928 128.383463,24.2650602 127.622776,24.2650602 Z" id="Path" fill="#37474F"></path><path d="M123.032028,31.1325301 L120.736655,31.1325301 C119.975968,31.1325301 119.359431,30.5176627 119.359431,29.7590361 C119.359431,29.0004096 119.975968,28.3855422 120.736655,28.3855422 L123.032028,28.3855422 C123.792715,28.3855422 124.409253,29.0004096 124.409253,29.7590361 C124.409253,30.5176627 123.792715,31.1325301 123.032028,31.1325301 Z M112.47331,31.1325301 L110.177936,31.1325301 C109.417249,31.1325301 108.800712,30.5176627 108.800712,29.7590361 C108.800712,29.0004096 109.417249,28.3855422 110.177936,28.3855422 L112.47331,28.3855422 C113.233996,28.3855422 113.850534,29.0004096 113.850534,29.7590361 C113.850534,30.5176627 113.233996,31.1325301 112.47331,31.1325301 Z M101.914591,31.1325301 L99.6192171,31.1325301 C98.8585302,31.1325301 98.2419929,30.5176627 98.2419929,29.7590361 C98.2419929,29.0004096 98.8585302,28.3855422 99.6192171,28.3855422 L101.914591,28.3855422 C102.675278,28.3855422 103.291815,29.0004096 103.291815,29.7590361 C103.291815,30.5176627 102.675278,31.1325301 101.914591,31.1325301 Z M91.3558719,31.1325301 L89.0604982,31.1325301 C88.2998114,31.1325301 87.683274,30.5176627 87.683274,29.7590361 C87.683274,29.0004096 88.2998114,28.3855422 89.0604982,28.3855422 L91.3558719,28.3855422 C92.1165587,28.3855422 92.7330961,29.0004096 92.7330961,29.7590361 C92.7330961,30.5176627 92.1165587,31.1325301 91.3558719,31.1325301 Z M80.797153,31.1325301 L78.5022384,31.1325301 C77.7415516,31.1325301 77.1250142,30.5176627 77.1250142,29.7590361 C77.1250142,29.0004096 77.7415516,28.3855422 78.5022384,28.3855422 L80.797153,28.3855422 C81.5578399,28.3855422 82.1743772,29.0004096 82.1743772,29.7590361 C82.1743772,30.5176627 81.5578399,31.1325301 80.797153,31.1325301 Z M70.2384342,31.1325301 L67.9430605,31.1325301 C67.1823737,31.1325301 66.5658363,30.5176627 66.5658363,29.7590361 C66.5658363,29.0004096 67.1823737,28.3855422 67.9430605,28.3855422 L70.2384342,28.3855422 C70.999121,28.3855422 71.6156584,29.0004096 71.6156584,29.7590361 C71.6156584,30.5176627 70.999121,31.1325301 70.2384342,31.1325301 Z M59.6797153,31.1325301 L57.3843416,31.1325301 C56.6236548,31.1325301 56.0071174,30.5176627 56.0071174,29.7590361 C56.0071174,29.0004096 56.6236548,28.3855422 57.3843416,28.3855422 L59.6797153,28.3855422 C60.4404021,28.3855422 61.0569395,29.0004096 61.0569395,29.7590361 C61.0569395,30.5176627 60.4404021,31.1325301 59.6797153,31.1325301 Z M49.1209964,31.1325301 L46.8256228,31.1325301 C46.0649359,31.1325301 45.4483986,30.5176627 45.4483986,29.7590361 C45.4483986,29.0004096 46.0649359,28.3855422 46.8256228,28.3855422 L49.1209964,28.3855422 C49.8816833,28.3855422 50.4982206,29.0004096 50.4982206,29.7590361 C50.4982206,30.5176627 49.8816833,31.1325301 49.1209964,31.1325301 Z M38.5622776,31.1325301 L36.2669039,31.1325301 C35.5062171,31.1325301 34.8896797,30.5176627 34.8896797,29.7590361 C34.8896797,29.0004096 35.5062171,28.3855422 36.2669039,28.3855422 L38.5622776,28.3855422 C39.3229644,28.3855422 39.9395018,29.0004096 39.9395018,29.7590361 C39.9395018,30.5176627 39.3229644,31.1325301 38.5622776,31.1325301 Z M28.0035587,31.1325301 L25.7081851,31.1325301 C24.9474982,31.1325301 24.3309609,30.5176627 24.3309609,29.7590361 C24.3309609,29.0004096 24.9474982,28.3855422 25.7081851,28.3855422 L28.0035587,28.3855422 C28.7642456,28.3855422 29.3807829,29.0004096 29.3807829,29.7590361 C29.3807829,30.5176627 28.7642456,31.1325301 28.0035587,31.1325301 Z M17.4448399,31.1325301 L15.1494662,31.1325301 C14.3887794,31.1325301 13.772242,30.5176627 13.772242,29.7590361 C13.772242,29.0004096 14.3887794,28.3855422 15.1494662,28.3855422 L17.4448399,28.3855422 C18.2055267,28.3855422 18.8220641,29.0004096 18.8220641,29.7590361 C18.8220641,30.5176627 18.2055267,31.1325301 17.4448399,31.1325301 Z M6.886121,31.1325301 L4.59074733,31.1325301 C3.8300605,31.1325301 3.21352313,30.5176627 3.21352313,29.7590361 C3.21352313,29.0004096 3.8300605,28.3855422 4.59074733,28.3855422 L6.886121,28.3855422 C7.64680783,28.3855422 8.2633452,29.0004096 8.2633452,29.7590361 C8.2633452,30.5176627 7.64680783,31.1325301 6.886121,31.1325301 Z" id="Shape" fill="#37474F"></path><path d="M44.5302491,39.8313253 L4.59074733,39.8313253 C3.8300605,39.8313253 3.21352313,39.2164578 3.21352313,38.4578313 C3.21352313,37.6992048 3.8300605,37.0843373 4.59074733,37.0843373 L44.5302491,37.0843373 C45.2909359,37.0843373 45.9074733,37.6992048 45.9074733,38.4578313 C45.9074733,39.2164578 45.2909359,39.8313253 44.5302491,39.8313253 Z" id="Path" fill="#37474F"></path><path d="M127.622776,46.6987952 L4.59074733,46.6987952 C3.8300605,46.6987952 3.21352313,46.0839277 3.21352313,45.3253012 C3.21352313,44.5666747 3.8300605,43.9518072 4.59074733,43.9518072 L127.622776,43.9518072 C128.383463,43.9518072 129,44.5666747 129,45.3253012 C129,46.0839277 128.383463,46.6987952 127.622776,46.6987952 Z" id="Path" fill="#37474F"></path><path d="M127.622776,53.5662651 L4.59074733,53.5662651 C3.8300605,53.5662651 3.21352313,52.9513976 3.21352313,52.1927711 C3.21352313,51.4341446 3.8300605,50.8192771 4.59074733,50.8192771 L127.622776,50.8192771 C128.383463,50.8192771 129,51.4341446 129,52.1927711 C129,52.9513976 128.383463,53.5662651 127.622776,53.5662651 Z" id="Path" fill="#37474F"></path><path d="M44.5302491,62.2650602 L4.59074733,62.2650602 C3.8300605,62.2650602 3.21352313,61.6501928 3.21352313,60.8915663 C3.21352313,60.1329398 3.8300605,59.5180723 4.59074733,59.5180723 L44.5302491,59.5180723 C45.2909359,59.5180723 45.9074733,60.1329398 45.9074733,60.8915663 C45.9074733,61.6501928 45.2909359,62.2650602 44.5302491,62.2650602 Z" id="Path" fill="#37474F"></path><path d="M127.622776,69.1325301 L4.59074733,69.1325301 C3.8300605,69.1325301 3.21352313,68.5176627 3.21352313,67.7590361 C3.21352313,67.0004096 3.8300605,66.3855422 4.59074733,66.3855422 L127.622776,66.3855422 C128.383463,66.3855422 129,67.0004096 129,67.7590361 C129,68.5176627 128.383463,69.1325301 127.622776,69.1325301 Z" id="Path" fill="#37474F"></path><path d="M123.032028,76 L120.736655,76 C119.975968,76 119.359431,75.3851325 119.359431,74.626506 C119.359431,73.8678795 119.975968,73.253012 120.736655,73.253012 L123.032028,73.253012 C123.792715,73.253012 124.409253,73.8678795 124.409253,74.626506 C124.409253,75.3851325 123.792715,76 123.032028,76 Z M112.47331,76 L110.177936,76 C109.417249,76 108.800712,75.3851325 108.800712,74.626506 C108.800712,73.8678795 109.417249,73.253012 110.177936,73.253012 L112.47331,73.253012 C113.233996,73.253012 113.850534,73.8678795 113.850534,74.626506 C113.850534,75.3851325 113.233996,76 112.47331,76 Z M101.914591,76 L99.6192171,76 C98.8585302,76 98.2419929,75.3851325 98.2419929,74.626506 C98.2419929,73.8678795 98.8585302,73.253012 99.6192171,73.253012 L101.914591,73.253012 C102.675278,73.253012 103.291815,73.8678795 103.291815,74.626506 C103.291815,75.3851325 102.675278,76 101.914591,76 Z M91.3558719,76 L89.0604982,76 C88.2998114,76 87.683274,75.3851325 87.683274,74.626506 C87.683274,73.8678795 88.2998114,73.253012 89.0604982,73.253012 L91.3558719,73.253012 C92.1165587,73.253012 92.7330961,73.8678795 92.7330961,74.626506 C92.7330961,75.3851325 92.1165587,76 91.3558719,76 Z M80.797153,76 L78.5022384,76 C77.7415516,76 77.1250142,75.3851325 77.1250142,74.626506 C77.1250142,73.8678795 77.7415516,73.253012 78.5022384,73.253012 L80.797153,73.253012 C81.5578399,73.253012 82.1743772,73.8678795 82.1743772,74.626506 C82.1743772,75.3851325 81.5578399,76 80.797153,76 Z M70.2384342,76 L67.9430605,76 C67.1823737,76 66.5658363,75.3851325 66.5658363,74.626506 C66.5658363,73.8678795 67.1823737,73.253012 67.9430605,73.253012 L70.2384342,73.253012 C70.999121,73.253012 71.6156584,73.8678795 71.6156584,74.626506 C71.6156584,75.3851325 70.999121,76 70.2384342,76 Z M59.6797153,76 L57.3843416,76 C56.6236548,76 56.0071174,75.3851325 56.0071174,74.626506 C56.0071174,73.8678795 56.6236548,73.253012 57.3843416,73.253012 L59.6797153,73.253012 C60.4404021,73.253012 61.0569395,73.8678795 61.0569395,74.626506 C61.0569395,75.3851325 60.4404021,76 59.6797153,76 Z M49.1209964,76 L46.8256228,76 C46.0649359,76 45.4483986,75.3851325 45.4483986,74.626506 C45.4483986,73.8678795 46.0649359,73.253012 46.8256228,73.253012 L49.1209964,73.253012 C49.8816833,73.253012 50.4982206,73.8678795 50.4982206,74.626506 C50.4982206,75.3851325 49.8816833,76 49.1209964,76 Z M38.5622776,76 L36.2669039,76 C35.5062171,76 34.8896797,75.3851325 34.8896797,74.626506 C34.8896797,73.8678795 35.5062171,73.253012 36.2669039,73.253012 L38.5622776,73.253012 C39.3229644,73.253012 39.9395018,73.8678795 39.9395018,74.626506 C39.9395018,75.3851325 39.3229644,76 38.5622776,76 Z M28.0035587,76 L25.7081851,76 C24.9474982,76 24.3309609,75.3851325 24.3309609,74.626506 C24.3309609,73.8678795 24.9474982,73.253012 25.7081851,73.253012 L28.0035587,73.253012 C28.7642456,73.253012 29.3807829,73.8678795 29.3807829,74.626506 C29.3807829,75.3851325 28.7642456,76 28.0035587,76 Z M17.4448399,76 L15.1494662,76 C14.3887794,76 13.772242,75.3851325 13.772242,74.626506 C13.772242,73.8678795 14.3887794,73.253012 15.1494662,73.253012 L17.4448399,73.253012 C18.2055267,73.253012 18.8220641,73.8678795 18.8220641,74.626506 C18.8220641,75.3851325 18.2055267,76 17.4448399,76 Z M6.886121,76 L4.59074733,76 C3.8300605,76 3.21352313,75.3851325 3.21352313,74.626506 C3.21352313,73.8678795 3.8300605,73.253012 4.59074733,73.253012 L6.886121,73.253012 C7.64680783,73.253012 8.2633452,73.8678795 8.2633452,74.626506 C8.2633452,75.3851325 7.64680783,76 6.886121,76 Z" id="Shape" fill="#37474F"></path></g></g><g id="005-monitor" transform="translate(152.000000, 0.000000)" fill-rule="nonzero" stroke-width="3"><path d="M36.4795208,0 C37.0189167,0 37.4733125,0.4048125 37.5349375,0.940666667 L38.4950833,9.26322917 C39.6096458,9.3871875 40.6696667,9.700625 41.6291042,9.98466667 C41.7994583,10.0353125 41.9662708,10.0845417 42.1277708,10.1312917 L47.7115625,3.56220833 C48.0554583,3.15845833 48.6444375,3.06885417 49.0913958,3.35395833 L52.9872292,5.833125 C53.4108125,6.10264583 53.5878958,6.632125 53.4115208,7.10245833 L50.4645,14.9617708 L53.0385833,17.5358542 L60.8978958,14.5884792 C61.3682292,14.4124583 61.8980625,14.5891875 62.1675833,15.0127708 L64.64675,18.9086042 C64.9364583,19.3644167 64.8387083,19.9650833 64.4186667,20.3047292 L57.6140625,25.8134375 C58.0670417,26.955625 58.358875,28.2253125 58.618125,29.4911042 L67.0593333,30.4650625 C67.5955417,30.5270417 68,30.9810833 68,31.5204792 L68,36.4788125 C68,37.0033333 67.6175,37.4492292 67.099,37.5289167 L58.6206042,38.8333125 C58.3521458,40.0856458 58.052875,41.2203958 57.5892708,42.4907917 L64.3942292,47.6754375 C64.8330417,48.010125 64.9431875,48.6253125 64.64675,49.0910417 L62.1675833,52.986875 C61.8980625,53.4101042 61.3682292,53.58825 60.8978958,53.4111667 L53.1147292,50.4924792 C52.4496042,51.2606667 51.7168333,51.9226042 51.0538333,52.5215 C50.8526667,52.7031875 50.6568125,52.8799167 50.4701667,53.0531042 L53.411875,60.8975417 C53.58825,61.367875 53.4111667,61.8973542 52.9875833,62.166875 L49.09175,64.6460417 C48.6447917,64.9315 48.0554583,64.84225 47.7119167,64.4377917 L42.2060417,57.9600833 C41.0581875,58.4180208 39.7796458,58.711625 38.5057083,58.9722917 L37.5349375,67.0635833 C37.4704792,67.5980208 37.0171458,68 36.4795208,68 L31.5211875,68 C30.9991458,68 30.5546667,67.6206875 30.4721458,67.105375 L29.1712917,58.9754792 C27.9111667,58.7056042 26.7703958,58.4049167 25.4907917,57.9363542 L20.3089792,64.4137083 C19.9799583,64.8248958 19.3987708,64.9329167 18.9440208,64.6676458 L14.6940208,62.1884792 C14.2343125,61.920375 14.0437708,61.3533542 14.2484792,60.862125 L17.4784792,53.110125 C16.49425,52.3107708 15.6701042,51.4852083 14.8711042,50.4981458 L7.10245833,53.4115208 C6.63283333,53.5886042 6.10229167,53.4111667 5.83277083,52.9872292 L3.35360417,49.0913958 C3.06247917,48.6338125 3.16270833,48.0299583 3.58629167,47.6910208 L10.0632917,42.5092083 C9.59508333,41.2299583 9.29404167,40.0891875 9.02416667,38.8290625 L0.894625,37.5282083 C0.378958333,37.4456875 0,37.0012083 0,36.4791667 L0,31.5208333 C0,30.9828542 0.401979167,30.529875 0.9360625,30.4657708 L9.02735417,29.4946458 C9.288375,28.2203542 9.581625,26.9421667 10.0395625,25.7943125 L3.56185417,20.2884375 C3.15775,19.9448958 3.06885417,19.3559167 3.35360417,18.9086042 L5.83277083,15.0127708 C6.10229167,14.5895417 6.63283333,14.4124583 7.10245833,14.5884792 L14.9465417,17.5301875 C15.1197292,17.3431875 15.2961042,17.1476875 15.4781458,16.9465208 C16.071375,16.2898958 16.725875,15.5649167 17.4845,14.9051042 L14.2484792,7.137875 C14.0437708,6.64664583 14.2343125,6.079625 14.6940208,5.81152083 L18.9440208,3.33235417 C19.3987708,3.06672917 19.9799583,3.17510417 20.3089792,3.58629167 L25.5595,10.1493542 C25.9335,10.0544375 26.2993542,9.947125 26.6577708,9.84229167 C27.4581875,9.60747917 28.2791458,9.36664583 29.1843958,9.26216667 L30.4710833,0.901 C30.5507708,0.382854167 30.9966667,0 31.5211875,0 L36.4795208,0 Z" id="Shape" stroke="#37474F" fill="#FFD740"></path><path d="M34,21 C41.2898378,21 47,26.7101622 47,34 C47,41.2898378 41.2898378,47 34,47 C26.7101622,47 21,41.2898378 21,34 C21,26.7101622 26.7101622,21 34,21 Z" id="Shape" stroke="#394750" fill="#FFFFFF"></path></g></g></g></g></svg> 